SplineFontDB: 3.2
FontName: MononokiFork-Italic
FullName: Mononoki Fork Italic
FamilyName: MononokiFork
Weight: Regular
Copyright: Modifications:\nCopyright (c) 2020, Marvin Dostal\n\nOriginal author:\nCopyright (c) 2013-2017, Matthias Tellen matthias.tellen@googlemail.com\n\nLicensed under SIL OPEN FONT LICENSE Version 1.1 - 26 February 2007
Version: 2.0
ItalicAngle: -9
UnderlinePosition: 0
UnderlineWidth: 0
Ascent: 819
Descent: 205
InvalidEm: 1
UFOAscent: 750
UFODescent: -250
LayerCount: 2
Layer: 0 0 "Back" 1
Layer: 1 0 "Fore" 0
StyleMap: 0x0001
FSType: 0
OS2Version: 0
OS2_WeightWidthSlopeOnly: 0
OS2_UseTypoMetrics: 0
CreationTime: 1593379981
ModificationTime: 1599347494
PfmFamily: 16
TTFWeight: 400
TTFWidth: 5
LineGap: 0
VLineGap: 0
OS2TypoAscent: 0
OS2TypoAOffset: 1
OS2TypoDescent: 0
OS2TypoDOffset: 1
OS2TypoLinegap: 0
OS2WinAscent: 900
OS2WinAOffset: 0
OS2WinDescent: 250
OS2WinDOffset: 0
HheadAscent: 0
HheadAOffset: 1
HheadDescent: 0
HheadDOffset: 1
OS2CapHeight: 700
OS2XHeight: 500
OS2Vendor: 'PfEd'
MarkAttachClasses: 1
DEI: 91125
LangName: 1033
PickledDataWithLists: "(dp0
VGSDimensionPlugin.Dimensions
p1
(dp2
V8A9476DE-11F4-4864-A7B4-14D9B7165FAE
p3
(dp4
VHV
p5
I240
ssVA14B1AE3-86D5-4EA7-AE2F-7B4FA04DAB2E
p6
(dp7
ssVcom.schriftgestaltung.disablesAutomaticAlignment
p8
I01
sVcom.schriftgestaltung.fontMaster.userData
p9
(dp10
VGSCornerRadius
p11
I25
sVGSOffsetHorizontal
p12
I10
sVGSOffsetPosition
p13
I1
sVGSOffsetVertical
p14
I10
ssVcom.schriftgestaltung.fontMasterID
p15
V8A9476DE-11F4-4864-A7B4-14D9B7165FAE
p16
sVcom.schriftgestaltung.glyphOrder
p17
I00
sVcom.schriftgestaltung.useNiceNames
p18
I00
sVcom.typemytype.robofont.layerOrder
p19
(lp20
Vbackground
p21
asVpublic.glyphOrder
p22
(lp23
VA
p24
aVAacute
p25
aVAbreve
p26
aVAcircumflex
p27
aVAdieresis
p28
aVAgrave
p29
aVAmacron
p30
aVAogonek
p31
aVAring
p32
aVAtilde
p33
aVAE
p34
aVB
p35
aVC
p36
aVCacute
p37
aVCcaron
p38
aVCcedilla
p39
aVCcircumflex
p40
aVD
p41
aVEth
p42
aVDcaron
p43
aVDcroat
p44
aVE
p45

StartChar: A
Encoding: 65 65 0
GlifName: A_
Width: 575
VWidth: 0
Flags: HW
AnchorPoint: "ogonek" 479 10 basechar 0
AnchorPoint: "top" 359 700 basechar 0
LayerCount: 2
Fore
SplineSet
469 621 m 258
 523 28 l 258
 525 11 514 0 497 0 c 258
 461 0 l 258
 446 0 439 7 437 22 c 257
 419 220 l 257
 147 220 l 257
 66 22 l 257
 61 7 49 0 34 0 c 258
 -1 0 l 258
 -19 0 -25 11 -18 28 c 258
 224 621 l 258
 248 679 296 710 355 710 c 256
 414 710 464 679 469 621 c 258
306 607 m 257
 178 296 l 257
 412 296 l 257
 384 607 l 258
 382 625 366 634 349 634 c 256
 332 634 312 625 306 607 c 257
EndSplineSet
PickledDataWithLists: "(dp0
Vcom.schriftgestaltung.Glyphs.lastChange
p1
V2016-06-09 18:44:34 +0000
p2
s."
EndChar

StartChar: A.hex
Encoding: 65537 -1 1
GlifName: A_.hex
Width: 575
VWidth: 0
Flags: HW
LayerCount: 2
Fore
SplineSet
114 875 m 258
 114 829 l 258
 114 812 105 804 89 804 c 258
 54 804 l 258
 37 804 29 813 29 829 c 258
 29 875 l 258
 29 891 38 900 54 900 c 258
 89 900 l 258
 105 900 114 891 114 875 c 258
402 875 m 258
 402 829 l 258
 402 812 393 804 377 804 c 258
 342 804 l 258
 325 804 317 813 317 829 c 258
 317 875 l 258
 317 891 326 900 342 900 c 258
 377 900 l 258
 393 900 402 891 402 875 c 258
EndSplineSet
Refer: 0 65 N 1 0 0 1 0 0 2
PickledDataWithLists: "(dp0
Vcom.schriftgestaltung.Glyphs.lastChange
p1
V2016-06-09 18:35:33 +0000
p2
s."
EndChar

StartChar: AE
Encoding: 198 198 2
GlifName: A_E_
Width: 575
VWidth: 0
Flags: HW
LayerCount: 2
Fore
SplineSet
346 77 m 257
 466 77 l 258
 483 77 489 68 487 52 c 258
 482 25 l 258
 480 9 470 0 453 0 c 258
 273 0 l 258
 257 0 250 9 252 25 c 258
 275 170 l 257
 126 170 l 257
 66 22 l 257
 61 7 49 0 34 0 c 258
 -1 0 l 258
 -19 0 -25 11 -18 28 c 258
 224 621 l 258
 248 679 294 700 359 700 c 258
 553 700 l 258
 569 700 577 692 574 675 c 258
 570 649 l 258
 568 632 557 624 541 624 c 258
 432 624 l 257
 397 403 l 257
 499 403 l 258
 515 403 523 394 520 378 c 258
 516 351 l 258
 513 335 503 326 487 326 c 258
 385 326 l 257
 346 77 l 257
287 246 m 257
 349 634 l 257
 328 634 312 624 306 607 c 258
 157 246 l 257
 287 246 l 257
EndSplineSet
PickledDataWithLists: "(dp0
Vcom.schriftgestaltung.Glyphs.lastChange
p1
V2016-06-09 18:35:33 +0000
p2
s."
EndChar

StartChar: B
Encoding: 66 66 13
GlifName: B_
Width: 575
VWidth: 0
Flags: HW
LayerCount: 2
Fore
SplineSet
66 25 m 257
 161 624 l 257
 123 624 l 258
 106 624 100 633 102 649 c 258
 106 675 l 258
 109 691 118 700 135 700 c 257
 315 700 l 258
 435 700 519 658 519 553 c 256
 519 476 473 404 401 370 c 257
 469 346 507 289 507 213 c 256
 507 75 382 0 224 0 c 258
 87 0 l 258
 71 0 64 9 66 25 c 257
246 624 m 257
 211 403 l 257
 268 403 l 258
 370 403 442 448 442 527 c 256
 442 591 394 624 303 624 c 258
 246 624 l 257
160 77 m 257
 237 77 l 258
 348 77 431 121 431 215 c 256
 431 299 362 326 276 326 c 258
 199 326 l 257
 160 77 l 257
EndSplineSet
PickledDataWithLists: "(dp0
Vcom.schriftgestaltung.Glyphs.lastChange
p1
V2016-06-09 18:35:33 +0000
p2
s."
EndChar

StartChar: B.hex
Encoding: 65538 -1 14
GlifName: B_.hex
Width: 575
VWidth: 0
Flags: HW
LayerCount: 2
Fore
SplineSet
214 875 m 258
 214 829 l 258
 214 812 205 804 189 804 c 258
 154 804 l 258
 137 804 129 813 129 829 c 258
 129 875 l 258
 129 891 138 900 154 900 c 258
 189 900 l 258
 205 900 214 891 214 875 c 258
502 875 m 258
 502 829 l 258
 502 812 493 804 477 804 c 258
 442 804 l 258
 425 804 417 813 417 829 c 258
 417 875 l 258
 417 891 426 900 442 900 c 258
 477 900 l 258
 493 900 502 891 502 875 c 258
646 875 m 258
 646 829 l 258
 646 812 637 804 621 804 c 258
 586 804 l 258
 569 804 561 813 561 829 c 258
 561 875 l 258
 561 891 570 900 586 900 c 258
 621 900 l 258
 637 900 646 891 646 875 c 258
EndSplineSet
Refer: 13 66 N 1 0 0 1 0 0 2
PickledDataWithLists: "(dp0
Vcom.schriftgestaltung.Glyphs.lastChange
p1
V2016-06-09 18:35:33 +0000
p2
s."
EndChar

StartChar: C
Encoding: 67 67 16
GlifName: C_
Width: 575
VWidth: 0
Flags: HW
AnchorPoint: "top" 359 700 basechar 0
AnchorPoint: "bottom" 248 0 basechar 0
LayerCount: 2
Fore
SplineSet
422 81 m 256
 438 87 448 82 452 67 c 258
 458 43 l 258
 462 28 456 16 440 10 c 256
 390 -10 342 -20 297 -20 c 256
 194 -20 85 33 85 207 c 256
 85 246 90 280 107 390 c 256
 147 640 295 710 413 710 c 256
 458 710 502 700 546 680 c 256
 560 674 562 662 554 647 c 258
 540 623 l 258
 532 608 520 603 506 609 c 256
 464 625 430 632 399 632 c 256
 320 632 224 586 193 390 c 256
 176 286 172 253 172 217 c 256
 172 91 241 58 308 58 c 256
 339 58 376 65 422 81 c 256
  PathStart: -2
EndSplineSet
PickledDataWithLists: "(dp0
Vcom.schriftgestaltung.Glyphs.lastChange
p1
V2016-06-09 18:35:33 +0000
p2
s."
EndChar

StartChar: C.hex
Encoding: 65539 -1 17
GlifName: C_.hex
Width: 575
VWidth: 0
Flags: HW
LayerCount: 2
Fore
SplineSet
214 875 m 258
 214 829 l 258
 214 812 205 804 189 804 c 258
 154 804 l 258
 137 804 129 813 129 829 c 258
 129 875 l 258
 129 891 138 900 154 900 c 258
 189 900 l 258
 205 900 214 891 214 875 c 258
358 875 m 258
 358 829 l 258
 358 812 349 804 333 804 c 258
 298 804 l 258
 281 804 273 813 273 829 c 258
 273 875 l 258
 273 891 282 900 298 900 c 258
 333 900 l 258
 349 900 358 891 358 875 c 258
EndSplineSet
Refer: 16 67 N 1 0 0 1 0 0 2
PickledDataWithLists: "(dp0
Vcom.schriftgestaltung.Glyphs.lastChange
p1
V2016-06-09 18:35:33 +0000
p2
s."
EndChar

StartChar: D
Encoding: 68 68 23
GlifName: D_
Width: 575
VWidth: 0
Flags: HW
LayerCount: 2
Fore
SplineSet
133 700 m 258
 185 700 l 258
 402 700 546 648 546 473 c 256
 546 433 542 405 528 320 c 256
 494 102 394 0 143 0 c 258
 89 0 l 258
 72 0 63 10 66 27 c 258
 161 624 l 257
 125 624 l 258
 108 624 99 634 102 651 c 258
 106 677 l 258
 108 692 118 700 133 700 c 258
160 76 m 257
 345 80 415 145 444 332 c 256
 459 420 461 441 461 473 c 256
 461 570 405 614 247 622 c 257
 160 76 l 257
  PathStart: -2
EndSplineSet
PickledDataWithLists: "(dp0
Vcom.schriftgestaltung.Glyphs.lastChange
p1
V2016-06-09 18:46:00 +0000
p2
s."
EndChar

StartChar: D.hex
Encoding: 65540 -1 24
GlifName: D_.hex
Width: 575
VWidth: 0
Flags: HW
LayerCount: 2
Fore
SplineSet
214 875 m 258
 214 829 l 258
 214 812 205 804 189 804 c 258
 154 804 l 258
 137 804 129 813 129 829 c 258
 129 875 l 258
 129 891 138 900 154 900 c 258
 189 900 l 258
 205 900 214 891 214 875 c 258
358 875 m 258
 358 829 l 258
 358 812 349 804 333 804 c 258
 298 804 l 258
 281 804 273 813 273 829 c 258
 273 875 l 258
 273 891 282 900 298 900 c 258
 333 900 l 258
 349 900 358 891 358 875 c 258
646 875 m 258
 646 829 l 258
 646 812 637 804 621 804 c 258
 586 804 l 258
 569 804 561 813 561 829 c 258
 561 875 l 258
 561 891 570 900 586 900 c 258
 621 900 l 258
 637 900 646 891 646 875 c 258
EndSplineSet
Refer: 23 68 N 1 0 0 1 0 0 2
PickledDataWithLists: "(dp0
Vcom.schriftgestaltung.Glyphs.lastChange
p1
V2016-06-09 18:35:33 +0000
p2
s."
EndChar

StartChar: E
Encoding: 69 69 27
GlifName: E_
Width: 575
VWidth: 0
Flags: HW
LayerCount: 2
Fore
SplineSet
143 77 m 257
 464 77 l 258
 480 77 487 68 485 52 c 258
 480 25 l 258
 478 9 467 0 451 0 c 258
 70 0 l 258
 54 0 47 9 49 25 c 258
 152 675 l 258
 155 691 165 700 181 700 c 258
 540 700 l 258
 556 700 564 692 561 675 c 258
 557 649 l 258
 555 632 544 624 528 624 c 258
 229 624 l 257
 194 403 l 257
 472 403 l 258
 488 403 496 394 493 378 c 258
 489 351 l 258
 486 335 476 326 460 326 c 258
 182 326 l 257
 143 77 l 257
EndSplineSet
PickledDataWithLists: "(dp0
Vcom.schriftgestaltung.Glyphs.lastChange
p1
V2016-06-09 18:35:33 +0000
p2
s."
EndChar

StartChar: E.hex
Encoding: 65541 -1 28
GlifName: E_.hex
Width: 575
VWidth: 0
Flags: HW
LayerCount: 2
Fore
SplineSet
214 875 m 258
 214 829 l 258
 214 812 205 804 189 804 c 258
 154 804 l 258
 137 804 129 813 129 829 c 258
 129 875 l 258
 129 891 138 900 154 900 c 258
 189 900 l 258
 205 900 214 891 214 875 c 258
358 875 m 258
 358 829 l 258
 358 812 349 804 333 804 c 258
 298 804 l 258
 281 804 273 813 273 829 c 258
 273 875 l 258
 273 891 282 900 298 900 c 258
 333 900 l 258
 349 900 358 891 358 875 c 258
502 875 m 258
 502 829 l 258
 502 812 493 804 477 804 c 258
 442 804 l 258
 425 804 417 813 417 829 c 258
 417 875 l 258
 417 891 426 900 442 900 c 258
 477 900 l 258
 493 900 502 891 502 875 c 258
EndSplineSet
Refer: 27 69 N 1 0 0 1 0 0 2
PickledDataWithLists: "(dp0
Vcom.schriftgestaltung.Glyphs.lastChange
p1
V2016-06-09 18:35:33 +0000
p2
s."
EndChar

StartChar: Eth
Encoding: 208 208 39
GlifName: E_th
Width: 575
VWidth: 0
Flags: HW
LayerCount: 2
Fore
SplineSet
36 337 m 258
 40 363 l 258
 43 380 53 389 69 389 c 258
 292 389 l 258
 308 389 316 380 313 364 c 258
 309 337 l 258
 306 321 296 312 280 312 c 258
 57 312 l 258
 41 312 33 321 36 337 c 258
EndSplineSet
Refer: 23 68 N 1 0 0 1 -10 0 2
PickledDataWithLists: "(dp0
Vcom.schriftgestaltung.Glyphs.lastChange
p1
V2016-06-09 18:35:33 +0000
p2
s."
EndChar

StartChar: Euro
Encoding: 8364 8364 40
GlifName: E_uro
Width: 575
VWidth: 0
Flags: HW
LayerCount: 2
Fore
SplineSet
469 385 m 258
 89 385 l 258
 73 385 66 394 68 410 c 258
 72 431 l 258
 74 448 85 456 101 456 c 258
 119 456 l 257
 145 573 208 710 424 710 c 256
 457 710 511 708 570 697 c 256
 586 694 591 684 585 668 c 258
 575 641 l 257
 569 626 557 619 542 622 c 256
 487 632 437 634 412 634 c 256
 266 634 225 552 204 456 c 257
 481 456 l 258
 497 456 504 448 502 431 c 258
 498 410 l 258
 496 394 485 385 469 385 c 258
456 78 m 256
 472 81 481 75 483 59 c 258
 485 33 l 257
 485 17 477 6 460 3 c 256
 394 -9 341 -10 310 -10 c 256
 92 -10 74 130 85 244 c 257
 67 244 l 258
 51 244 43 253 46 269 c 258
 49 290 l 258
 52 307 62 315 78 315 c 258
 458 315 l 258
 474 315 482 307 479 290 c 258
 476 269 l 258
 473 253 463 244 447 244 c 258
 171 244 l 257
 160 116 201 67 322 67 c 256
 350 67 399 69 456 78 c 256
  PathStart: -2
EndSplineSet
PickledDataWithLists: "(dp0
Vcom.schriftgestaltung.Glyphs.lastChange
p1
V2015-12-22 14:04:06 +0000
p2
s."
EndChar

StartChar: F
Encoding: 70 70 41
GlifName: F_
Width: 575
VWidth: 0
Flags: HW
LayerCount: 2
Fore
SplineSet
181 700 m 257
 562 700 l 257
 578 700 586 692 583 675 c 258
 579 649 l 258
 577 632 566 624 550 624 c 258
 229 624 l 257
 189 368 l 257
 488 368 l 258
 504 368 511 359 509 343 c 258
 504 316 l 258
 502 300 492 292 476 292 c 258
 177 292 l 257
 134 25 l 258
 132 9 122 0 105 0 c 258
 70 0 l 258
 54 0 47 9 49 25 c 258
 152 675 l 258
 155 691 165 700 181 700 c 257
EndSplineSet
PickledDataWithLists: "(dp0
Vcom.schriftgestaltung.Glyphs.lastChange
p1
V2016-06-09 18:35:33 +0000
p2
s."
EndChar

StartChar: F.hex
Encoding: 65542 -1 42
GlifName: F_.hex
Width: 575
VWidth: 0
Flags: HW
LayerCount: 2
Fore
SplineSet
214 875 m 258
 214 829 l 258
 214 812 205 804 189 804 c 258
 154 804 l 258
 137 804 129 813 129 829 c 258
 129 875 l 258
 129 891 138 900 154 900 c 258
 189 900 l 258
 205 900 214 891 214 875 c 258
358 875 m 258
 358 829 l 258
 358 812 349 804 333 804 c 258
 298 804 l 258
 281 804 273 813 273 829 c 258
 273 875 l 258
 273 891 282 900 298 900 c 258
 333 900 l 258
 349 900 358 891 358 875 c 258
502 875 m 258
 502 829 l 258
 502 812 493 804 477 804 c 258
 442 804 l 258
 425 804 417 813 417 829 c 258
 417 875 l 258
 417 891 426 900 442 900 c 258
 477 900 l 258
 493 900 502 891 502 875 c 258
646 875 m 258
 646 829 l 258
 646 812 637 804 621 804 c 258
 586 804 l 258
 569 804 561 813 561 829 c 258
 561 875 l 258
 561 891 570 900 586 900 c 258
 621 900 l 258
 637 900 646 891 646 875 c 258
EndSplineSet
Refer: 41 70 N 1 0 0 1 0 0 2
PickledDataWithLists: "(dp0
Vcom.schriftgestaltung.Glyphs.lastChange
p1
V2016-06-09 18:35:33 +0000
p2
s."
EndChar

StartChar: G
Encoding: 71 71 43
GlifName: G_
Width: 575
VWidth: 0
Flags: HW
AnchorPoint: "top" 359 700 basechar 0
AnchorPoint: "bottom" 248 0 basechar 0
LayerCount: 2
Fore
SplineSet
365 389 m 258
 497 389 l 258
 513 389 521 380 518 364 c 258
 467 41 l 258
 465 27 457 17 443 11 c 256
 391 -10 342 -20 297 -20 c 256
 194 -20 85 33 85 206 c 256
 85 246 90 280 107 390 c 256
 147 640 295 710 413 710 c 256
 458 710 502 700 546 680 c 256
 560 674 562 662 554 647 c 258
 540 623 l 258
 532 608 520 603 506 609 c 256
 464 625 430 632 399 632 c 256
 320 632 224 586 193 390 c 256
 176 286 172 253 172 217 c 256
 172 91 241 58 308 58 c 256
 330 58 356 62 386 70 c 257
 425 312 l 257
 353 312 l 258
 336 312 329 321 332 337 c 258
 336 363 l 258
 339 380 349 389 365 389 c 258
EndSplineSet
PickledDataWithLists: "(dp0
Vcom.schriftgestaltung.Glyphs.lastChange
p1
V2016-06-09 18:35:33 +0000
p2
s."
EndChar

StartChar: Gamma
Encoding: 915 915 44
GlifName: G_amma
Width: 575
VWidth: 0
Flags: HW
LayerCount: 2
Fore
SplineSet
166 700 m 258
 551 700 l 258
 568 700 575 692 572 675 c 258
 568 649 l 258
 566 632 556 624 539 624 c 258
 214 624 l 257
 119 25 l 258
 117 9 107 0 90 0 c 258
 55 0 l 258
 39 0 32 9 34 25 c 258
 137 675 l 258
 140 692 150 700 166 700 c 258
EndSplineSet
PickledDataWithLists: "(dp0
Vcom.schriftgestaltung.Glyphs.lastChange
p1
V2015-12-22 16:32:37 +0000
p2
s."
EndChar

StartChar: H
Encoding: 72 72 46
GlifName: H_
Width: 575
VWidth: 0
Flags: HW
AnchorPoint: "bottom" 248 0 basechar 0
AnchorPoint: "top" 359 700 basechar 0
AnchorPoint: "topleft" 91 700 basechar 0
AnchorPoint: "center" 304 350 basechar 0
LayerCount: 2
Fore
SplineSet
518 700 m 258
 553 700 l 258
 569 700 577 692 574 675 c 258
 471 25 l 258
 469 9 459 0 442 0 c 258
 407 0 l 258
 391 0 384 9 386 25 c 258
 435 333 l 257
 166 333 l 257
 117 25 l 258
 115 9 105 0 88 0 c 258
 53 0 l 258
 37 0 30 9 32 25 c 257
 135 675 l 258
 138 691 148 700 164 700 c 258
 199 700 l 258
 216 700 223 692 220 675 c 258
 178 410 l 257
 447 410 l 257
 489 675 l 258
 492 692 502 700 518 700 c 258
EndSplineSet
PickledDataWithLists: "(dp0
Vcom.schriftgestaltung.Glyphs.lastChange
p1
V2016-06-09 18:35:33 +0000
p2
s."
EndChar

StartChar: I
Encoding: 73 73 48
GlifName: I_
Width: 575
VWidth: 0
Flags: HW
AnchorPoint: "ogonek" 477 10 basechar 0
AnchorPoint: "top" 359 700 basechar 0
AnchorPoint: "topleft" 91 700 basechar 0
AnchorPoint: "bottom" 248 0 basechar 0
LayerCount: 2
Fore
SplineSet
191 700 m 258
 526 700 l 258
 542 700 550 692 547 675 c 258
 543 649 l 258
 541 632 530 624 514 624 c 258
 389 624 l 257
 303 77 l 257
 438 77 l 258
 455 77 461 68 459 52 c 258
 454 25 l 258
 452 9 442 0 425 0 c 258
 70 0 l 258
 54 0 47 9 49 25 c 258
 54 52 l 258
 56 68 67 77 83 77 c 258
 218 77 l 257
 304 624 l 257
 179 624 l 258
 163 624 156 633 158 649 c 258
 162 675 l 258
 165 692 175 700 191 700 c 258
EndSplineSet
PickledDataWithLists: "(dp0
Vcom.schriftgestaltung.Glyphs.lastChange
p1
V2016-06-09 18:35:33 +0000
p2
s."
EndChar

StartChar: IJ
Encoding: 306 306 49
GlifName: I_J_
Width: 575
VWidth: 0
Flags: HW
LayerCount: 2
Fore
SplineSet
161 700 m 258
 296 700 l 258
 312 700 320 692 317 675 c 258
 313 649 l 258
 311 632 300 624 284 624 c 258
 259 624 l 257
 173 77 l 257
 208 77 l 258
 225 77 231 68 229 52 c 258
 224 25 l 258
 222 9 212 0 195 0 c 258
 40 0 l 258
 24 0 17 9 19 25 c 258
 24 52 l 258
 26 68 37 77 53 77 c 258
 88 77 l 257
 174 624 l 257
 149 624 l 258
 133 624 126 633 128 649 c 258
 132 675 l 258
 135 692 145 700 161 700 c 258
423 700 m 258
 536 700 l 258
 553 700 560 692 557 675 c 258
 470 125 l 258
 454 24 398 1 302 1 c 256
 285 1 277 9 279 25 c 258
 284 52 l 258
 286 68 297 77 313 77 c 256
 350 77 379 86 385 125 c 258
 464 624 l 257
 411 624 l 258
 395 624 388 632 390 649 c 258
 394 675 l 258
 397 691 407 700 423 700 c 258
EndSplineSet
PickledDataWithLists: "(dp0
Vcom.schriftgestaltung.Glyphs.lastChange
p1
V2016-06-09 18:35:33 +0000
p2
s."
EndChar

StartChar: J
Encoding: 74 74 57
GlifName: J_
Width: 575
VWidth: 0
Flags: HW
AnchorPoint: "top" 359 700 basechar 0
AnchorPoint: "bottom" 248 0 basechar 0
LayerCount: 2
Fore
SplineSet
268 700 m 258
 536 700 l 258
 553 700 560 692 557 675 c 258
 494 275 l 258
 459 52 328 -10 164 -10 c 256
 134 -10 88 -8 36 3 c 256
 20 6 15 17 22 33 c 258
 33 59 l 258
 39 75 51 81 67 78 c 256
 112 69 155 67 176 67 c 256
 332 67 390 153 409 275 c 258
 464 624 l 257
 256 624 l 258
 240 624 233 632 235 649 c 258
 239 675 l 258
 242 691 252 700 268 700 c 258
EndSplineSet
PickledDataWithLists: "(dp0
Vcom.schriftgestaltung.Glyphs.lastChange
p1
V2016-06-09 18:35:33 +0000
p2
s."
EndChar

StartChar: K
Encoding: 75 75 59
GlifName: K_
Width: 575
VWidth: 0
Flags: HW
LayerCount: 2
Fore
SplineSet
455 0 m 258
 403 0 l 258
 389 0 381 5 376 16 c 258
 203 323 l 257
 182 323 l 257
 134 25 l 258
 132 9 122 0 105 0 c 258
 70 0 l 258
 54 0 47 9 49 25 c 258
 152 675 l 258
 155 691 165 700 181 700 c 258
 216 700 l 258
 233 700 240 692 237 675 c 258
 194 399 l 257
 216 399 l 257
 466 685 l 258
 476 696 485 700 498 700 c 258
 551 700 l 258
 572 700 577 687 562 670 c 258
 280 360 l 257
 475 31 l 258
 486 14 476 0 455 0 c 258
EndSplineSet
PickledDataWithLists: "(dp0
Vcom.schriftgestaltung.Glyphs.lastChange
p1
V2016-06-09 18:35:33 +0000
p2
s."
EndChar

StartChar: L
Encoding: 76 76 61
GlifName: L_
Width: 575
VWidth: 0
Flags: HW
LayerCount: 2
Fore
SplineSet
143 77 m 257
 502 77 l 258
 518 77 525 68 523 52 c 258
 518 25 l 258
 516 9 505 0 489 0 c 258
 70 0 l 258
 54 0 47 9 49 25 c 258
 152 675 l 258
 155 691 165 700 181 700 c 258
 216 700 l 258
 233 700 240 692 237 675 c 258
 143 77 l 257
EndSplineSet
PickledDataWithLists: "(dp0
Vcom.schriftgestaltung.Glyphs.lastChange
p1
V2016-06-09 18:35:33 +0000
p2
s."
EndChar

StartChar: Lambda
Encoding: 923 923 63
GlifName: L_ambda
Width: 575
VWidth: 0
Flags: HW
LayerCount: 2
Fore
SplineSet
361 710 m 256
 425 710 464 679 469 621 c 258
 523 28 l 258
 525 11 514 0 497 0 c 258
 461 0 l 258
 446 0 439 7 437 22 c 258
 384 607 l 258
 382 624 370 634 349 634 c 256
 328 634 312 624 306 607 c 258
 66 22 l 258
 61 7 49 0 34 0 c 258
 -1 0 l 258
 -19 0 -25 11 -18 28 c 258
 224 621 l 258
 248 679 296 710 361 710 c 256
  PathStart: -2
EndSplineSet
PickledDataWithLists: "(dp0
Vcom.schriftgestaltung.Glyphs.lastChange
p1
V2015-12-22 12:18:02 +0000
p2
s."
EndChar

StartChar: Lslash
Encoding: 321 321 66
GlifName: L_slash
Width: 575
VWidth: 0
Flags: HW
LayerCount: 2
Fore
SplineSet
32 332 m 258
 299 512 l 258
 312 520 326 517 333 507 c 258
 348 484 l 258
 356 471 351 455 338 446 c 258
 71 267 l 258
 58 259 44 261 37 271 c 258
 21 294 l 258
 13 306 19 323 32 332 c 258
EndSplineSet
Refer: 61 76 N 1 0 0 1 0 0 2
PickledDataWithLists: "(dp0
Vcom.schriftgestaltung.Glyphs.lastChange
p1
V2016-06-09 18:35:33 +0000
p2
s."
EndChar

StartChar: M
Encoding: 77 77 67
GlifName: M_
Width: 575
VWidth: 0
Flags: HW
LayerCount: 2
Fore
SplineSet
570 705 m 258
 588 705 596 696 593 680 c 257
 510 26 l 257
 507 11 494 0 479 0 c 258
 445 0 l 258
 430 0 423 11 425 26 c 258
 488 540 l 257
 342 318 l 258
 334 305 324 300 310 300 c 258
 282 300 l 258
 268 300 260 305 256 318 c 258
 180 540 l 257
 81 26 l 258
 77 11 66 0 51 0 c 258
 17 0 l 258
 2 0 -7 11 -4 26 c 258
 119 680 l 258
 122 696 132 705 150 705 c 258
 166 705 l 258
 194 705 211 694 219 669 c 258
 312 399 l 257
 489 669 l 258
 505 694 526 705 554 705 c 258
 570 705 l 258
  PathStart: -2
EndSplineSet
PickledDataWithLists: "(dp0
Vcom.schriftgestaltung.Glyphs.lastChange
p1
V2016-06-09 18:35:33 +0000
p2
s."
EndChar

StartChar: N
Encoding: 78 78 69
GlifName: N_
Width: 575
VWidth: 0
Flags: HW
LayerCount: 2
Fore
SplineSet
518 705 m 258
 552 705 l 258
 567 705 576 694 574 679 c 258
 470 25 l 258
 468 9 457 0 439 0 c 258
 423 0 l 258
 395 0 379 11 370 36 c 258
 198 527 l 257
 119 26 l 258
 116 11 104 0 89 0 c 258
 55 0 l 258
 40 0 31 11 34 26 c 258
 137 680 l 258
 140 696 150 705 168 705 c 258
 184 705 l 258
 212 705 229 694 237 669 c 258
 408 169 l 257
 489 679 l 258
 491 694 503 705 518 705 c 258
EndSplineSet
PickledDataWithLists: "(dp0
Vcom.schriftgestaltung.Glyphs.lastChange
p1
V2016-06-09 18:35:33 +0000
p2
s."
EndChar

StartChar: O
Encoding: 79 79 74
GlifName: O_
Width: 575
VWidth: 0
Flags: HW
LayerCount: 2
Fore
SplineSet
111 457 m 256
 137 624 238 710 356 710 c 256
 458 710 535 644 535 519 c 256
 535 480 529 456 496 243 c 256
 470 78 370 -10 252 -10 c 256
 155 -10 77 48 72 162 c 256
 70 214 77 246 111 457 c 256
  PathStart: -2
159 172 m 256
 166 104 214 66 264 66 c 256
 329 66 393 131 411 243 c 256
 443 443 449 475 449 503 c 256
 449 587 399 634 344 634 c 256
 279 634 214 569 196 457 c 256
 161 237 155 215 159 172 c 256
  PathStart: -2
EndSplineSet
PickledDataWithLists: "(dp0
Vcom.schriftgestaltung.Glyphs.lastChange
p1
V2016-06-09 18:35:33 +0000
p2
s."
EndChar

StartChar: OE
Encoding: 338 338 75
GlifName: O_E_
Width: 575
VWidth: 0
Flags: HW
LayerCount: 2
Fore
SplineSet
346 77 m 257
 466 77 l 258
 483 77 489 68 487 52 c 258
 482 25 l 258
 480 9 470 0 453 0 c 258
 248 0 l 258
 128 0 79 76 79 185 c 256
 79 223 85 256 116 447 c 256
 139 594 217 700 359 700 c 258
 553 700 l 258
 569 700 577 692 574 675 c 258
 570 649 l 258
 568 632 557 624 541 624 c 258
 432 624 l 257
 397 403 l 257
 499 403 l 258
 515 403 523 394 520 378 c 258
 516 351 l 258
 513 335 503 326 487 326 c 258
 385 326 l 257
 346 77 l 257
261 77 m 257
 347 624 l 257
 255 624 216 539 201 447 c 256
 169 248 165 227 165 196 c 256
 165 129 189 77 261 77 c 257
EndSplineSet
PickledDataWithLists: "(dp0
Vcom.schriftgestaltung.Glyphs.lastChange
p1
V2016-06-09 18:35:33 +0000
p2
s."
EndChar

StartChar: P
Encoding: 80 80 85
GlifName: P_
Width: 575
VWidth: 0
Flags: HW
LayerCount: 2
Fore
SplineSet
181 700 m 258
 316 700 l 258
 480 700 556 616 556 508 c 256
 556 360 418 260 247 260 c 258
 172 260 l 257
 134 25 l 258
 132 9 122 0 105 0 c 258
 70 0 l 258
 54 0 47 9 49 25 c 258
 152 675 l 258
 155 691 165 700 181 700 c 258
184 336 m 257
 259 336 l 258
 379 336 470 402 470 495 c 256
 470 569 419 624 304 624 c 258
 229 624 l 257
 184 336 l 257
EndSplineSet
PickledDataWithLists: "(dp0
Vcom.schriftgestaltung.Glyphs.lastChange
p1
V2016-06-09 18:35:33 +0000
p2
s."
EndChar

StartChar: Phi
Encoding: 934 934 86
GlifName: P_hi
Width: 575
VWidth: 0
Flags: HW
LayerCount: 2
Fore
SplineSet
617 649 m 258
 615 633 604 624 588 624 c 258
 389 624 l 257
 378 550 l 257
 486 538 549 479 549 386 c 256
 549 256 451 166 314 150 c 257
 302 76 l 257
 501 76 l 258
 517 76 525 67 522 51 c 258
 518 25 l 258
 516 8 505 0 489 0 c 258
 7 0 l 258
 -10 0 -16 9 -14 25 c 258
 -10 51 l 258
 -7 67 2 76 18 76 c 258
 217 76 l 257
 229 150 l 257
 121 162 58 222 58 314 c 256
 58 445 155 534 292 549 c 257
 304 624 l 257
 105 624 l 258
 89 624 83 633 85 649 c 258
 89 675 l 258
 92 691 101 700 118 700 c 258
 600 700 l 258
 616 700 624 692 621 675 c 258
 617 649 l 258
  PathStart: -2
280 472 m 257
 197 457 144 402 144 329 c 256
 144 275 179 239 242 228 c 257
 280 472 l 257
  PathStart: -1
327 228 m 257
 410 243 463 298 463 371 c 256
 463 425 427 461 365 472 c 257
 327 228 l 257
  PathStart: -1
EndSplineSet
PickledDataWithLists: "(dp0
Vcom.schriftgestaltung.Glyphs.lastChange
p1
V2015-12-22 12:22:42 +0000
p2
s."
EndChar

StartChar: Pi
Encoding: 928 928 87
GlifName: P_i
Width: 575
VWidth: 0
Flags: HW
LayerCount: 2
Fore
SplineSet
181 700 m 258
 536 700 l 258
 553 700 560 692 557 675 c 258
 454 25 l 258
 452 9 442 0 425 0 c 258
 390 0 l 258
 374 0 367 9 369 25 c 258
 464 624 l 257
 229 624 l 257
 134 25 l 258
 132 9 122 0 105 0 c 258
 70 0 l 258
 54 0 47 9 49 25 c 258
 152 675 l 258
 155 692 165 700 181 700 c 258
EndSplineSet
PickledDataWithLists: "(dp0
Vcom.schriftgestaltung.Glyphs.lastChange
p1
V2015-12-22 12:20:26 +0000
p2
s."
EndChar

StartChar: Psi
Encoding: 936 936 88
GlifName: P_si
Width: 575
VWidth: 0
Flags: HW
LayerCount: 2
Fore
SplineSet
531 700 m 258
 566 700 l 258
 583 700 590 692 587 675 c 258
 549 433 l 258
 529 309 454 235 326 222 c 257
 294 25 l 258
 292 9 282 0 265 0 c 258
 230 0 l 258
 214 0 207 9 209 25 c 258
 241 222 l 257
 134 234 80 291 80 386 c 256
 80 401 81 417 84 433 c 258
 122 675 l 258
 125 691 135 700 151 700 c 258
 186 700 l 258
 202 700 210 692 207 675 c 258
 169 433 l 258
 167 423 167 412 167 403 c 256
 167 349 193 312 253 301 c 257
 312 675 l 258
 315 691 325 700 341 700 c 258
 376 700 l 258
 393 700 400 691 397 675 c 258
 338 301 l 257
 412 314 453 363 464 433 c 258
 502 675 l 258
 505 691 515 700 531 700 c 258
EndSplineSet
PickledDataWithLists: "(dp0
Vcom.schriftgestaltung.Glyphs.lastChange
p1
V2015-12-22 12:24:48 +0000
p2
s."
EndChar

StartChar: Q
Encoding: 81 81 89
GlifName: Q_
Width: 575
VWidth: 0
Flags: HW
LayerCount: 2
Fore
SplineSet
473 -142 m 257
 480 -168 l 257
 483 -183 478 -195 461 -200 c 257
 426 -212 388 -220 353 -220 c 256
 258 -220 179 -167 204 -6 c 258
 212 43 l 257
 298 43 l 257
 290 -6 l 258
 273 -114 307 -142 365 -142 c 256
 390 -142 414 -138 442 -128 c 256
 458 -122 468 -127 473 -142 c 257
EndSplineSet
Refer: 74 79 N 1 0 0 1 0 0 2
PickledDataWithLists: "(dp0
Vcom.schriftgestaltung.Glyphs.lastChange
p1
V2016-06-09 18:35:33 +0000
p2
s."
EndChar

StartChar: R
Encoding: 82 82 90
GlifName: R_
Width: 575
VWidth: 0
Flags: HW
LayerCount: 2
Fore
SplineSet
411 335 m 257
 516 30 l 258
 522 12 512 0 493 0 c 258
 451 0 l 258
 437 0 429 6 425 18 c 258
 325 312 l 257
 180 312 l 257
 134 25 l 258
 132 9 121 0 105 0 c 258
 70 0 l 258
 54 0 47 9 49 25 c 258
 152 675 l 258
 155 692 165 700 181 700 c 258
 339 700 l 258
 476 700 544 631 544 537 c 256
 544 454 489 370 411 335 c 257
192 389 m 257
 290 389 l 258
 383 389 457 446 457 520 c 256
 457 575 417 624 327 624 c 258
 229 624 l 257
 192 389 l 257
EndSplineSet
PickledDataWithLists: "(dp0
Vcom.schriftgestaltung.Glyphs.lastChange
p1
V2016-06-09 18:35:33 +0000
p2
s."
EndChar

StartChar: S
Encoding: 83 83 94
GlifName: S_
Width: 575
VWidth: 0
Flags: HW
AnchorPoint: "top" 449 694 basechar 0
AnchorPoint: "bottom" 208 0 basechar 0
LayerCount: 2
Fore
SplineSet
531 652 m 258
 517 625 l 258
 510 610 498 605 484 611 c 256
 451 624 415 634 377 634 c 256
 294 634 210 586 210 511 c 256
 210 463 242 419 316 403 c 256
 446 375 507 307 507 220 c 256
 507 84 357 -10 209 -10 c 256
 161 -10 107 0 65 20 c 256
 51 26 48 38 57 53 c 258
 71 77 l 258
 79 92 91 97 105 91 c 257
 141 75 192 69 226 69 c 256
 323 69 419 118 419 204 c 256
 419 256 382 299 295 318 c 256
 171 345 122 415 122 493 c 256
 122 623 248 710 389 710 c 256
 432 710 486 701 525 683 c 256
 538 676 538 668 531 652 c 258
EndSplineSet
PickledDataWithLists: "(dp0
Vcom.schriftgestaltung.Glyphs.lastChange
p1
V2016-06-09 18:35:33 +0000
p2
s."
EndChar

StartChar: T
Encoding: 84 84 100
GlifName: T_
Width: 575
VWidth: 0
Flags: HW
LayerCount: 2
Fore
SplineSet
621 675 m 258
 617 649 l 258
 615 633 604 624 588 624 c 258
 389 624 l 257
 294 25 l 258
 292 9 282 0 265 0 c 258
 230 0 l 258
 214 0 207 9 209 25 c 258
 304 624 l 257
 105 624 l 258
 89 624 83 633 85 649 c 258
 89 675 l 258
 92 691 101 700 118 700 c 258
 600 700 l 258
 616 700 624 692 621 675 c 258
EndSplineSet
PickledDataWithLists: "(dp0
Vcom.schriftgestaltung.Glyphs.lastChange
p1
V2016-06-09 18:35:33 +0000
p2
s."
EndChar

StartChar: Theta
Encoding: 920 920 104
GlifName: T_heta
Width: 575
VWidth: 0
Flags: HW
LayerCount: 2
Fore
SplineSet
261 347 m 258
 266 374 l 258
 268 390 279 399 295 399 c 258
 324 399 l 258
 340 399 347 390 345 374 c 258
 340 347 l 258
 338 331 327 322 311 322 c 258
 282 322 l 258
 266 322 259 331 261 347 c 258
EndSplineSet
Refer: 74 79 N 1 0 0 1 0 0 2
PickledDataWithLists: "(dp0
Vcom.schriftgestaltung.Glyphs.lastChange
p1
V2016-05-30 08:32:14 +0000
p2
s."
EndChar

StartChar: Thorn
Encoding: 222 222 105
GlifName: T_horn
Width: 575
VWidth: 0
Flags: HW
LayerCount: 2
Fore
SplineSet
237 675 m 258
 231 637 l 257
 268 641 299 642 321 642 c 256
 459 642 519 590 519 448 c 256
 519 254 438 121 239 121 c 256
 219 121 188 122 150 126 c 257
 134 25 l 258
 132 9 121 0 105 0 c 258
 70 0 l 258
 54 0 47 9 49 25 c 258
 152 675 l 258
 155 691 165 700 181 700 c 258
 216 700 l 258
 232 700 240 691 237 675 c 258
219 562 m 257
 162 202 l 257
 199 199 231 198 251 198 c 256
 387 198 433 298 433 435 c 256
 433 533 399 565 309 565 c 256
 291 565 259 565 219 562 c 257
EndSplineSet
PickledDataWithLists: "(dp0
Vcom.schriftgestaltung.Glyphs.lastChange
p1
V2016-06-09 18:35:33 +0000
p2
s."
EndChar

StartChar: U
Encoding: 85 85 106
GlifName: U_
Width: 575
VWidth: 0
Flags: HW
AnchorPoint: "ogonek" 477 10 basechar 0
AnchorPoint: "top" 359 700 basechar 0
AnchorPoint: "topright" 626 700 basechar 0
AnchorPoint: "bottom" 248 0 basechar 0
LayerCount: 2
Fore
SplineSet
406 213 m 258
 479 675 l 258
 482 691 492 700 508 700 c 258
 543 700 l 258
 559 700 567 691 564 675 c 258
 491 213 l 258
 465 46 377 -10 259 -10 c 256
 157 -10 67 32 67 152 c 256
 67 171 69 191 72 213 c 258
 145 675 l 258
 148 691 158 700 174 700 c 258
 209 700 l 258
 225 700 233 691 230 675 c 258
 157 213 l 258
 154 192 152 174 152 159 c 256
 152 90 202 66 271 66 c 256
 355 66 389 103 406 213 c 258
EndSplineSet
PickledDataWithLists: "(dp0
Vcom.schriftgestaltung.Glyphs.lastChange
p1
V2016-06-09 18:35:33 +0000
p2
s."
EndChar

StartChar: V
Encoding: 86 86 117
GlifName: V_
Width: 575
VWidth: 0
Flags: HW
LayerCount: 2
Fore
SplineSet
625 672 m 258
 383 79 l 258
 360 21 312 -10 253 -10 c 256
 194 -10 144 21 138 79 c 258
 84 672 l 258
 83 689 92 700 110 700 c 258
 145 700 l 258
 160 700 169 693 170 678 c 257
 224 93 l 257
 225 75 242 66 259 66 c 256
 276 66 295 75 302 93 c 257
 541 678 l 257
 547 693 557 700 572 700 c 258
 608 700 l 258
 625 700 633 689 625 672 c 258
EndSplineSet
PickledDataWithLists: "(dp0
Vcom.schriftgestaltung.Glyphs.lastChange
p1
V2016-06-09 18:35:33 +0000
p2
s."
EndChar

StartChar: X
Encoding: 88 88 123
GlifName: X_
Width: 575
VWidth: 0
Flags: HW
LayerCount: 2
Fore
SplineSet
595 671 m 258
 415 390 l 258
 406 376 390 364 372 357 c 257
 388 351 400 338 405 325 c 258
 500 30 l 258
 505 12 496 0 477 0 c 258
 446 0 l 258
 432 0 423 6 419 18 c 258
 325 295 l 258
 318 315 310 325 300 325 c 256
 289 325 277 315 265 295 c 258
 82 18 l 258
 74 6 64 0 50 0 c 258
 19 0 l 258
 0 0 -6 12 5 30 c 258
 195 325 l 258
 203 338 220 351 237 357 c 257
 222 364 209 376 205 390 c 258
 114 671 l 258
 108 688 117 700 137 700 c 258
 168 700 l 258
 182 700 190 695 194 682 c 258
 285 419 l 258
 291 400 299 390 310 390 c 256
 320 390 332 399 345 419 c 258
 517 682 l 258
 525 695 536 700 550 700 c 258
 581 700 l 258
 600 700 606 688 595 671 c 258
EndSplineSet
PickledDataWithLists: "(dp0
Vcom.schriftgestaltung.Glyphs.lastChange
p1
V2016-06-09 18:35:33 +0000
p2
s."
EndChar

StartChar: Xi
Encoding: 926 926 124
GlifName: X_i
Width: 575
VWidth: 0
Flags: HW
LayerCount: 2
Fore
SplineSet
528 624 m 258
 165 624 l 258
 149 624 142 632 144 649 c 258
 148 675 l 258
 151 692 161 700 177 700 c 258
 540 700 l 258
 556 700 564 692 561 675 c 258
 557 649 l 258
 555 632 544 624 528 624 c 258
151 403 m 258
 472 403 l 258
 488 403 496 394 493 378 c 258
 489 351 l 258
 486 335 476 326 460 326 c 258
 139 326 l 258
 123 326 115 335 118 351 c 258
 122 378 l 258
 125 394 135 403 151 403 c 258
57 77 m 258
 464 77 l 258
 480 77 487 68 485 52 c 258
 480 25 l 258
 478 9 467 0 451 0 c 258
 44 0 l 258
 28 0 21 9 23 25 c 258
 28 52 l 258
 30 68 41 77 57 77 c 258
EndSplineSet
PickledDataWithLists: "(dp0
Vcom.schriftgestaltung.Glyphs.lastChange
p1
V2015-12-22 12:18:54 +0000
p2
s."
EndChar

StartChar: Y
Encoding: 89 89 125
GlifName: Y_
Width: 575
VWidth: 0
Flags: HW
LayerCount: 2
Fore
SplineSet
567 700 m 258
 603 700 l 258
 623 700 628 688 617 671 c 258
 426 380 l 258
 404 347 375 325 340 315 c 257
 294 25 l 258
 292 9 281 0 265 0 c 258
 230 0 l 258
 214 0 207 9 209 25 c 258
 255 315 l 257
 224 325 201 347 191 380 c 258
 92 671 l 258
 85 688 95 700 114 700 c 258
 151 700 l 258
 165 700 173 695 177 682 c 258
 270 410 l 258
 277 391 291 380 309 380 c 256
 327 380 343 391 355 410 c 258
 534 682 l 258
 542 695 553 700 567 700 c 258
EndSplineSet
PickledDataWithLists: "(dp0
Vcom.schriftgestaltung.Glyphs.lastChange
p1
V2016-06-09 18:35:33 +0000
p2
s."
EndChar

StartChar: Z
Encoding: 90 90 130
GlifName: Z_
Width: 575
VWidth: 0
Flags: HW
LayerCount: 2
Fore
SplineSet
466 455 m 258
 191 217 l 258
 159 190 136 141 123 77 c 257
 458 77 l 258
 474 77 481 68 479 52 c 258
 474 25 l 258
 472 9 461 0 445 0 c 258
 50 0 l 258
 34 0 27 9 29 25 c 258
 34 55 l 258
 48 142 87 216 143 265 c 258
 420 504 l 258
 449 529 472 571 483 624 c 257
 180 624 l 258
 164 624 157 633 159 649 c 258
 163 675 l 258
 166 692 176 700 192 700 c 258
 556 700 l 258
 573 700 580 692 577 675 c 258
 573 645 l 258
 561 572 523 504 466 455 c 258
EndSplineSet
PickledDataWithLists: "(dp0
Vcom.schriftgestaltung.Glyphs.lastChange
p1
V2016-06-09 18:35:33 +0000
p2
s."
EndChar

StartChar: a
Encoding: 97 97 135
GlifName: a
Width: 575
VWidth: 0
Flags: HW
AnchorPoint: "ogonek" 477 10 basechar 0
AnchorPoint: "bottom" 248 0 basechar 0
AnchorPoint: "top" 338 550 basechar 0
LayerCount: 2
Fore
SplineSet
522 471 m 258
 454 30 l 258
 452 14 443 0 427 0 c 258
 390 0 l 258
 374 0 366 9 369 25 c 258
 375 63 l 257
 322 15 263 -10 212 -10 c 256
 136 -10 77 36 77 189 c 256
 77 370 157 510 357 510 c 256
 386 510 440 508 501 500 c 256
 517 497 525 487 522 471 c 258
388 151 m 257
 433 430 l 257
 395 433 363 434 345 434 c 256
 209 434 163 326 163 204 c 256
 163 94 195 66 242 66 c 256
 283 66 336 95 388 151 c 257
EndSplineSet
PickledDataWithLists: "(dp0
Vcom.schriftgestaltung.Glyphs.lastChange
p1
V2016-06-09 18:35:33 +0000
p2
s."
EndChar

StartChar: a.hex
Encoding: 65543 -1 136
GlifName: a.hex
Width: 575
VWidth: 0
Flags: HW
LayerCount: 2
Fore
SplineSet
214 875 m 258
 214 829 l 258
 214 812 205 804 189 804 c 258
 154 804 l 258
 137 804 129 813 129 829 c 258
 129 875 l 258
 129 891 138 900 154 900 c 258
 189 900 l 258
 205 900 214 891 214 875 c 258
502 875 m 258
 502 829 l 258
 502 812 493 804 477 804 c 258
 442 804 l 258
 425 804 417 813 417 829 c 258
 417 875 l 258
 417 891 426 900 442 900 c 258
 477 900 l 258
 493 900 502 891 502 875 c 258
EndSplineSet
Refer: 135 97 N 1 0 0 1 0 0 2
PickledDataWithLists: "(dp0
Vcom.schriftgestaltung.Glyphs.lastChange
p1
V2016-06-09 18:35:34 +0000
p2
s."
EndChar

StartChar: acute
Encoding: 180 180 140
GlifName: acute
Width: 575
VWidth: 0
Flags: HW
AnchorPoint: "top" 353 500 mark 0
LayerCount: 2
Fore
SplineSet
232 544 m 257
 226 562 l 257
 223 577 229 588 245 595 c 258
 471 696 l 258
 486 703 497 699 502 684 c 258
 515 638 l 258
 520 623 513 611 496 606 c 258
 264 531 l 258
 248 526 237 530 232 544 c 257
EndSplineSet
PickledDataWithLists: "(dp0
Vcom.schriftgestaltung.Glyphs.lastChange
p1
V2015-12-22 16:32:39 +0000
p2
s."
EndChar

StartChar: ae
Encoding: 230 230 142
GlifName: ae
Width: 575
VWidth: 0
Flags: HW
LayerCount: 2
Fore
SplineSet
156 443 m 258
 153 470 l 258
 151 486 160 496 176 499 c 256
 215 506 257 510 293 510 c 256
 459 510 510 412 487 270 c 257
 484 247 l 258
 481 231 471 222 455 222 c 258
 321 222 l 257
 296 67 l 257
 320 68 351 71 384 76 c 256
 401 79 410 73 411 57 c 258
 413 31 l 258
 415 15 406 4 389 1 c 256
 333 -9 321 -9 249 -10 c 257
 84 -10 35 46 49 149 c 256
 64 243 133 290 248 298 c 257
 269 433 l 257
 246 432 215 430 183 425 c 256
 166 422 157 428 156 443 c 258
333 299 m 257
 407 299 l 257
 411 347 403 401 351 415 c 257
 333 299 l 257
211 67 m 257
 235 220 l 257
 177 214 141 190 133 140 c 256
 126 98 160 73 211 67 c 257
EndSplineSet
PickledDataWithLists: "(dp0
Vcom.schriftgestaltung.Glyphs.lastChange
p1
V2016-06-09 18:35:33 +0000
p2
s."
EndChar

StartChar: alpha
Encoding: 945 945 144
GlifName: alpha
Width: 575
VWidth: 0
Flags: HW
LayerCount: 2
Fore
SplineSet
519 500 m 258
 546 500 l 258
 564 500 571 492 564 471 c 256
 558 455 535 355 483 250 c 257
 501 145 494 45 494 29 c 256
 495 8 484 0 466 0 c 258
 439 0 l 258
 424 0 418 5 417 22 c 256
 416 32 419 71 418 121 c 257
 365 47 297 -10 211 -10 c 256
 130 -10 39 27 39 177 c 256
 39 347 119 510 293 510 c 256
 379 510 429 453 458 379 c 257
 475 429 486 468 489 478 c 256
 496 495 504 500 519 500 c 258
125 193 m 256
 125 89 183 67 223 67 c 256
 302 67 364 155 421 250 c 257
 394 345 360 433 281 433 c 256
 169 433 125 293 125 193 c 256
  PathStart: -2
EndSplineSet
PickledDataWithLists: "(dp0
Vcom.schriftgestaltung.Glyphs.lastChange
p1
V2015-12-22 12:26:38 +0000
p2
s."
EndChar

StartChar: ampersand
Encoding: 38 38 146
GlifName: ampersand
Width: 575
VWidth: 0
Flags: HW
LayerCount: 2
Fore
SplineSet
463 0 m 258
 431 0 l 258
 416 0 410 7 407 21 c 256
 404 41 398 62 389 85 c 257
 325 21 255 -7 192 -7 c 256
 94 -7 38 51 38 143 c 256
 38 241 99 325 185 380 c 257
 146 428 127 475 127 519 c 256
 127 616 217 697 319 697 c 256
 405 697 463 640 463 564 c 256
 463 506 436 453 391 415 c 256
 380 405 368 405 357 417 c 258
 341 437 l 258
 331 449 332 461 344 471 c 256
 368 491 381 521 381 547 c 256
 381 587 350 618 305 618 c 256
 255 618 213 578 213 529 c 256
 213 500 226 467 259 428 c 256
 313 364 364 298 403 237 c 257
 410 252 417 267 423 284 c 256
 430 299 441 306 456 303 c 258
 488 297 l 258
 504 294 509 283 503 267 c 256
 486 226 467 190 448 159 c 257
 470 112 484 69 490 27 c 256
 491 10 480 0 463 0 c 258
122 153 m 256
 122 98 153 69 204 69 c 256
 247 69 302 94 352 157 c 257
 323 205 283 260 232 324 c 257
 165 282 122 217 122 153 c 256
  PathStart: -2
EndSplineSet
PickledDataWithLists: "(dp0
Vcom.schriftgestaltung.Glyphs.lastChange
p1
V2015-12-22 14:24:01 +0000
p2
s."
EndChar

StartChar: asciicircum
Encoding: 94 94 150
GlifName: asciicircum
Width: 575
VWidth: 0
Flags: HW
LayerCount: 2
Fore
SplineSet
68 499 m 258
 286 682 l 258
 311 702 332 719 362 719 c 256
 392 719 408 701 425 682 c 258
 585 499 l 258
 596 487 593 474 579 463 c 258
 554 443 l 258
 540 432 528 432 518 444 c 258
 364 633 l 258
 360 639 357 642 350 642 c 256
 343 642 336 636 333 633 c 258
 119 444 l 258
 106 432 94 432 84 443 c 258
 64 463 l 258
 53 474 55 487 68 499 c 258
EndSplineSet
PickledDataWithLists: "(dp0
Vcom.schriftgestaltung.Glyphs.lastChange
p1
V2015-12-22 14:26:04 +0000
p2
s."
EndChar

StartChar: asciitilde
Encoding: 126 126 151
GlifName: asciitilde
Width: 575
VWidth: 0
Flags: HW
LayerCount: 2
Fore
SplineSet
495 308 m 258
 524 308 l 258
 539 308 546 299 543 282 c 256
 528 190 476 140 395 140 c 256
 351 140 302 169 257 223 c 256
 223 263 192 284 169 284 c 256
 138 284 118 260 110 215 c 256
 108 201 98 193 80 193 c 258
 52 193 l 258
 37 193 29 202 32 219 c 256
 47 310 100 361 182 361 c 256
 225 361 274 331 319 277 c 256
 352 238 383 216 407 216 c 256
 437 216 458 241 465 286 c 256
 467 300 478 308 495 308 c 258
EndSplineSet
PickledDataWithLists: "(dp0
Vcom.schriftgestaltung.Glyphs.lastChange
p1
V2015-12-22 16:32:54 +0000
p2
s."
EndChar

StartChar: asterisk
Encoding: 42 42 152
GlifName: asterisk
Width: 575
VWidth: 0
Flags: HW
LayerCount: 2
Fore
SplineSet
534 345 m 258
 540 311 l 258
 542 296 535 285 519 280 c 258
 370 234 l 257
 448 94 l 258
 455 81 451 68 438 59 c 257
 406 39 l 257
 391 29 379 31 371 44 c 258
 280 206 l 257
 138 44 l 257
 125 31 113 29 101 38 c 258
 76 59 l 258
 64 68 65 81 76 94 c 258
 200 234 l 257
 66 280 l 258
 52 285 47 296 55 311 c 258
 71 345 l 258
 78 360 90 366 106 361 c 258
 254 309 l 257
 281 475 l 258
 283 492 294 500 310 500 c 258
 345 500 l 258
 361 500 368 492 366 475 c 258
 339 309 l 257
 505 361 l 258
 521 366 531 360 534 345 c 258
EndSplineSet
PickledDataWithLists: "(dp0
Vcom.schriftgestaltung.Glyphs.lastChange
p1
V2015-12-22 20:53:16 +0000
p2
s."
EndChar

StartChar: at
Encoding: 64 64 153
GlifName: at
Width: 575
VWidth: 0
Flags: HW
LayerCount: 2
Fore
SplineSet
25 88 m 258
 85 464 l 258
 111 627 204 710 361 710 c 256
 495 710 563 649 563 528 c 256
 563 508 562 487 558 464 c 258
 502 112 l 258
 500 96 489 87 473 87 c 258
 413 87 l 258
 299 87 261 142 282 276 c 256
 303 410 359 465 473 465 c 257
 476 482 477 497 477 512 c 256
 477 593 434 634 349 634 c 256
 248 634 188 577 170 464 c 258
 110 88 l 258
 107 71 106 55 106 41 c 256
 106 -41 149 -82 235 -82 c 256
 268 -82 296 -76 331 -64 c 256
 347 -58 357 -63 361 -78 c 258
 368 -105 l 258
 372 -120 365 -132 350 -137 c 256
 308 -151 269 -158 223 -158 c 256
 88 -158 20 -96 20 25 c 256
 20 45 22 66 25 88 c 258
EndSplineSet
PickledDataWithLists: "(dp0
Vcom.schriftgestaltung.Glyphs.lastChange
p1
V2016-02-01 22:12:54 +0000
p2
s."
EndChar

StartChar: b
Encoding: 98 98 155
GlifName: b
Width: 575
VWidth: 0
Flags: HW
LayerCount: 2
Fore
SplineSet
48 29 m 258
 155 720 l 258
 157 736 166 750 182 750 c 258
 219 750 l 258
 235 750 243 741 240 725 c 258
 195 437 l 257
 248 485 307 510 358 510 c 256
 434 510 493 454 493 310 c 256
 493 120 413 -10 213 -10 c 256
 184 -10 130 -8 69 0 c 256
 53 3 46 13 48 29 c 258
182 349 m 257
 137 70 l 257
 175 67 207 66 225 66 c 256
 361 66 407 164 407 295 c 256
 407 396 375 434 328 434 c 256
 287 434 234 405 182 349 c 257
EndSplineSet
PickledDataWithLists: "(dp0
Vcom.schriftgestaltung.Glyphs.lastChange
p1
V2016-06-09 18:35:33 +0000
p2
sVcom.typemytype.robofont.layerData
p3
(dp4
Vbackground
p5
(dp6
Vanchors
p7
(lp8
sVcomponents
p9
(lp10
sVcontours
p11
(lp12
(dp13
Vpoints
p14
(lp15
(dp16
VsegmentType
p17
Vline
p18
sVsmooth
p19
I01
sVx
p20
I48
sVy
p21
I29
sa(dp22
g19
I00
sg20
I45
sg21
I13
sa(dp23
g19
I00
sg20
I53
sg21
I3
sa(dp24
g17
Vcurve
p25
sg19
I01
sg20
I69
sg21
I0
sa(dp26
g19
I00
sg20
I130
sg21
I-8
sa(dp27
g19
I00
sg20
I184
sg21
I-10
sa(dp28
g17
Vcurve
p29
sg19
I01
sg20
I213
sg21
I-10
sa(dp30
g19
I00
sg20
I354
sg21
I-10
sa(dp31
g19
I00
sg20
I452
sg21
I36
sa(dp32
g17
Vcurve
p33
sg19
I01
sg20
I486
sg21
I250
sa(dp34
g19
I00
sg20
I515
sg21
I431
sa(dp35
g19
I00
sg20
I448
sg21
I510
sa(dp36
g17
Vcurve
p37
sg19
I01
sg20
I358
sg21
I510
sa(dp38
g19
I00
sg20
I307
sg21
I510
sa(dp39
g19
I00
sg20
I248
sg21
I485
sa(dp40
g17
Vcurve
p41
sg19
I00
sg20
I195
sg21
I437
sa(dp42
g17
Vline
p43
sg19
I01
sg20
I201
sg21
I475
sa(dp44
g19
I00
sg20
I204
sg21
I491
sa(dp45
g19
I00
sg20
I196
sg21
I500
sa(dp46
g17
Vcurve
p47
sg19
I01
sg20
I180
sg21
I500
sa(dp48
g17
Vline
p49
sg19
I01
sg20
I143
sg21
I500
sa(dp50
g19
I00
sg20
I127
sg21
I500
sa(dp51
g19
I00
sg20
I118
sg21
I486
sa(dp52
g17
Vcurve
p53
sg19
I01
sg20
I116
sg21
I470
sasa(dp54
g14
(lp55
(dp56
g17
Vline
p57
sg19
I00
sg20
I182
sg21
I349
sa(dp58
g19
I00
sg20
I234
sg21
I405
sa(dp59
g19
I00
sg20
I287
sg21
I434
sa(dp60
g17
Vcurve
p61
sg19
I01
sg20
I328
sg21
I434
sa(dp62
g19
I00
sg20
I386
sg21
I434
sa(dp63
g19
I00
sg20
I421
sg21
I376
sa(dp64
g17
Vcurve
p65
sg19
I01
sg20
I401
sg21
I250
sa(dp66
g19
I00
sg20
I377
sg21
I98
sa(dp67
g19
I00
sg20
I324
sg21
I66
sa(dp68
g17
Vcurve
p69
sg19
I01
sg20
I225
sg21
I66
sa(dp70
g19
I00
sg20
I207
sg21
I66
sa(dp71
g19
I00
sg20
I175
sg21
I67
sa(dp72
g17
Vcurve
p73
sg19
I00
sg20
I137
sg21
I70
sasasVlib
p74
(dp75
sVname
p76
Vb
p77
sVunicodes
p78
(lp79
sVwidth
p80
I575
sss."
EndChar

StartChar: b.hex
Encoding: 65545 -1 156
GlifName: b.hex
Width: 575
VWidth: 0
Flags: HW
LayerCount: 2
Fore
SplineSet
214 875 m 258
 214 829 l 258
 214 812 205 804 189 804 c 258
 154 804 l 258
 137 804 129 813 129 829 c 258
 129 875 l 258
 129 891 138 900 154 900 c 258
 189 900 l 258
 205 900 214 891 214 875 c 258
502 875 m 258
 502 829 l 258
 502 812 493 804 477 804 c 258
 442 804 l 258
 425 804 417 813 417 829 c 258
 417 875 l 258
 417 891 426 900 442 900 c 258
 477 900 l 258
 493 900 502 891 502 875 c 258
646 875 m 258
 646 829 l 258
 646 812 637 804 621 804 c 258
 586 804 l 258
 569 804 561 813 561 829 c 258
 561 875 l 258
 561 891 570 900 586 900 c 258
 621 900 l 258
 637 900 646 891 646 875 c 258
EndSplineSet
Refer: 155 98 N 1 0 0 1 0 0 2
PickledDataWithLists: "(dp0
Vcom.schriftgestaltung.Glyphs.lastChange
p1
V2016-06-09 18:35:34 +0000
p2
s."
EndChar

StartChar: backslash
Encoding: 92 92 157
GlifName: backslash
Width: 575
VWidth: 0
Flags: HW
LayerCount: 2
Fore
SplineSet
188 682 m 258
 471 -144 l 258
 475 -158 469 -170 454 -177 c 258
 420 -193 l 258
 405 -200 393 -196 389 -182 c 258
 106 644 l 258
 102 658 108 670 123 677 c 258
 157 693 l 258
 172 700 184 696 188 682 c 258
EndSplineSet
PickledDataWithLists: "(dp0
Vcom.schriftgestaltung.Glyphs.lastChange
p1
V2015-12-22 16:32:37 +0000
p2
s."
EndChar

StartChar: bar
Encoding: 124 124 158
GlifName: bar
Width: 575
VWidth: 0
Flags: HW
LayerCount: 2
Fore
SplineSet
349 750 m 258
 384 750 l 258
 400 750 408 742 405 725 c 258
 266 -153 l 258
 264 -169 254 -178 237 -178 c 258
 202 -178 l 258
 186 -178 178 -170 181 -153 c 258
 320 725 l 258
 323 741 333 750 349 750 c 258
EndSplineSet
PickledDataWithLists: "(dp0
Vcom.schriftgestaltung.Glyphs.lastChange
p1
V2015-12-22 16:32:56 +0000
p2
s."
EndChar

StartChar: beta
Encoding: 946 946 159
GlifName: beta
Width: 575
VWidth: 0
Flags: HW
LayerCount: 2
Fore
SplineSet
141 494 m 258
 162 631 241 700 365 700 c 256
 468 700 522 656 522 575 c 256
 522 513 493 472 456 427 c 256
 440 407 421 385 421 365 c 256
 421 345 436 331 453 314 c 256
 477 291 506 264 506 216 c 256
 506 51 305 -61 150 16 c 257
 120 -175 l 258
 117 -191 108 -200 91 -200 c 258
 56 -200 l 258
 40 -200 32 -191 35 -175 c 258
 141 494 l 258
  PathStart: -2
440 552 m 256
 440 599 410 624 353 624 c 256
 284 624 239 581 226 494 c 258
 161 86 l 257
 292 23 425 85 425 209 c 256
 425 242 402 260 380 279 c 257
 357 297 334 315 334 349 c 256
 334 394 369 434 397 468 c 256
 422 499 440 517 440 552 c 256
  PathStart: -2
EndSplineSet
PickledDataWithLists: "(dp0
Vcom.schriftgestaltung.Glyphs.lastChange
p1
V2015-12-22 12:27:37 +0000
p2
s."
EndChar

StartChar: block
Encoding: 9608 9608 160
GlifName: block
Width: 575
VWidth: 0
Flags: HW
LayerCount: 2
Fore
SplineSet
0 -250 m 257
 0 900 l 257
 575 900 l 257
 575 -250 l 257
 0 -250 l 257
EndSplineSet
PickledDataWithLists: "(dp0
Vcom.schriftgestaltung.Glyphs.lastChange
p1
V2016-06-10 08:26:49 +0000
p2
s."
EndChar

StartChar: braceleft
Encoding: 123 123 161
GlifName: braceleft
Width: 575
VWidth: 0
Flags: HW
LayerCount: 2
Fore
SplineSet
383 585 m 258
 355 409 l 258
 347 355 332 314 270 286 c 257
 324 259 324 214 316 164 c 258
 288 -13 l 258
 278 -76 295 -102 354 -102 c 258
 435 -102 l 258
 451 -102 459 -111 456 -127 c 258
 452 -153 l 258
 449 -170 439 -178 423 -178 c 258
 342 -178 l 258
 224 -178 185 -131 203 -13 c 258
 231 164 l 258
 241 223 224 248 165 248 c 258
 85 248 l 258
 69 248 61 257 64 273 c 258
 68 299 l 258
 70 316 81 324 97 324 c 258
 177 324 l 258
 236 324 261 350 270 409 c 258
 298 585 l 258
 317 704 373 750 489 750 c 258
 570 750 l 258
 586 750 594 741 591 725 c 258
 587 699 l 258
 584 682 574 674 558 674 c 258
 477 674 l 258
 417 674 393 646 383 585 c 258
EndSplineSet
PickledDataWithLists: "(dp0
Vcom.schriftgestaltung.Glyphs.lastChange
p1
V2016-04-11 09:42:36 +0000
p2
s."
EndChar

StartChar: braceright
Encoding: 125 125 162
GlifName: braceright
Width: 575
VWidth: 0
Flags: HW
LayerCount: 2
Fore
SplineSet
317 286 m 257
 263 314 262 355 270 409 c 258
 298 585 l 258
 308 646 292 674 232 674 c 258
 151 674 l 258
 135 674 127 682 130 699 c 258
 134 725 l 258
 137 741 147 750 163 750 c 258
 244 750 l 258
 360 750 402 704 383 585 c 258
 355 409 l 258
 346 350 363 324 422 324 c 258
 502 324 l 258
 518 324 525 316 523 299 c 258
 519 273 l 258
 516 257 506 248 490 248 c 258
 410 248 l 258
 351 248 326 223 316 164 c 258
 288 -13 l 258
 270 -131 215 -178 97 -178 c 258
 16 -178 l 258
 0 -178 -8 -170 -5 -153 c 258
 -1 -127 l 258
 2 -111 12 -102 28 -102 c 258
 109 -102 l 258
 168 -102 193 -76 203 -13 c 258
 231 164 l 258
 239 214 253 259 317 286 c 257
  PathStart: -2
EndSplineSet
PickledDataWithLists: "(dp0
Vcom.schriftgestaltung.Glyphs.lastChange
p1
V2016-06-03 09:15:51 +0000
p2
s."
EndChar

StartChar: bracketleft
Encoding: 91 91 163
GlifName: bracketleft
Width: 575
VWidth: 0
Flags: HW
LayerCount: 2
Fore
SplineSet
179 -102 m 257
 394 -102 l 258
 410 -102 418 -111 415 -127 c 258
 411 -153 l 258
 408 -170 399 -178 382 -178 c 258
 107 -178 l 258
 91 -178 83 -170 86 -153 c 258
 225 725 l 258
 228 741 238 750 254 750 c 258
 529 750 l 258
 545 750 553 742 550 725 c 258
 546 699 l 258
 543 682 534 674 517 674 c 258
 302 674 l 257
 179 -102 l 257
EndSplineSet
PickledDataWithLists: "(dp0
Vcom.schriftgestaltung.Glyphs.lastChange
p1
V2015-12-22 13:51:23 +0000
p2
s."
EndChar

StartChar: bracketright
Encoding: 93 93 164
GlifName: bracketright
Width: 575
VWidth: 0
Flags: HW
LayerCount: 2
Fore
SplineSet
204 750 m 258
 479 750 l 258
 495 750 503 742 500 725 c 258
 361 -153 l 258
 359 -169 349 -178 332 -178 c 258
 57 -178 l 258
 41 -178 33 -170 36 -153 c 258
 40 -127 l 258
 43 -110 53 -102 69 -102 c 258
 284 -102 l 257
 407 674 l 257
 192 674 l 258
 176 674 169 683 171 699 c 258
 175 725 l 258
 178 742 188 750 204 750 c 258
EndSplineSet
PickledDataWithLists: "(dp0
Vcom.schriftgestaltung.Glyphs.lastChange
p1
V2015-12-22 13:51:43 +0000
p2
s."
EndChar

StartChar: breve
Encoding: 728 728 165
GlifName: breve
Width: 575
VWidth: 0
Flags: HW
AnchorPoint: "top" 328 500 mark 0
LayerCount: 2
Fore
SplineSet
524 696 m 258
 551 691 l 258
 566 688 573 678 565 662 c 256
 531 583 460 539 364 538 c 256
 268 539 210 583 200 662 c 256
 199 678 208 688 225 691 c 258
 254 696 l 258
 269 699 277 692 279 676 c 256
 287 626 319 598 373 598 c 256
 426 598 468 626 491 676 c 256
 498 692 508 699 524 696 c 258
EndSplineSet
PickledDataWithLists: "(dp0
Vcom.schriftgestaltung.Glyphs.lastChange
p1
V2015-12-22 16:32:39 +0000
p2
s."
EndChar

StartChar: brokenbar
Encoding: 166 166 166
GlifName: brokenbar
Width: 575
VWidth: 0
Flags: HW
LayerCount: 2
Fore
SplineSet
237 -178 m 258
 202 -178 l 258
 186 -178 178 -170 181 -153 c 258
 232 168 l 258
 235 185 245 193 261 193 c 258
 296 193 l 258
 312 193 320 185 317 168 c 258
 266 -153 l 258
 264 -169 254 -178 237 -178 c 258
325 379 m 258
 290 379 l 258
 274 379 267 388 269 404 c 258
 320 725 l 258
 323 741 333 750 349 750 c 258
 384 750 l 258
 401 750 408 742 405 725 c 258
 354 404 l 258
 352 388 341 379 325 379 c 258
EndSplineSet
PickledDataWithLists: "(dp0
Vcom.schriftgestaltung.Glyphs.lastChange
p1
V2015-12-22 14:22:08 +0000
p2
s."
EndChar

StartChar: bullet
Encoding: 8226 8226 167
GlifName: bullet
Width: 575
VWidth: 0
Flags: HW
LayerCount: 2
Fore
SplineSet
480 325 m 256
 480 227 404 150 308 150 c 256
 211 150 135 227 135 325 c 256
 135 423 211 500 308 500 c 256
 404 500 480 423 480 325 c 256
  PathStart: -2
EndSplineSet
PickledDataWithLists: "(dp0
Vcom.schriftgestaltung.Glyphs.lastChange
p1
V2015-12-22 16:32:38 +0000
p2
s."
EndChar

StartChar: c
Encoding: 99 99 168
GlifName: c
Width: 575
VWidth: 0
Flags: HW
AnchorPoint: "top" 366 550 basechar 0
AnchorPoint: "bottom" 248 0 basechar 0
LayerCount: 2
Fore
SplineSet
522 447 m 258
 508 423 l 258
 500 408 488 403 474 409 c 256
 433 425 398 432 357 432 c 256
 226 432 166 325 166 211 c 256
 166 102 222 68 299 68 c 256
 340 68 376 75 424 91 c 256
 440 97 450 92 454 77 c 258
 460 53 l 258
 463 38 458 26 442 20 c 256
 391 0 338 -10 287 -10 c 256
 176 -10 80 45 80 202 c 256
 80 370 187 510 369 510 c 256
 420 510 471 500 514 480 c 256
 528 474 531 462 522 447 c 258
EndSplineSet
PickledDataWithLists: "(dp0
Vcom.schriftgestaltung.Glyphs.lastChange
p1
V2016-06-09 18:35:33 +0000
p2
s."
EndChar

StartChar: c.hex
Encoding: 65548 -1 169
GlifName: c.hex
Width: 575
VWidth: 0
Flags: HW
LayerCount: 2
Fore
SplineSet
214 875 m 258
 214 829 l 258
 214 812 205 804 189 804 c 258
 154 804 l 258
 137 804 129 813 129 829 c 258
 129 875 l 258
 129 891 138 900 154 900 c 258
 189 900 l 258
 205 900 214 891 214 875 c 258
358 875 m 258
 358 829 l 258
 358 812 349 804 333 804 c 258
 298 804 l 258
 281 804 273 813 273 829 c 258
 273 875 l 258
 273 891 282 900 298 900 c 258
 333 900 l 258
 349 900 358 891 358 875 c 258
EndSplineSet
Refer: 168 99 N 1 0 0 1 0 0 2
PickledDataWithLists: "(dp0
Vcom.schriftgestaltung.Glyphs.lastChange
p1
V2016-06-09 18:35:34 +0000
p2
s."
EndChar

StartChar: caron
Encoding: 711 711 171
GlifName: caron
Width: 575
VWidth: 0
Flags: HW
AnchorPoint: "top" 328 500 mark 0
LayerCount: 2
Fore
SplineSet
209 665 m 258
 229 688 l 258
 241 701 254 703 265 694 c 258
 356 623 l 258
 363 617 366 614 376 614 c 256
 386 614 389 618 398 623 c 258
 511 694 l 258
 526 703 537 701 544 688 c 258
 558 665 l 258
 566 652 562 639 546 630 c 258
 432 565 l 258
 410 552 387 542 364 542 c 256
 341 542 323 551 304 564 c 258
 210 630 l 258
 198 639 197 652 209 665 c 258
EndSplineSet
PickledDataWithLists: "(dp0
Vcom.schriftgestaltung.Glyphs.lastChange
p1
V2016-05-18 20:16:32 +0000
p2
s."
EndChar

StartChar: cedilla
Encoding: 184 184 175
GlifName: cedilla
Width: 575
VWidth: 0
Flags: HW
AnchorPoint: "bottom" 202 0 mark 0
LayerCount: 2
Fore
SplineSet
240 -68 m 257
 263 -63 284 -61 302 -61 c 256
 371 -61 403 -91 403 -129 c 256
 403 -199 294 -246 196 -246 c 256
 171 -246 147 -242 120 -235 c 257
 105 -230 101 -218 109 -203 c 258
 115 -192 l 257
 122 -177 134 -172 149 -175 c 256
 169 -179 191 -181 207 -181 c 256
 255 -181 304 -165 304 -140 c 256
 304 -128 291 -119 263 -119 c 256
 255 -119 245 -120 235 -121 c 257
 222 -123 212 -121 204 -111 c 258
 180 -82 l 258
 172 -72 172 -61 180 -48 c 258
 207 -5 l 258
 215 8 225 14 239 13 c 257
 257 13 l 257
 276 12 282 1 271 -17 c 258
 240 -68 l 257
  PathStart: -2
EndSplineSet
PickledDataWithLists: "(dp0
Vcom.schriftgestaltung.Glyphs.lastChange
p1
V2015-12-22 16:32:40 +0000
p2
s."
EndChar

StartChar: cent
Encoding: 162 162 176
GlifName: cent
Width: 575
VWidth: 0
Flags: HW
LayerCount: 2
Fore
SplineSet
225 44 m 257
 308 31 l 257
 279 -153 l 258
 276 -170 266 -178 250 -178 c 258
 215 -178 l 258
 199 -178 191 -170 194 -153 c 258
 225 44 l 257
379 480 m 257
 292 467 l 257
 322 653 l 258
 325 670 335 678 351 678 c 258
 386 678 l 258
 402 678 410 670 407 653 c 258
 379 480 l 257
EndSplineSet
Refer: 168 99 N 1 0 0 1 0 0 2
PickledDataWithLists: "(dp0
Vcom.schriftgestaltung.Glyphs.lastChange
p1
V2015-12-22 14:01:47 +0000
p2
s."
EndChar

StartChar: chi
Encoding: 967 967 177
GlifName: chi
Width: 575
VWidth: 0
Flags: HW
LayerCount: 2
Fore
SplineSet
358 110 m 258
 385 -8 414 -42 448 -42 c 256
 453 -42 458 -42 464 -41 c 256
 480 -39 489 -47 488 -63 c 258
 488 -87 l 258
 487 -104 479 -113 462 -115 c 256
 453 -115 445 -116 436 -116 c 256
 373 -116 314 -87 275 83 c 258
 268 112 l 257
 78 -121 l 258
 67 -134 54 -137 42 -128 c 258
 25 -116 l 258
 13 -107 13 -94 24 -81 c 258
 248 198 l 257
 230 276 l 258
 203 394 174 428 140 428 c 256
 135 428 130 428 124 427 c 256
 107 426 99 434 100 449 c 258
 100 473 l 258
 101 490 109 499 126 501 c 256
 135 501 143 502 152 502 c 256
 215 502 274 473 313 303 c 257
 318 285 l 257
 477 484 l 258
 486 495 497 500 510 500 c 258
 549 500 l 258
 569 500 574 487 560 470 c 258
 338 197 l 257
 358 110 l 258
  PathStart: -2
EndSplineSet
PickledDataWithLists: "(dp0
Vcom.schriftgestaltung.Glyphs.lastChange
p1
V2015-12-22 12:54:05 +0000
p2
s."
EndChar

StartChar: circumflex
Encoding: 710 710 178
GlifName: circumflex
Width: 575
VWidth: 0
Flags: HW
AnchorPoint: "top" 328 500 mark 0
LayerCount: 2
Fore
SplineSet
207 552 m 257
 195 576 l 258
 187 590 192 602 207 611 c 258
 322 677 l 258
 345 691 366 700 389 700 c 256
 412 700 432 689 450 677 c 258
 543 611 l 258
 556 602 556 590 544 576 c 258
 523 553 l 258
 512 540 500 538 488 547 c 258
 397 619 l 258
 390 624 388 628 378 628 c 256
 368 628 364 624 355 619 c 258
 242 547 l 258
 228 538 216 540 207 552 c 257
EndSplineSet
PickledDataWithLists: "(dp0
Vcom.schriftgestaltung.Glyphs.lastChange
p1
V2015-12-22 16:32:40 +0000
p2
s."
EndChar

StartChar: colon
Encoding: 58 58 179
GlifName: colon
Width: 575
VWidth: 0
Flags: HW
LayerCount: 2
Fore
SplineSet
278 500 m 258
 378 500 l 258
 394 500 401 492 399 475 c 258
 384 385 l 258
 382 369 371 360 355 360 c 258
 255 360 l 258
 239 360 232 369 234 385 c 258
 249 475 l 258
 251 492 261 500 278 500 c 258
221 140 m 258
 321 140 l 258
 337 140 344 132 342 115 c 258
 327 25 l 258
 325 9 314 0 298 0 c 258
 198 0 l 258
 182 0 175 9 177 25 c 258
 192 115 l 258
 194 132 204 140 221 140 c 258
EndSplineSet
PickledDataWithLists: "(dp0
Vcom.schriftgestaltung.Glyphs.lastChange
p1
V2015-12-22 20:53:35 +0000
p2
s."
EndChar

StartChar: comma
Encoding: 44 44 180
GlifName: comma
Width: 575
VWidth: 0
Flags: HW
LayerCount: 2
Fore
SplineSet
221 140 m 258
 321 140 l 258
 337 140 344 132 342 115 c 258
 323 -2 l 258
 295 -181 218 -247 39 -247 c 256
 23 -247 16 -239 18 -223 c 258
 22 -196 l 258
 25 -180 34 -171 50 -171 c 256
 169 -171 220 -125 238 0 c 257
 198 0 l 258
 182 0 175 9 177 25 c 258
 192 115 l 258
 194 132 204 140 221 140 c 258
EndSplineSet
PickledDataWithLists: "(dp0
Vcom.schriftgestaltung.Glyphs.lastChange
p1
V2015-12-22 20:53:49 +0000
p2
s."
EndChar

StartChar: copyright
Encoding: 169 169 181
GlifName: copyright
Width: 575
VWidth: 0
Flags: HW
LayerCount: 2
Fore
SplineSet
411 468 m 258
 399 459 l 258
 386 448 377 450 364 458 c 256
 353 465 339 469 324 469 c 258
 323 469 l 258
 300 469 274 458 255 440 c 256
 237 423 225 399 221 375 c 256
 217 352 222 328 235 310 c 256
 248 293 270 282 293 281 c 258
 294 281 l 258
 309 281 325 286 338 293 c 256
 353 301 363 302 372 291 c 258
 381 282 l 258
 391 271 390 257 375 247 c 256
 348 229 315 219 285 219 c 258
 282 219 l 258
 242 220 206 237 184 267 c 256
 161 296 151 335 158 375 c 256
 164 415 186 455 218 484 c 256
 250 513 292 531 332 531 c 257
 335 532 l 257
 365 532 394 521 415 503 c 256
 427 493 424 479 411 468 c 258
92 190 m 256
 52 238 35 307 46 375 c 256
 57 444 95 512 151 561 c 256
 208 609 280 637 349 637 c 256
 417 637 482 609 522 561 c 256
 563 512 581 444 570 375 c 256
 559 307 520 238 463 190 c 256
 408 141 334 113 266 113 c 256
 197 113 134 141 92 190 c 256
  PathStart: -2
426 234 m 256
 469 271 499 323 507 375 c 256
 515 427 502 479 471 516 c 256
 440 553 391 575 339 575 c 256
 287 575 232 553 189 516 c 256
 146 479 116 427 108 375 c 256
 100 323 113 271 144 234 c 256
 176 197 224 176 276 176 c 256
 328 176 384 197 426 234 c 256
  PathStart: -2
EndSplineSet
PickledDataWithLists: "(dp0
Vcom.schriftgestaltung.Glyphs.lastChange
p1
V2015-12-22 14:24:21 +0000
p2
s."
EndChar

StartChar: currency
Encoding: 164 164 182
GlifName: currency
Width: 575
VWidth: 0
Flags: HW
LayerCount: 2
Fore
SplineSet
566 442 m 258
 471 360 l 257
 487 327 493 289 487 250 c 256
 481 212 463 173 437 141 c 257
 506 59 l 258
 516 47 514 35 499 24 c 258
 473 3 l 258
 459 -8 447 -8 438 4 c 258
 371 84 l 257
 335 63 294 51 256 51 c 256
 217 51 181 63 152 84 c 257
 60 4 l 258
 46 -8 34 -8 24 3 c 258
 4 24 l 258
 -6 35 -4 47 9 59 c 258
 104 141 l 257
 88 173 83 212 89 250 c 256
 95 289 112 327 138 360 c 257
 69 442 l 258
 60 453 62 466 76 477 c 258
 102 497 l 258
 116 508 128 508 138 497 c 258
 204 417 l 257
 241 438 281 449 320 449 c 256
 358 449 395 438 423 417 c 257
 516 497 l 258
 529 508 541 508 551 498 c 258
 571 477 l 258
 582 466 580 453 566 442 c 258
165 250 m 256
 154 182 201 128 269 128 c 256
 337 128 399 182 410 250 c 256
 421 318 375 373 307 373 c 256
 239 373 176 318 165 250 c 256
  PathStart: -2
EndSplineSet
PickledDataWithLists: "(dp0
Vcom.schriftgestaltung.Glyphs.lastChange
p1
V2015-12-22 14:02:18 +0000
p2
s."
EndChar

StartChar: d
Encoding: 100 100 183
GlifName: d
Width: 575
VWidth: 0
Flags: HW
AnchorPoint: "bottom" 248 0 basechar 0
AnchorPoint: "top" 439 520 basechar 0
AnchorPoint: "topright" 595 500 basechar 0
AnchorPoint: "center" 288 250 basechar 0
LayerCount: 2
Fore
SplineSet
508 750 m 258
 543 750 l 258
 559 750 567 741 564 725 c 258
 454 30 l 258
 452 14 443 0 427 0 c 258
 390 0 l 258
 374 0 366 9 369 25 c 258
 375 63 l 257
 322 15 263 -10 212 -10 c 256
 136 -10 77 46 77 190 c 256
 77 380 157 510 357 510 c 256
 377 510 409 509 445 506 c 257
 479 725 l 258
 482 741 492 750 508 750 c 258
242 66 m 256
 283 66 336 95 388 151 c 257
 433 430 l 257
 395 433 363 434 345 434 c 256
 209 434 163 336 163 205 c 256
 163 104 195 66 242 66 c 256
  PathStart: -2
EndSplineSet
PickledDataWithLists: "(dp0
Vcom.schriftgestaltung.Glyphs.lastChange
p1
V2016-06-09 18:35:33 +0000
p2
sVcom.typemytype.robofont.layerData
p3
(dp4
V(null) Nov 29 14, 21:56
p5
(dp6
Vanchors
p7
(lp8
sVcomponents
p9
(lp10
sVcontours
p11
(lp12
(dp13
Vpoints
p14
(lp15
(dp16
VsegmentType
p17
Vline
p18
sVsmooth
p19
I01
sVx
p20
I493
sVy
p21
I750
sa(dp22
g19
I00
sg20
I477
sg21
I750
sa(dp23
g19
I00
sg20
I467
sg21
I741
sa(dp24
g17
Vcurve
p25
sg19
I01
sg20
I464
sg21
I725
sa(dp26
g17
Vline
p27
sg19
I00
sg20
I430
sg21
I506
sa(dp28
g19
I00
sg20
I394
sg21
I509
sa(dp29
g19
I00
sg20
I362
sg21
I510
sa(dp30
g17
Vcurve
p31
sg19
I01
sg20
I342
sg21
I510
sa(dp32
g19
I00
sg20
I201
sg21
I510
sa(dp33
g19
I00
sg20
I103
sg21
I464
sa(dp34
g17
Vcurve
p35
sg19
I01
sg20
I69
sg21
I250
sa(dp36
g19
I00
sg20
I40
sg21
I69
sa(dp37
g19
I00
sg20
I107
sg21
I-10
sa(dp38
g17
Vcurve
p39
sg19
I01
sg20
I197
sg21
I-10
sa(dp40
g19
I00
sg20
I248
sg21
I-10
sa(dp41
g19
I00
sg20
I307
sg21
I15
sa(dp42
g17
Vcurve
p43
sg19
I00
sg20
I360
sg21
I63
sa(dp44
g17
Vline
p45
sg19
I01
sg20
I354
sg21
I25
sa(dp46
g19
I00
sg20
I351
sg21
I9
sa(dp47
g19
I00
sg20
I359
sg21
I0
sa(dp48
g17
Vcurve
p49
sg19
I01
sg20
I375
sg21
I0
sa(dp50
g17
Vline
p51
sg19
I01
sg20
I412
sg21
I0
sa(dp52
g19
I00
sg20
I428
sg21
I0
sa(dp53
g19
I00
sg20
I437
sg21
I14
sa(dp54
g17
Vcurve
p55
sg19
I01
sg20
I439
sg21
I30
sa(dp56
g17
Vline
p57
sg19
I01
sg20
I549
sg21
I725
sa(dp58
g19
I00
sg20
I552
sg21
I741
sa(dp59
g19
I00
sg20
I544
sg21
I750
sa(dp60
g17
Vcurve
p61
sg19
I01
sg20
I528
sg21
I750
sasa(dp62
g14
(lp63
(dp64
g17
Vline
p65
sg19
I00
sg20
I373
sg21
I151
sa(dp66
g19
I00
sg20
I321
sg21
I95
sa(dp67
g19
I00
sg20
I268
sg21
I66
sa(dp68
g17
Vcurve
p69
sg19
I01
sg20
I227
sg21
I66
sa(dp70
g19
I00
sg20
I169
sg21
I66
sa(dp71
g19
I00
sg20
I134
sg21
I124
sa(dp72
g17
Vcurve
p73
sg19
I01
sg20
I154
sg21
I250
sa(dp74
g19
I00
sg20
I178
sg21
I402
sa(dp75
g19
I00
sg20
I231
sg21
I434
sa(dp76
g17
Vcurve
p77
sg19
I01
sg20
I330
sg21
I434
sa(dp78
g19
I00
sg20
I348
sg21
I434
sa(dp79
g19
I00
sg20
I380
sg21
I433
sa(dp80
g17
Vcurve
p81
sg19
I00
sg20
I418
sg21
I430
sasasVlib
p82
(dp83
sVname
p84
Vd
p85
sVunicodes
p86
(lp87
sVwidth
p88
I575
ssV(null) Nov 29 14, 21:57
p89
(dp90
g7
(lp91
sg9
(lp92
sg11
(lp93
(dp94
g14
(lp95
(dp96
g17
Vline
p97
sg19
I01
sg20
I430
sg21
I750
sa(dp98
g19
I00
sg20
I414
sg21
I750
sa(dp99
g19
I00
sg20
I405
sg21
I741
sa(dp100
g17
Vcurve
p101
sg19
I01
sg20
I405
sg21
I725
sa(dp102
g17
Vline
p103
sg19
I00
sg20
I405
sg21
I506
sa(dp104
g19
I00
sg20
I369
sg21
I509
sa(dp105
g19
I00
sg20
I337
sg21
I510
sa(dp106
g17
Vcurve
p107
sg19
I01
sg20
I317
sg21
I510
sa(dp108
g19
I00
sg20
I176
sg21
I510
sa(dp109
g19
I00
sg20
I85
sg21
I464
sa(dp110
g17
Vcurve
p111
sg19
I01
sg20
I85
sg21
I250
sa(dp112
g19
I00
sg20
I85
sg21
I69
sa(dp113
g19
I00
sg20
I164
sg21
I-10
sa(dp114
g17
Vcurve
p115
sg19
I01
sg20
I254
sg21
I-10
sa(dp116
g19
I00
sg20
I305
sg21
I-10
sa(dp117
g19
I00
sg20
I360
sg21
I15
sa(dp118
g17
Vcurve
p119
sg19
I00
sg20
I405
sg21
I63
sa(dp120
g17
Vline
p121
sg19
I00
sg20
I405
sg21
I0
sa(dp122
g17
Vline
p123
sg19
I01
sg20
I467
sg21
I0
sa(dp124
g19
I00
sg20
I483
sg21
I0
sa(dp125
g19
I00
sg20
I490
sg21
I14
sa(dp126
g17
Vcurve
p127
sg19
I01
sg20
I490
sg21
I30
sa(dp128
g17
Vline
p129
sg19
I01
sg20
I490
sg21
I725
sa(dp130
g19
I00
sg20
I490
sg21
I741
sa(dp131
g19
I00
sg20
I481
sg21
I750
sa(dp132
g17
Vcurve
p133
sg19
I01
sg20
I465
sg21
I750
sasa(dp134
g14
(lp135
(dp136
g17
Vline
p137
sg19
I00
sg20
I405
sg21
I151
sa(dp138
g19
I00
sg20
I361
sg21
I95
sa(dp139
g19
I00
sg20
I313
sg21
I66
sa(dp140
g17
Vcurve
p141
sg19
I01
sg20
I272
sg21
I66
sa(dp142
g19
I00
sg20
I214
sg21
I66
sa(dp143
g19
I00
sg20
I170
sg21
I124
sa(dp144
g17
Vcurve
p145
sg19
I01
sg20
I170
sg21
I250
sa(dp146
g19
I00
sg20
I170
sg21
I402
sa(dp147
g19
I00
sg20
I218
sg21
I434
sa(dp148
g17
Vcurve
p149
sg19
I01
sg20
I317
sg21
I434
sa(dp150
g19
I00
sg20
I335
sg21
I434
sa(dp151
g19
I00
sg20
I367
sg21
I433
sa(dp152
g17
Vcurve
p153
sg19
I00
sg20
I405
sg21
I430
sasasg82
(dp154
sg84
g85
sg86
(lp155
sg88
I600
ssVRegular Italic Dec 4 14, 10:00
p156
(dp157
g7
(lp158
sg9
(lp159
sg11
(lp160
(dp161
g14
(lp162
(dp163
g17
Vline
p164
sg19
I01
sg20
I508
sg21
I750
sa(dp165
g19
I00
sg20
I492
sg21
I750
sa(dp166
g19
I00
sg20
I482
sg21
I741
sa(dp167
g17
Vcurve
p168
sg19
I01
sg20
I479
sg21
I725
sa(dp169
g17
Vline
p170
sg19
I00
sg20
I445
sg21
I506
sa(dp171
g19
I00
sg20
I409
sg21
I509
sa(dp172
g19
I00
sg20
I377
sg21
I510
sa(dp173
g17
Vcurve
p174
sg19
I01
sg20
I357
sg21
I510
sa(dp175
g19
I00
sg20
I216
sg21
I510
sa(dp176
g19
I00
sg20
I118
sg21
I464
sa(dp177
g17
Vcurve
p178
sg19
I01
sg20
I84
sg21
I250
sa(dp179
g19
I00
sg20
I55
sg21
I69
sa(dp180
g19
I00
sg20
I122
sg21
I-10
sa(dp181
g17
Vcurve
p182
sg19
I01
sg20
I212
sg21
I-10
sa(dp183
g19
I00
sg20
I271
sg21
I-10
sa(dp184
g19
I00
sg20
I342
sg21
I24
sa(dp185
g17
Vcurve
p186
sg19
I00
sg20
I401
sg21
I89
sa(dp187
g17
Vline
p188
sg19
I00
sg20
I382
sg21
I107
sa(dp189
g17
Vline
p190
sg19
I01
sg20
I369
sg21
I25
sa(dp191
g19
I00
sg20
I366
sg21
I9
sa(dp192
g19
I00
sg20
I374
sg21
I0
sa(dp193
g17
Vcurve
p194
sg19
I01
sg20
I390
sg21
I0
sa(dp195
g17
Vline
p196
sg19
I01
sg20
I427
sg21
I0
sa(dp197
g19
I00
sg20
I443
sg21
I0
sa(dp198
g19
I00
sg20
I452
sg21
I14
sa(dp199
g17
Vcurve
p200
sg19
I01
sg20
I454
sg21
I30
sa(dp201
g17
Vline
p202
sg19
I01
sg20
I564
sg21
I725
sa(dp203
g19
I00
sg20
I567
sg21
I741
sa(dp204
g19
I00
sg20
I559
sg21
I750
sa(dp205
g17
Vcurve
p206
sg19
I01
sg20
I543
sg21
I750
sasa(dp207
g14
(lp208
(dp209
g17
Vline
p210
sg19
I00
sg20
I388
sg21
I151
sa(dp211
g19
I00
sg20
I336
sg21
I95
sa(dp212
g19
I00
sg20
I283
sg21
I66
sa(dp213
g17
Vcurve
p214
sg19
I01
sg20
I242
sg21
I66
sa(dp215
g19
I00
sg20
I184
sg21
I66
sa(dp216
g19
I00
sg20
I149
sg21
I124
sa(dp217
g17
Vcurve
p218
sg19
I01
sg20
I169
sg21
I250
sa(dp219
g19
I00
sg20
I193
sg21
I402
sa(dp220
g19
I00
sg20
I246
sg21
I434
sa(dp221
g17
Vcurve
p222
sg19
I01
sg20
I345
sg21
I434
sa(dp223
g19
I00
sg20
I363
sg21
I434
sa(dp224
g19
I00
sg20
I395
sg21
I433
sa(dp225
g17
Vcurve
p226
sg19
I00
sg20
I433
sg21
I430
sasasg82
(dp227
sg84
g85
sg86
(lp228
sg88
I575
sss."
EndChar

StartChar: d.hex
Encoding: 65549 -1 184
GlifName: d.hex
Width: 575
VWidth: 0
Flags: HW
LayerCount: 2
Fore
SplineSet
214 875 m 258
 214 829 l 258
 214 812 205 804 189 804 c 258
 154 804 l 258
 137 804 129 813 129 829 c 258
 129 875 l 258
 129 891 138 900 154 900 c 258
 189 900 l 258
 205 900 214 891 214 875 c 258
358 875 m 258
 358 829 l 258
 358 812 349 804 333 804 c 258
 298 804 l 258
 281 804 273 813 273 829 c 258
 273 875 l 258
 273 891 282 900 298 900 c 258
 333 900 l 258
 349 900 358 891 358 875 c 258
646 875 m 258
 646 829 l 258
 646 812 637 804 621 804 c 258
 586 804 l 258
 569 804 561 813 561 829 c 258
 561 875 l 258
 561 891 570 900 586 900 c 258
 621 900 l 258
 637 900 646 891 646 875 c 258
EndSplineSet
Refer: 183 100 N 1 0 0 1 0 0 2
PickledDataWithLists: "(dp0
Vcom.schriftgestaltung.Glyphs.lastChange
p1
V2016-06-09 18:35:34 +0000
p2
s."
EndChar

StartChar: dagger
Encoding: 8224 8224 185
GlifName: dagger
Width: 575
VWidth: 0
Flags: HW
LayerCount: 2
Fore
SplineSet
574 564 m 258
 569 537 l 258
 567 521 557 512 540 512 c 258
 371 512 l 257
 271 -124 l 258
 268 -140 259 -149 242 -149 c 258
 207 -149 l 258
 191 -149 183 -140 186 -124 c 258
 286 512 l 257
 117 512 l 258
 101 512 94 521 96 537 c 258
 101 563 l 258
 103 580 114 589 130 589 c 258
 299 589 l 257
 328 774 l 258
 331 790 341 799 357 799 c 258
 392 799 l 258
 409 799 416 791 413 774 c 258
 384 589 l 257
 553 589 l 258
 570 589 576 580 574 564 c 258
EndSplineSet
PickledDataWithLists: "(dp0
Vcom.schriftgestaltung.Glyphs.lastChange
p1
V2015-12-22 14:26:24 +0000
p2
s."
EndChar

StartChar: daggerdbl
Encoding: 8225 8225 186
GlifName: daggerdbl
Width: 575
VWidth: 0
Flags: HW
LayerCount: 2
Fore
SplineSet
540 512 m 258
 371 512 l 257
 312 138 l 257
 481 138 l 258
 498 138 505 130 502 113 c 258
 498 87 l 258
 496 71 486 62 469 62 c 258
 300 62 l 257
 271 -124 l 258
 268 -141 259 -149 242 -149 c 258
 207 -149 l 258
 191 -149 183 -140 186 -124 c 258
 215 62 l 257
 46 62 l 258
 30 62 23 71 25 87 c 258
 29 113 l 258
 32 130 42 138 58 138 c 258
 227 138 l 257
 286 512 l 257
 117 512 l 258
 101 512 94 521 96 537 c 258
 101 563 l 258
 103 580 114 589 130 589 c 258
 299 589 l 257
 328 774 l 258
 331 790 341 799 357 799 c 258
 392 799 l 258
 409 799 416 791 413 774 c 258
 384 589 l 257
 553 589 l 258
 570 589 576 580 574 564 c 258
 569 537 l 258
 567 521 557 512 540 512 c 258
EndSplineSet
PickledDataWithLists: "(dp0
Vcom.schriftgestaltung.Glyphs.lastChange
p1
V2015-12-22 14:32:11 +0000
p2
s."
EndChar

StartChar: degree
Encoding: 176 176 189
GlifName: degree
Width: 575
VWidth: 0
Flags: HW
LayerCount: 2
Fore
SplineSet
147 498 m 256
 147 615 247 710 364 710 c 256
 455 710 517 648 517 560 c 256
 517 446 422 346 306 346 c 256
 210 346 147 409 147 498 c 256
  PathStart: -2
233 509 m 256
 233 459 265 423 315 423 c 256
 379 423 431 483 431 548 c 256
 431 598 398 633 349 633 c 256
 285 633 233 576 233 509 c 256
  PathStart: -2
EndSplineSet
PickledDataWithLists: "(dp0
Vcom.schriftgestaltung.Glyphs.lastChange
p1
V2016-05-30 08:37:06 +0000
p2
s."
EndChar

StartChar: delta
Encoding: 948 948 190
GlifName: delta
Width: 575
VWidth: 0
Flags: HW
LayerCount: 2
Fore
SplineSet
144 192 m 256
 144 111 184 62 255 62 c 256
 372 62 427 168 427 288 c 256
 427 319 422 351 413 382 c 257
 378 389 343 393 308 393 c 256
 205 393 144 302 144 192 c 256
  PathStart: -2
536 623 m 258
 323 623 l 257
 450 528 512 400 512 286 c 256
 512 114 413 -15 243 -15 c 256
 125 -15 58 57 58 178 c 256
 58 343 157 471 320 471 c 256
 340 471 357 470 373 467 c 257
 337 522 286 573 218 614 c 256
 207 620 202 629 204 643 c 258
 209 675 l 258
 212 691 222 700 238 700 c 258
 548 700 l 258
 564 700 572 691 569 675 c 258
 565 648 l 258
 563 632 552 623 536 623 c 258
EndSplineSet
PickledDataWithLists: "(dp0
Vcom.schriftgestaltung.Glyphs.lastChange
p1
V2016-05-30 08:32:37 +0000
p2
s."
EndChar

StartChar: dieresis
Encoding: 168 168 191
GlifName: dieresis
Width: 575
VWidth: 0
Flags: HW
AnchorPoint: "top" 328 500 mark 0
LayerCount: 2
Fore
SplineSet
324 675 m 258
 317 629 l 258
 314 612 305 604 288 604 c 258
 253 604 l 258
 237 604 229 613 232 629 c 258
 239 675 l 258
 242 691 252 700 268 700 c 258
 303 700 l 258
 320 700 327 691 324 675 c 258
531 675 m 258
 524 629 l 258
 521 612 511 604 495 604 c 258
 460 604 l 258
 443 604 436 613 439 629 c 258
 446 675 l 258
 449 691 459 700 475 700 c 258
 510 700 l 258
 526 700 534 691 531 675 c 258
EndSplineSet
PickledDataWithLists: "(dp0
Vcom.schriftgestaltung.Glyphs.lastChange
p1
V2015-12-22 16:32:41 +0000
p2
s."
EndChar

StartChar: divide
Encoding: 247 247 192
GlifName: divide
Width: 575
VWidth: 0
Flags: HW
LayerCount: 2
Fore
SplineSet
367 485 m 258
 360 439 l 258
 357 422 348 414 331 414 c 258
 296 414 l 258
 280 414 272 423 275 439 c 258
 282 485 l 258
 285 501 295 510 311 510 c 258
 346 510 l 258
 363 510 370 501 367 485 c 258
300 62 m 258
 293 15 l 258
 290 -2 281 -10 264 -10 c 258
 229 -10 l 258
 213 -10 205 -2 208 15 c 258
 215 62 l 258
 218 78 228 87 244 87 c 258
 279 87 l 258
 296 87 303 78 300 62 c 258
83 237 m 258
 87 263 l 258
 90 280 100 289 116 289 c 258
 471 289 l 258
 488 289 495 280 492 264 c 258
 488 237 l 258
 485 221 476 212 459 212 c 258
 104 212 l 258
 88 212 80 221 83 237 c 258
EndSplineSet
PickledDataWithLists: "(dp0
Vcom.schriftgestaltung.Glyphs.lastChange
p1
V2015-12-22 14:06:58 +0000
p2
s."
EndChar

StartChar: dkshade
Encoding: 9619 9619 193
GlifName: dkshade
Width: 575
VWidth: 0
Flags: HW
LayerCount: 2
Fore
SplineSet
0 -250 m 257
 0 -194 l 257
 28 -250 l 257
 0 -250 l 257
71 -250 m 257
 0 -108 l 257
 0 -52 l 257
 99 -250 l 257
 71 -250 l 257
142 -250 m 257
 0 34 l 257
 0 90 l 257
 170 -250 l 257
 142 -250 l 257
213 -250 m 257
 0 176 l 257
 0 232 l 257
 241 -250 l 257
 213 -250 l 257
284 -250 m 257
 0 318 l 257
 0 374 l 257
 312 -250 l 257
 284 -250 l 257
355 -250 m 257
 0 460 l 257
 0 516 l 257
 383 -250 l 257
 355 -250 l 257
426 -250 m 257
 0 602 l 257
 0 658 l 257
 454 -250 l 257
 426 -250 l 257
497 -250 m 257
 0 744 l 257
 0 800 l 257
 525 -250 l 257
 497 -250 l 257
575 -250 m 257
 0 900 l 257
 28 900 l 257
 575 -194 l 257
 575 -250 l 257
575 -108 m 257
 71 900 l 257
 99 900 l 257
 575 -52 l 257
 575 -108 l 257
575 34 m 257
 142 900 l 257
 170 900 l 257
 575 90 l 257
 575 34 l 257
575 176 m 257
 213 900 l 257
 241 900 l 257
 575 232 l 257
 575 176 l 257
575 318 m 257
 284 900 l 257
 312 900 l 257
 575 374 l 257
 575 318 l 257
575 460 m 257
 355 900 l 257
 383 900 l 257
 575 516 l 257
 575 460 l 257
575 602 m 257
 426 900 l 257
 454 900 l 257
 575 658 l 257
 575 602 l 257
575 744 m 257
 497 900 l 257
 525 900 l 257
 575 800 l 257
 575 744 l 257
EndSplineSet
PickledDataWithLists: "(dp0
Vcom.schriftgestaltung.Glyphs.lastChange
p1
V2016-06-10 08:26:49 +0000
p2
s."
EndChar

StartChar: dnblock
Encoding: 9604 9604 194
GlifName: dnblock
Width: 575
VWidth: 0
Flags: HW
LayerCount: 2
Fore
SplineSet
0 -250 m 257
 0 325 l 257
 575 325 l 257
 575 -250 l 257
 0 -250 l 257
EndSplineSet
PickledDataWithLists: "(dp0
Vcom.schriftgestaltung.Glyphs.lastChange
p1
V2016-06-10 08:26:49 +0000
p2
s."
EndChar

StartChar: dollar
Encoding: 36 36 195
GlifName: dollar
Width: 575
VWidth: 0
Flags: HW
LayerCount: 2
Fore
SplineSet
507 187 m 256
 507 78 416 10 289 -6 c 257
 263 -175 l 258
 260 -191 251 -200 234 -200 c 258
 199 -200 l 258
 183 -200 175 -192 178 -175 c 258
 204 -10 l 257
 165 -9 99 -7 43 3 c 256
 27 6 22 17 28 33 c 257
 38 59 l 258
 44 75 55 81 71 79 c 257
 130 68 201 67 230 67 c 256
 333 67 421 103 421 177 c 256
 421 229 375 257 291 266 c 256
 160 280 87 315 87 413 c 256
 87 526 172 594 302 607 c 257
 328 775 l 258
 331 792 341 800 357 800 c 258
 392 800 l 258
 408 800 416 792 413 775 c 258
 387 609 l 257
 422 608 468 605 509 598 c 257
 524 594 530 583 523 567 c 258
 512 541 l 258
 506 526 495 520 479 523 c 256
 430 532 366 534 342 534 c 256
 246 534 174 502 174 431 c 256
 174 372 223 352 303 343 c 256
 436 328 507 280 507 187 c 256
  PathStart: -1
EndSplineSet
PickledDataWithLists: "(dp0
Vcom.schriftgestaltung.Glyphs.lastChange
p1
V2015-12-22 14:03:19 +0000
p2
s."
EndChar

StartChar: dotaccent
Encoding: 729 729 196
GlifName: dotaccent
Width: 575
VWidth: 0
Flags: HW
AnchorPoint: "top" 325 500 mark 0
LayerCount: 2
Fore
SplineSet
414 675 m 258
 407 629 l 258
 404 612 395 604 378 604 c 258
 343 604 l 258
 327 604 319 613 322 629 c 258
 329 675 l 258
 332 691 342 700 358 700 c 258
 393 700 l 258
 410 700 417 691 414 675 c 258
EndSplineSet
PickledDataWithLists: "(dp0
Vcom.schriftgestaltung.Glyphs.lastChange
p1
V2015-12-22 16:32:41 +0000
p2
s."
EndChar

StartChar: dotbelowcomb
Encoding: 803 803 197
GlifName: dotbelowcomb
Width: 575
VWidth: 0
Flags: HW
LayerCount: 2
Fore
SplineSet
144 -169 m 258
 158 -81 l 258
 160 -65 171 -56 187 -56 c 258
 292 -56 l 258
 309 -56 315 -65 313 -81 c 258
 299 -169 l 258
 296 -185 287 -194 270 -194 c 258
 165 -194 l 258
 149 -194 141 -185 144 -169 c 258
EndSplineSet
PickledDataWithLists: "(dp0
Vcom.schriftgestaltung.Glyphs.lastChange
p1
V2015-12-22 14:33:09 +0000
p2
s."
EndChar

StartChar: dotlessi
Encoding: 305 305 198
GlifName: dotlessi
Width: 575
VWidth: 0
Flags: HW
AnchorPoint: "ogonek" 500 10 basechar 0
AnchorPoint: "bottom" 260 0 basechar 0
AnchorPoint: "top" 340 550 basechar 0
LayerCount: 2
Fore
SplineSet
455 57 m 257
 459 31 l 257
 463 16 455 4 437 0 c 256
 399 -9 368 -10 348 -10 c 256
 262 -10 218 25 218 98 c 256
 218 114 220 131 224 150 c 258
 266 350 l 258
 269 363 270 374 270 384 c 256
 270 417 254 432 215 433 c 256
 199 433 175 432 149 426 c 257
 132 423 123 428 120 443 c 257
 116 469 l 257
 112 484 120 496 138 500 c 256
 176 509 207 510 227 510 c 256
 313 510 357 475 357 402 c 256
 357 386 355 369 351 350 c 258
 309 150 l 258
 306 137 305 126 305 116 c 256
 305 83 321 68 360 67 c 256
 376 67 400 68 426 74 c 257
 443 77 452 72 455 57 c 257
EndSplineSet
PickledDataWithLists: "(dp0
Vcom.schriftgestaltung.Glyphs.lastChange
p1
V2016-06-09 18:35:33 +0000
p2
s."
EndChar

StartChar: e
Encoding: 101 101 199
GlifName: e
Width: 575
VWidth: 0
Flags: HW
AnchorPoint: "ogonek" 440 5 basechar 0
AnchorPoint: "bottom" 208 0 basechar 0
AnchorPoint: "top" 344 550 basechar 0
LayerCount: 2
Fore
SplineSet
458 77 m 258
 464 53 l 258
 467 38 462 26 446 20 c 256
 395 0 338 -10 287 -10 c 256
 176 -10 73 45 73 189 c 256
 73 354 183 510 333 510 c 256
 423 510 507 448 507 331 c 256
 507 310 504 292 499 262 c 256
 496 246 486 237 470 237 c 258
 162 237 l 257
 160 223 159 210 159 199 c 256
 159 102 222 68 299 68 c 256
 340 68 380 75 428 91 c 257
 444 97 454 92 458 77 c 258
422 314 m 257
 434 394 374 434 322 434 c 256
 269 434 200 392 181 314 c 257
 422 314 l 257
EndSplineSet
PickledDataWithLists: "(dp0
Vcom.schriftgestaltung.Glyphs.lastChange
p1
V2016-06-09 18:35:33 +0000
p2
sVcom.typemytype.robofont.layerData
p3
(dp4
VRegular Italic Dec 1 14, 09:50
p5
(dp6
Vanchors
p7
(lp8
(dp9
Vname
p10
Vogonek
p11
sVx
p12
I479
sVy
p13
I5
sa(dp14
g10
Vbottom
p15
sg12
I248
sg13
I0
sa(dp16
g10
Vtop
p17
sg12
I336
sg13
I550
sasVcomponents
p18
(lp19
sVcontours
p20
(lp21
(dp22
Vpoints
p23
(lp24
(dp25
VsegmentType
p26
Vline
p27
sVsmooth
p28
I00
sg12
I146
sg13
I314
sa(dp29
g26
Vline
p30
sg28
I00
sg12
I171
sg13
I250
sa(dp31
g28
I00
sg12
I190
sg13
I369
sa(dp32
g28
I00
sg12
I241
sg13
I434
sa(dp33
g26
Vcurve
p34
sg28
I01
sg12
I317
sg13
I434
sa(dp35
g28
I00
sg12
I393
sg13
I434
sa(dp36
g28
I00
sg12
I424
sg13
I369
sa(dp37
g26
Vcurve
p38
sg28
I00
sg12
I405
sg13
I250
sa(dp39
g26
Vline
p40
sg28
I00
sg12
I450
sg13
I314
sasa(dp41
g23
(lp42
(dp43
g26
Vline
p44
sg28
I01
sg12
I463
sg13
I237
sa(dp45
g28
I00
sg12
I479
sg13
I237
sa(dp46
g28
I00
sg12
I489
sg13
I246
sa(dp47
g26
Vcurve
p48
sg28
I01
sg12
I492
sg13
I262
sa(dp49
g26
Vline
p50
sg28
I01
sg12
I496
sg13
I285
sa(dp51
g28
I00
sg12
I519
sg13
I431
sa(dp52
g28
I00
sg12
I460
sg13
I510
sa(dp53
g26
Vcurve
p54
sg28
I01
sg12
I329
sg13
I510
sa(dp55
g28
I00
sg12
I198
sg13
I510
sa(dp56
g28
I00
sg12
I112
sg13
I418
sa(dp57
g26
Vcurve
p58
sg28
I01
sg12
I85
sg13
I250
sa(dp59
g28
I00
sg12
I58
sg13
I82
sa(dp60
g28
I00
sg12
I109
sg13
I-10
sa(dp61
g26
Vcurve
p62
sg28
I01
sg12
I285
sg13
I-10
sa(dp63
g28
I00
sg12
I312
sg13
I-10
sa(dp64
g28
I00
sg12
I358
sg13
I-9
sa(dp65
g26
Vcurve
p66
sg28
I01
sg12
I414
sg13
I1
sa(dp67
g28
I00
sg12
I431
sg13
I4
sa(dp68
g28
I00
sg12
I440
sg13
I15
sa(dp69
g26
Vcurve
p70
sg28
I01
sg12
I438
sg13
I31
sa(dp71
g26
Vline
p72
sg28
I01
sg12
I436
sg13
I57
sa(dp73
g28
I00
sg12
I435
sg13
I73
sa(dp74
g28
I00
sg12
I426
sg13
I79
sa(dp75
g26
Vcurve
p76
sg28
I01
sg12
I409
sg13
I76
sa(dp77
g28
I00
sg12
I362
sg13
I69
sa(dp78
g28
I00
sg12
I321
sg13
I67
sa(dp79
g26
Vcurve
p80
sg28
I01
sg12
I297
sg13
I67
sa(dp81
g28
I00
sg12
I183
sg13
I67
sa(dp82
g28
I00
sg12
I151
sg13
I127
sa(dp83
g26
Vcurve
p84
sg28
I00
sg12
I168
sg13
I237
sasasVlib
p85
(dp86
sg10
Ve
p87
sVunicodes
p88
(lp89
sVwidth
p90
I575
ssVbackground
p91
(dp92
g7
(lp93
sg18
(lp94
sg20
(lp95
(dp96
g23
(lp97
(dp98
g26
Vline
p99
sg28
I00
sg12
I85
sg13
I250
sa(dp100
g28
I00
sg12
I58
sg13
I82
sa(dp101
g28
I00
sg12
I109
sg13
I-10
sa(dp102
g26
Vcurve
p103
sg28
I01
sg12
I285
sg13
I-10
sa(dp104
g28
I00
sg12
I312
sg13
I-10
sa(dp105
g28
I00
sg12
I358
sg13
I-9
sa(dp106
g26
Vcurve
p107
sg28
I01
sg12
I414
sg13
I1
sa(dp108
g28
I00
sg12
I431
sg13
I4
sa(dp109
g28
I00
sg12
I440
sg13
I15
sa(dp110
g26
Vcurve
p111
sg28
I01
sg12
I438
sg13
I31
sa(dp112
g26
Vline
p113
sg28
I01
sg12
I436
sg13
I57
sa(dp114
g28
I00
sg12
I435
sg13
I73
sa(dp115
g28
I00
sg12
I426
sg13
I79
sa(dp116
g26
Vcurve
p117
sg28
I01
sg12
I409
sg13
I76
sa(dp118
g28
I00
sg12
I362
sg13
I69
sa(dp119
g28
I00
sg12
I321
sg13
I67
sa(dp120
g26
Vcurve
p121
sg28
I01
sg12
I297
sg13
I67
sa(dp122
g28
I00
sg12
I183
sg13
I67
sa(dp123
g28
I00
sg12
I151
sg13
I127
sa(dp124
g26
Vcurve
p125
sg28
I00
sg12
I168
sg13
I237
sasa(dp126
g23
(lp127
(dp128
g26
Vline
p129
sg28
I00
sg12
I170
sg13
I250
sa(dp130
g28
I00
sg12
I186
sg13
I353
sa(dp131
g28
I00
sg12
I219
sg13
I435
sa(dp132
g26
Vcurve
p133
sg28
I01
sg12
I317
sg13
I435
sa(dp134
g28
I00
sg12
I406
sg13
I435
sa(dp135
g28
I00
sg12
I422
sg13
I360
sa(dp136
g26
Vcurve
p137
sg28
I00
sg12
I405
sg13
I250
sa(dp138
g26
Vline
p139
sg28
I00
sg12
I490
sg13
I250
sa(dp140
g28
I00
sg12
I515
sg13
I410
sa(dp141
g28
I00
sg12
I474
sg13
I512
sa(dp142
g26
Vcurve
p143
sg28
I01
sg12
I332
sg13
I512
sa(dp144
g28
I00
sg12
I182
sg13
I512
sa(dp145
g28
I00
sg12
I111
sg13
I412
sa(dp146
g26
Vcurve
p147
sg28
I00
sg12
I85
sg13
I250
sasasg85
(dp148
sg10
g87
sg88
(lp149
sg90
I575
sss."
EndChar

StartChar: e.hex
Encoding: 65550 -1 200
GlifName: e.hex
Width: 575
VWidth: 0
Flags: HW
LayerCount: 2
Fore
SplineSet
214 875 m 258
 214 829 l 258
 214 812 205 804 189 804 c 258
 154 804 l 258
 137 804 129 813 129 829 c 258
 129 875 l 258
 129 891 138 900 154 900 c 258
 189 900 l 258
 205 900 214 891 214 875 c 258
502 875 m 258
 502 829 l 258
 502 812 493 804 477 804 c 258
 442 804 l 258
 425 804 417 813 417 829 c 258
 417 875 l 258
 417 891 426 900 442 900 c 258
 477 900 l 258
 493 900 502 891 502 875 c 258
358 875 m 258
 358 829 l 258
 358 812 349 804 333 804 c 258
 298 804 l 258
 281 804 273 813 273 829 c 258
 273 875 l 258
 273 891 282 900 298 900 c 258
 333 900 l 258
 349 900 358 891 358 875 c 258
EndSplineSet
Refer: 199 101 N 1 0 0 1 0 0 2
PickledDataWithLists: "(dp0
Vcom.schriftgestaltung.Glyphs.lastChange
p1
V2016-06-09 18:35:34 +0000
p2
s."
EndChar

StartChar: eight
Encoding: 56 56 207
GlifName: eight
Width: 575
VWidth: 0
Flags: HW
LayerCount: 2
Fore
SplineSet
545 570 m 256
 545 481 472 408 389 359 c 257
 453 321 508 276 508 192 c 256
 508 64 390 -10 247 -10 c 256
 133 -10 41 48 41 142 c 256
 41 235 133 307 229 357 c 257
 172 390 123 433 123 511 c 256
 123 632 233 710 361 710 c 256
 469 710 545 656 545 570 c 256
  PathStart: -2
349 634 m 256
 278 634 210 592 210 528 c 256
 210 474 257 430 330 393 c 257
 393 431 457 498 457 553 c 256
 457 600 414 634 349 634 c 256
  PathStart: -1
128 157 m 256
 128 99 182 67 259 67 c 256
 345 67 422 108 422 183 c 256
 422 251 359 293 290 326 c 257
 210 285 128 229 128 157 c 256
  PathStart: -2
EndSplineSet
PickledDataWithLists: "(dp0
Vcom.schriftgestaltung.Glyphs.lastChange
p1
V2015-12-22 20:52:45 +0000
p2
s."
EndChar

StartChar: eight.dnom
Encoding: 65551 -1 208
GlifName: eight.dnom
Width: 250
VWidth: 0
Flags: HW
LayerCount: 2
Fore
SplineSet
264 274 m 257
 258 239 233 207 195 181 c 257
 226 159 253 131 246 85 c 257
 236 22 184 -15 102 -15 c 257
 21 -15 -19 21 -9 84 c 257
 -3 123 26 151 74 179 c 257
 45 198 24 226 32 273 c 257
 41 331 88 365 162 365 c 257
 236 365 273 332 264 274 c 257
  PathStart: -2
153 307 m 257
 120 307 102 295 99 273 c 257
 94 243 115 227 146 209 c 257
 173 230 193 251 197 273 c 257
 200 295 187 307 153 307 c 257
  PathStart: -2
57 88 m 257
 53 59 70 44 111 44 c 257
 154 44 175 59 179 87 c 257
 185 121 158 135 124 151 c 257
 84 131 62 114 57 88 c 257
  PathStart: -2
EndSplineSet
PickledDataWithLists: "(dp0
Vcom.schriftgestaltung.Glyphs.Export
p1
I00
sVcom.schriftgestaltung.Glyphs.lastChange
p2
V2015-12-22 13:07:21 +0000
p3
s."
EndChar

StartChar: eight.hex
Encoding: 65552 -1 209
GlifName: eight.hex
Width: 575
VWidth: 0
Flags: HW
LayerCount: 2
Fore
SplineSet
214 875 m 258
 214 829 l 258
 214 812 205 804 189 804 c 258
 154 804 l 258
 137 804 129 813 129 829 c 258
 129 875 l 258
 129 891 138 900 154 900 c 258
 189 900 l 258
 205 900 214 891 214 875 c 258
EndSplineSet
Refer: 207 56 N 1 0 0 1 0 0 2
PickledDataWithLists: "(dp0
Vcom.schriftgestaltung.Glyphs.lastChange
p1
V2016-02-10 13:40:53 +0000
p2
s."
EndChar

StartChar: emdash
Encoding: 8212 8212 213
GlifName: emdash
Width: 575
VWidth: 0
Flags: HW
LayerCount: 2
Fore
SplineSet
-2 237 m 258
 2 263 l 258
 5 280 15 289 31 289 c 258
 556 289 l 258
 572 289 580 280 577 264 c 258
 573 237 l 258
 570 221 560 212 544 212 c 258
 19 212 l 258
 3 212 -5 221 -2 237 c 258
EndSplineSet
PickledDataWithLists: "(dp0
Vcom.schriftgestaltung.Glyphs.lastChange
p1
V2016-05-22 17:00:36 +0000
p2
s."
EndChar

StartChar: emptyset
Encoding: 8709 8709 214
GlifName: emptyset
Width: 575
VWidth: 0
Flags: HW
LayerCount: 2
Fore
SplineSet
596 481 m 258
 498 397 l 257
 515 362 521 320 514 275 c 256
 494 149 380 50 256 50 c 256
 210 50 170 63 139 87 c 257
 47 7 l 258
 34 -5 22 -5 12 7 c 258
 -12 35 l 258
 -21 47 -19 59 -7 70 c 258
 86 150 l 257
 68 185 62 228 69 275 c 256
 89 401 203 500 328 500 c 256
 375 500 415 486 446 461 c 257
 543 544 l 258
 556 556 568 556 578 544 c 258
 601 516 l 258
 611 505 609 493 596 481 c 258
158 212 m 257
 375 399 l 257
 357 409 337 415 314 415 c 256
 237 415 165 353 153 275 c 256
 149 252 151 231 158 212 c 257
426 335 m 257
 211 149 l 257
 228 140 248 136 270 136 c 256
 347 136 418 197 430 275 c 256
 433 297 432 317 426 335 c 257
EndSplineSet
PickledDataWithLists: "(dp0
Vcom.schriftgestaltung.Glyphs.lastChange
p1
V2015-12-22 14:07:55 +0000
p2
s."
EndChar

StartChar: endash
Encoding: 8211 8211 215
GlifName: endash
Width: 575
VWidth: 0
Flags: HW
LayerCount: 2
Fore
SplineSet
148 237 m 258
 152 263 l 258
 155 280 165 289 181 289 c 258
 406 289 l 258
 422 289 429 280 427 264 c 258
 423 237 l 258
 421 221 410 212 394 212 c 258
 169 212 l 258
 153 212 146 221 148 237 c 258
EndSplineSet
PickledDataWithLists: "(dp0
Vcom.schriftgestaltung.Glyphs.lastChange
p1
V2016-05-22 12:19:24 +0000
p2
s."
EndChar

StartChar: epsilon
Encoding: 949 949 217
GlifName: epsilon
Width: 575
VWidth: 0
Flags: HW
LayerCount: 2
Fore
SplineSet
460 63 m 258
 463 36 l 257
 463 20 455 8 438 6 c 257
 400 0 350 -3 300 -3 c 256
 144 -3 64 37 64 116 c 256
 64 197 132 240 220 259 c 257
 147 275 112 309 112 360 c 256
 112 473 244 520 383 520 c 256
 433 520 482 517 518 511 c 257
 534 509 539 497 533 481 c 257
 522 454 l 258
 515 439 504 433 489 435 c 257
 465 440 423 443 371 444 c 256
 286 444 199 427 199 373 c 256
 199 335 248 297 348 297 c 256
 364 297 371 288 369 272 c 258
 365 245 l 258
 362 229 352 220 336 220 c 256
 250 220 150 185 150 130 c 256
 150 93 205 73 312 73 c 256
 365 74 407 77 433 82 c 257
 449 84 458 78 460 63 c 258
EndSplineSet
PickledDataWithLists: "(dp0
Vcom.schriftgestaltung.Glyphs.lastChange
p1
V2016-05-30 08:32:45 +0000
p2
s."
EndChar

StartChar: equal
Encoding: 61 61 218
GlifName: equal
Width: 575
VWidth: 0
Flags: HW
LayerCount: 2
Fore
SplineSet
67 352 m 258
 71 378 l 258
 74 395 84 404 100 404 c 258
 523 404 l 258
 540 404 547 395 544 379 c 258
 540 352 l 258
 538 336 528 327 511 327 c 258
 88 327 l 258
 72 327 65 336 67 352 c 258
31 122 m 258
 35 148 l 258
 38 165 48 174 64 174 c 258
 487 174 l 258
 504 174 511 165 508 149 c 258
 504 122 l 258
 501 106 492 97 475 97 c 258
 52 97 l 258
 36 97 28 106 31 122 c 258
EndSplineSet
PickledDataWithLists: "(dp0
Vcom.schriftgestaltung.Glyphs.lastChange
p1
V2015-12-22 14:08:13 +0000
p2
s."
EndChar

StartChar: equivalence
Encoding: 8801 8801 219
GlifName: equivalence
Width: 575
VWidth: 0
Flags: HW
LayerCount: 2
Fore
SplineSet
450 60 m 258
 65 60 l 258
 49 60 41 69 44 85 c 258
 48 112 l 258
 51 128 61 137 77 137 c 258
 462 137 l 258
 479 137 486 128 483 112 c 258
 479 85 l 258
 476 69 467 60 450 60 c 258
474 212 m 258
 89 212 l 258
 73 212 65 221 68 237 c 258
 72 264 l 258
 75 280 85 289 101 289 c 258
 486 289 l 258
 503 289 510 280 507 264 c 258
 503 237 l 258
 500 221 491 212 474 212 c 258
498 363 m 258
 113 363 l 258
 97 363 89 372 92 388 c 258
 96 415 l 258
 99 431 109 440 125 440 c 258
 510 440 l 258
 527 440 534 431 531 415 c 258
 527 388 l 258
 524 372 515 363 498 363 c 258
EndSplineSet
PickledDataWithLists: "(dp0
Vcom.schriftgestaltung.Glyphs.lastChange
p1
V2015-12-22 14:08:32 +0000
p2
s."
EndChar

StartChar: eta
Encoding: 951 951 220
GlifName: eta
Width: 575
VWidth: 0
Flags: HW
LayerCount: 2
Fore
SplineSet
49 25 m 258
 120 471 l 258
 122 486 132 495 147 498 c 256
 222 509 286 510 319 510 c 256
 445 510 504 469 504 366 c 256
 504 349 502 329 499 308 c 258
 415 -225 l 258
 412 -241 403 -250 386 -250 c 258
 351 -250 l 258
 335 -250 327 -241 330 -225 c 258
 414 308 l 258
 416 323 418 336 418 348 c 256
 418 411 384 434 307 434 c 256
 283 434 244 433 199 430 c 257
 134 25 l 258
 132 9 122 0 105 0 c 258
 70 0 l 258
 54 0 47 9 49 25 c 258
EndSplineSet
PickledDataWithLists: "(dp0
Vcom.schriftgestaltung.Glyphs.lastChange
p1
V2016-05-30 08:32:52 +0000
p2
s."
EndChar

StartChar: eth
Encoding: 240 240 221
GlifName: eth
Width: 575
VWidth: 0
Flags: HW
LayerCount: 2
Fore
SplineSet
591 623 m 257
 596 598 l 258
 599 583 592 571 576 566 c 258
 521 547 l 257
 533 507 539 462 539 412 c 256
 539 198 456 -10 251 -10 c 256
 149 -10 69 52 69 166 c 256
 69 310 182 429 318 429 c 256
 360 429 404 419 452 382 c 257
 456 440 452 485 443 520 c 257
 334 483 l 257
 318 477 308 483 304 498 c 257
 300 522 l 257
 297 538 304 550 319 555 c 258
 411 586 l 257
 388 614 358 627 327 631 c 257
 312 632 305 640 307 656 c 258
 313 685 l 258
 316 702 327 710 343 709 c 257
 408 702 458 668 492 614 c 257
 561 638 l 258
 577 644 587 638 591 623 c 257
156 175 m 256
 156 99 204 68 260 68 c 256
 337 68 418 134 443 297 c 257
 390 349 338 351 310 351 c 256
 218 351 156 271 156 175 c 256
  PathStart: -2
EndSplineSet
PickledDataWithLists: "(dp0
Vcom.schriftgestaltung.Glyphs.lastChange
p1
V2016-06-09 18:35:33 +0000
p2
s."
EndChar

StartChar: exclam
Encoding: 33 33 222
GlifName: exclam
Width: 575
VWidth: 0
Flags: HW
LayerCount: 2
Fore
SplineSet
331 700 m 258
 386 700 l 258
 403 700 411 691 407 675 c 258
 322 230 l 258
 318 214 308 205 292 205 c 258
 269 205 l 258
 253 205 245 214 248 230 c 258
 302 675 l 258
 305 691 315 700 331 700 c 258
300 62 m 258
 293 15 l 258
 290 -2 281 -10 264 -10 c 258
 229 -10 l 258
 213 -10 205 -2 208 15 c 258
 215 62 l 258
 218 78 228 87 244 87 c 258
 279 87 l 258
 296 87 303 78 300 62 c 258
EndSplineSet
PickledDataWithLists: "(dp0
Vcom.schriftgestaltung.Glyphs.lastChange
p1
V2016-02-14 11:57:10 +0000
p2
s."
EndChar

StartChar: f
Encoding: 102 102 225
GlifName: f
Width: 575
VWidth: 0
Flags: HW
LayerCount: 2
Fore
SplineSet
570 711 m 258
 555 685 l 258
 546 670 534 665 520 671 c 256
 494 681 472 685 447 685 c 256
 389 685 346 657 329 549 c 258
 322 500 l 257
 485 500 l 258
 501 500 508 491 506 475 c 258
 502 449 l 258
 499 433 489 424 473 424 c 258
 309 424 l 257
 241 0 l 257
 223 -119 192 -162 87 -218 c 256
 72 -226 59 -223 53 -209 c 258
 41 -179 l 258
 34 -164 40 -152 56 -144 c 256
 123 -108 144 -79 156 0 c 257
 224 424 l 257
 128 424 l 258
 112 424 104 432 107 449 c 258
 111 475 l 258
 113 491 124 500 140 500 c 258
 236 500 l 257
 243 549 l 258
 269 710 364 763 459 763 c 256
 494 763 530 755 561 743 c 256
 576 738 578 726 570 711 c 258
384 231 m 1281
EndSplineSet
PickledDataWithLists: "(dp0
Vcom.schriftgestaltung.Glyphs.lastChange
p1
V2016-06-09 18:35:33 +0000
p2
s."
EndChar

StartChar: f.hex
Encoding: 65557 -1 226
GlifName: f.hex
Width: 575
VWidth: 0
Flags: HW
LayerCount: 2
Fore
SplineSet
214 875 m 258
 214 829 l 258
 214 812 205 804 189 804 c 258
 154 804 l 258
 137 804 129 813 129 829 c 258
 129 875 l 258
 129 891 138 900 154 900 c 258
 189 900 l 258
 205 900 214 891 214 875 c 258
502 875 m 258
 502 829 l 258
 502 812 493 804 477 804 c 258
 442 804 l 258
 425 804 417 813 417 829 c 258
 417 875 l 258
 417 891 426 900 442 900 c 258
 477 900 l 258
 493 900 502 891 502 875 c 258
358 875 m 258
 358 829 l 258
 358 812 349 804 333 804 c 258
 298 804 l 258
 281 804 273 813 273 829 c 258
 273 875 l 258
 273 891 282 900 298 900 c 258
 333 900 l 258
 349 900 358 891 358 875 c 258
646 875 m 258
 646 829 l 258
 646 812 637 804 621 804 c 258
 586 804 l 258
 569 804 561 813 561 829 c 258
 561 875 l 258
 561 891 570 900 586 900 c 258
 621 900 l 258
 637 900 646 891 646 875 c 258
EndSplineSet
Refer: 225 102 N 1 0 0 1 0 0 2
PickledDataWithLists: "(dp0
Vcom.schriftgestaltung.Glyphs.lastChange
p1
V2016-06-09 18:35:34 +0000
p2
s."
EndChar

StartChar: five
Encoding: 53 53 227
GlifName: five
Width: 575
VWidth: 0
Flags: HW
LayerCount: 2
Fore
SplineSet
239 431 m 257
 292 431 l 257
 424 431 491 375 491 254 c 256
 491 88 387 -10 205 -10 c 257
 163 -10 122 -5 86 4 c 257
 71 8 68 20 74 35 c 257
 86 63 l 257
 93 78 105 83 120 79 c 257
 149 72 181 68 217 68 c 257
 339 68 404 135 404 236 c 256
 404 318 361 354 279 354 c 257
 215 354 l 257
 167 361 l 257
 151 363 145 373 149 389 c 257
 217 677 l 257
 220 692 231 700 247 700 c 257
 502 700 l 257
 519 700 526 692 523 675 c 257
 519 649 l 257
 517 633 507 624 490 624 c 257
 284 624 l 257
 239 431 l 257
EndSplineSet
PickledDataWithLists: "(dp0
Vcom.schriftgestaltung.Glyphs.lastChange
p1
V2015-12-22 20:52:19 +0000
p2
s."
EndChar

StartChar: five.dnom
Encoding: 65558 -1 228
GlifName: five.dnom
Width: 250
VWidth: 0
Flags: HW
LayerCount: 2
Fore
SplineSet
101 216 m 257
 122 216 l 258
 206 216 247 174 235 101 c 256
 224 27 168 -15 81 -15 c 256
 59 -15 37 -13 19 -8 c 256
 6 -4 1 9 6 21 c 258
 12 35 l 258
 17 45 33 53 45 50 c 256
 59 46 73 44 90 44 c 256
 137 44 162 63 168 101 c 256
 174 139 156 157 112 157 c 258
 80 157 l 258
 70 157 62 162 58 167 c 257
 40 191 l 257
 34 198 32 206 35 215 c 258
 72 340 l 258
 76 352 90 360 101 360 c 258
 238 360 l 258
 252 360 261 350 259 338 c 258
 257 325 l 258
 255 314 244 302 229 302 c 258
 128 302 l 257
 101 216 l 257
EndSplineSet
PickledDataWithLists: "(dp0
Vcom.schriftgestaltung.Glyphs.Export
p1
I00
sVcom.schriftgestaltung.Glyphs.lastChange
p2
V2015-12-22 13:06:15 +0000
p3
s."
EndChar

StartChar: five.hex
Encoding: 65559 -1 229
GlifName: five.hex
Width: 575
VWidth: 0
Flags: HW
LayerCount: 2
Fore
SplineSet
358 875 m 258
 358 829 l 258
 358 812 349 804 333 804 c 258
 298 804 l 258
 281 804 273 813 273 829 c 258
 273 875 l 258
 273 891 282 900 298 900 c 258
 333 900 l 258
 349 900 358 891 358 875 c 258
646 875 m 258
 646 829 l 258
 646 812 637 804 621 804 c 258
 586 804 l 258
 569 804 561 813 561 829 c 258
 561 875 l 258
 561 891 570 900 586 900 c 258
 621 900 l 258
 637 900 646 891 646 875 c 258
EndSplineSet
Refer: 227 53 N 1 0 0 1 0 0 2
PickledDataWithLists: "(dp0
Vcom.schriftgestaltung.Glyphs.lastChange
p1
V2016-02-10 13:20:16 +0000
p2
s."
EndChar

StartChar: florin
Encoding: 402 402 232
GlifName: florin
Width: 575
VWidth: 0
Flags: HW
LayerCount: 2
Fore
SplineSet
536 719 m 258
 525 693 l 258
 519 678 507 672 492 674 c 256
 447 682 409 684 388 684 c 256
 328 684 304 665 292 599 c 258
 275 500 l 257
 439 500 l 258
 455 500 462 491 459 475 c 258
 455 449 l 258
 452 433 442 424 425 424 c 258
 261 424 l 257
 173 -75 l 258
 171 -92 160 -100 144 -100 c 258
 109 -100 l 258
 93 -100 86 -92 88 -75 c 258
 176 424 l 257
 81 424 l 258
 65 424 57 432 60 449 c 258
 65 475 l 258
 68 491 78 500 94 500 c 258
 190 500 l 257
 207 599 l 258
 227 716 285 760 401 760 c 256
 429 760 473 758 522 749 c 256
 538 746 543 736 536 719 c 258
EndSplineSet
PickledDataWithLists: "(dp0
Vcom.schriftgestaltung.Glyphs.lastChange
p1
V2015-12-22 12:14:05 +0000
p2
s."
EndChar

StartChar: four
Encoding: 52 52 233
GlifName: four
Width: 575
VWidth: 0
Flags: HW
LayerCount: 2
Fore
SplineSet
426 221 m 257
 480 221 l 258
 497 221 504 212 501 196 c 258
 497 170 l 258
 495 154 485 145 468 145 c 258
 413 145 l 257
 394 25 l 258
 392 9 382 0 365 0 c 258
 330 0 l 258
 314 0 308 9 310 25 c 258
 329 145 l 257
 80 145 l 258
 64 145 58 153 60 169 c 258
 67 209 l 258
 68 221 72 230 78 240 c 258
 366 677 l 258
 376 694 386 700 406 700 c 258
 442 700 l 258
 462 700 468 688 457 670 c 258
 160 221 l 257
 341 221 l 257
 368 392 l 258
 371 408 381 417 397 417 c 258
 432 417 l 258
 448 417 456 408 453 392 c 258
 426 221 l 257
EndSplineSet
PickledDataWithLists: "(dp0
Vcom.schriftgestaltung.Glyphs.lastChange
p1
V2015-12-22 20:52:10 +0000
p2
s."
EndChar

StartChar: four.dnom
Encoding: 65561 -1 234
GlifName: four.dnom
Width: 250
VWidth: 0
Flags: HW
LayerCount: 2
Fore
SplineSet
208 121 m 257
 223 121 l 257
 237 121 245 109 243 98 c 257
 241 85 l 257
 239 73 227 63 213 63 c 257
 197 63 l 257
 189 13 l 257
 188 2 176 -10 162 -10 c 257
 144 -10 l 257
 129 -10 122 2 123 13 c 257
 131 63 l 257
 19 63 l 257
 6 63 -3 73 -1 85 c 257
 2 105 l 257
 3 112 5 118 9 124 c 257
 9 124 l 257
 153 343 l 257
 160 353 172 360 185 360 c 257
 203 360 l 257
 220 360 228 344 218 331 c 257
 81 121 l 257
 141 121 l 257
 152 196 l 257
 154 208 168 219 181 219 c 257
 198 219 l 257
 212 219 221 208 219 196 c 257
 208 121 l 257
EndSplineSet
PickledDataWithLists: "(dp0
Vcom.schriftgestaltung.Glyphs.Export
p1
I00
sVcom.schriftgestaltung.Glyphs.lastChange
p2
V2015-12-22 13:05:53 +0000
p3
s."
EndChar

StartChar: four.hex
Encoding: 65562 -1 235
GlifName: four.hex
Width: 575
VWidth: 0
Flags: HW
LayerCount: 2
Fore
SplineSet
358 875 m 258
 358 829 l 258
 358 812 349 804 333 804 c 258
 298 804 l 258
 281 804 273 813 273 829 c 258
 273 875 l 258
 273 891 282 900 298 900 c 258
 333 900 l 258
 349 900 358 891 358 875 c 258
EndSplineSet
Refer: 233 52 N 1 0 0 1 0 0 2
PickledDataWithLists: "(dp0
Vcom.schriftgestaltung.Glyphs.lastChange
p1
V2016-02-10 13:19:53 +0000
p2
s."
EndChar

StartChar: g
Encoding: 103 103 238
GlifName: g
Width: 575
VWidth: 0
Flags: HW
AnchorPoint: "top" 338 550 basechar 0
AnchorPoint: "bottom" 248 0 basechar 0
LayerCount: 2
Fore
SplineSet
359 -39 m 257
 375 63 l 257
 322 15 263 -10 212 -10 c 256
 136 -10 77 46 77 190 c 256
 77 380 157 510 357 510 c 256
 386 510 440 508 501 500 c 257
 517 497 524 487 522 471 c 257
 443 -38 l 257
 415 -212 330 -250 221 -250 c 256
 173 -250 122 -242 68 -236 c 256
 51 -234 48 -225 52 -207 c 258
 57 -181 l 258
 60 -166 72 -158 88 -160 c 256
 140 -168 185 -175 222 -175 c 256
 296 -175 342 -147 359 -39 c 257
388 151 m 257
 433 430 l 257
 395 433 363 434 345 434 c 256
 209 434 163 336 163 205 c 256
 163 104 195 66 242 66 c 256
 283 66 336 95 388 151 c 257
EndSplineSet
PickledDataWithLists: "(dp0
Vcom.schriftgestaltung.Glyphs.lastChange
p1
V2016-06-09 18:35:33 +0000
p2
sVcom.typemytype.robofont.layerData
p3
(dp4
Vbackground
p5
(dp6
Vanchors
p7
(lp8
sVcomponents
p9
(lp10
sVcontours
p11
(lp12
(dp13
Vpoints
p14
(lp15
(dp16
VsegmentType
p17
Vline
p18
sVsmooth
p19
I00
sVx
p20
I365
sVy
p21
I0
sa(dp22
g17
Vline
p23
sg19
I01
sg20
I351
sg21
I-89
sa(dp24
g19
I00
sg20
I341
sg21
I-154
sa(dp25
g19
I00
sg20
I317
sg21
I-174
sa(dp26
g17
Vcurve
p27
sg19
I01
sg20
I258
sg21
I-174
sa(dp28
g19
I00
sg20
I237
sg21
I-174
sa(dp29
g19
I00
sg20
I199
sg21
I-172
sa(dp30
g17
Vcurve
p31
sg19
I00
sg20
I154
sg21
I-164
sa(dp32
g19
I00
sg20
I138
sg21
I-162
sa(dp33
g19
I00
sg20
I127
sg21
I-168
sa(dp34
g17
Vcurve
p35
sg19
I01
sg20
I121
sg21
I-183
sa(dp36
g17
Vline
p37
sg19
I01
sg20
I111
sg21
I-209
sa(dp38
g19
I00
sg20
I104
sg21
I-226
sa(dp39
g19
I00
sg20
I109
sg21
I-236
sa(dp40
g17
Vcurve
p41
sg19
I01
sg20
I125
sg21
I-239
sa(dp42
g19
I00
sg20
I174
sg21
I-248
sa(dp43
g19
I00
sg20
I218
sg21
I-250
sa(dp44
g17
Vcurve
p45
sg19
I01
sg20
I246
sg21
I-250
sa(dp46
g19
I00
sg20
I362
sg21
I-250
sa(dp47
g19
I00
sg20
I416
sg21
I-205
sa(dp48
g17
Vcurve
p49
sg19
I01
sg20
I435
sg21
I-88
sa(dp50
g17
Vline
p51
sg19
I00
sg20
I451
sg21
I10
sa(dp52
g17
Vline
p53
sg19
I01
sg20
I522
sg21
I471
sa(dp54
g19
I00
sg20
I524
sg21
I487
sa(dp55
g19
I00
sg20
I517
sg21
I497
sa(dp56
g17
Vcurve
p57
sg19
I00
sg20
I501
sg21
I500
sa(dp58
g19
I00
sg20
I440
sg21
I508
sa(dp59
g19
I00
sg20
I386
sg21
I510
sa(dp60
g17
Vcurve
p61
sg19
I01
sg20
I357
sg21
I510
sa(dp62
g19
I00
sg20
I216
sg21
I510
sa(dp63
g19
I00
sg20
I118
sg21
I464
sa(dp64
g17
Vcurve
p65
sg19
I01
sg20
I84
sg21
I250
sa(dp66
g19
I00
sg20
I55
sg21
I69
sa(dp67
g19
I00
sg20
I122
sg21
I-10
sa(dp68
g17
Vcurve
p69
sg19
I01
sg20
I212
sg21
I-10
sa(dp70
g19
I00
sg20
I263
sg21
I-10
sa(dp71
g19
I00
sg20
I322
sg21
I15
sa(dp72
g17
Vcurve
p73
sg19
I00
sg20
I375
sg21
I63
sasa(dp74
g14
(lp75
(dp76
g17
Vline
p77
sg19
I00
sg20
I388
sg21
I151
sa(dp78
g19
I00
sg20
I336
sg21
I95
sa(dp79
g19
I00
sg20
I283
sg21
I66
sa(dp80
g17
Vcurve
p81
sg19
I01
sg20
I242
sg21
I66
sa(dp82
g19
I00
sg20
I184
sg21
I66
sa(dp83
g19
I00
sg20
I149
sg21
I124
sa(dp84
g17
Vcurve
p85
sg19
I01
sg20
I169
sg21
I250
sa(dp86
g19
I00
sg20
I193
sg21
I402
sa(dp87
g19
I00
sg20
I246
sg21
I434
sa(dp88
g17
Vcurve
p89
sg19
I01
sg20
I345
sg21
I434
sa(dp90
g19
I00
sg20
I363
sg21
I434
sa(dp91
g19
I00
sg20
I395
sg21
I433
sa(dp92
g17
Vcurve
p93
sg19
I00
sg20
I433
sg21
I430
sasasVlib
p94
(dp95
sVname
p96
Vg
p97
sVunicodes
p98
(lp99
sVwidth
p100
I575
sss."
EndChar

StartChar: gamma
Encoding: 947 947 239
GlifName: gamma
Width: 575
VWidth: 0
Flags: HW
LayerCount: 2
Fore
SplineSet
101 472 m 258
 99 489 110 500 127 500 c 258
 163 500 l 258
 178 500 185 493 187 479 c 258
 225 63 l 257
 256 63 l 258
 277 63 293 74 300 93 c 258
 458 479 l 258
 463 493 474 500 489 500 c 258
 525 500 l 258
 543 500 549 490 542 472 c 258
 382 80 l 258
 358 22 310 -10 245 -10 c 258
 232 -10 l 257
 239 -78 237 -158 230 -225 c 256
 227 -241 217 -250 201 -250 c 258
 173 -250 l 258
 157 -250 150 -242 152 -226 c 256
 155 -178 153 -103 146 -21 c 258
 101 472 l 258
  PathStart: -2
EndSplineSet
PickledDataWithLists: "(dp0
Vcom.schriftgestaltung.Glyphs.lastChange
p1
V2016-05-30 08:32:29 +0000
p2
s."
EndChar

StartChar: germandbls
Encoding: 223 223 241
GlifName: germandbls
Width: 575
VWidth: 0
Flags: HW
AnchorPoint: "top" 340 500 basechar 0
AnchorPoint: "bottom" 260 0 basechar 0
LayerCount: 2
Fore
SplineSet
226 494 m 258
 151 25 l 258
 149 9 139 0 122 0 c 258
 87 0 l 258
 71 0 64 9 66 25 c 258
 141 494 l 258
 162 631 241 700 365 700 c 256
 468 700 522 656 522 575 c 256
 522 513 493 472 456 427 c 256
 440 407 421 385 421 365 c 256
 421 345 436 331 453 314 c 256
 477 291 506 264 506 216 c 256
 506 84 393 8 251 1 c 256
 233 0 226 9 229 26 c 258
 233 52 l 258
 235 68 245 76 262 78 c 256
 355 84 425 129 425 209 c 256
 425 242 402 260 380 279 c 256
 357 297 334 315 334 349 c 256
 334 394 369 434 397 468 c 256
 422 499 440 517 440 552 c 256
 440 599 410 624 353 624 c 256
 284 624 239 581 226 494 c 258
EndSplineSet
PickledDataWithLists: "(dp0
Vcom.schriftgestaltung.Glyphs.lastChange
p1
V2016-06-09 18:35:34 +0000
p2
s."
EndChar

StartChar: grave
Encoding: 96 96 242
GlifName: grave
Width: 575
VWidth: 0
Flags: HW
AnchorPoint: "top" 328 500 mark 0
LayerCount: 2
Fore
SplineSet
470 595 m 258
 484 588 486 577 478 562 c 257
 467 544 l 257
 456 530 445 526 432 531 c 258
 221 606 l 258
 206 611 203 623 212 638 c 258
 242 684 l 258
 250 699 263 703 277 696 c 258
 470 595 l 258
  PathStart: -2
EndSplineSet
PickledDataWithLists: "(dp0
Vcom.schriftgestaltung.Glyphs.lastChange
p1
V2015-12-22 16:32:42 +0000
p2
s."
EndChar

StartChar: greater
Encoding: 62 62 243
GlifName: greater
Width: 575
VWidth: 0
Flags: HW
LayerCount: 2
Fore
SplineSet
183 562 m 258
 470 318 l 258
 493 299 504 274 500 250 c 256
 496 226 477 201 448 182 c 258
 86 -62 l 258
 72 -71 58 -71 50 -58 c 258
 35 -35 l 258
 27 -22 30 -10 44 0 c 258
 416 250 l 257
 124 500 l 258
 112 510 113 522 125 535 c 258
 148 558 l 258
 160 571 173 571 183 562 c 258
EndSplineSet
PickledDataWithLists: "(dp0
Vcom.schriftgestaltung.Glyphs.lastChange
p1
V2016-06-09 12:12:14 +0000
p2
s."
EndChar

StartChar: greaterequal
Encoding: 8805 8805 244
GlifName: greaterequal
Width: 575
VWidth: 0
Flags: HW
LayerCount: 2
Fore
SplineSet
15 25 m 258
 20 52 l 258
 22 68 33 77 49 77 c 258
 472 77 l 258
 489 77 495 68 493 52 c 258
 488 25 l 258
 486 9 476 0 459 0 c 258
 36 0 l 258
 20 0 13 9 15 25 c 258
176 645 m 258
 493 473 l 258
 533 451 548 425 544 400 c 256
 540 373 513 347 470 328 c 258
 98 155 l 258
 83 148 71 152 67 166 c 258
 56 190 l 258
 51 205 57 217 72 224 c 258
 452 400 l 257
 128 576 l 258
 115 584 113 596 123 610 c 258
 141 635 l 258
 150 649 163 652 176 645 c 258
EndSplineSet
PickledDataWithLists: "(dp0
Vcom.schriftgestaltung.Glyphs.lastChange
p1
V2015-12-22 14:10:07 +0000
p2
s."
EndChar

StartChar: guillemotleft
Encoding: 171 171 245
GlifName: guillemotleft
Width: 575
VWidth: 0
Flags: HW
LayerCount: 2
Fore
SplineSet
114 250 m 257
 271 63 l 258
 281 52 279 39 265 28 c 258
 239 7 l 258
 225 -3 213 -3 203 8 c 258
 55 185 l 258
 39 204 26 223 30 250 c 256
 34 277 53 297 75 316 c 258
 279 492 l 258
 293 504 305 504 315 493 c 258
 335 473 l 258
 346 462 344 449 331 437 c 258
 114 250 l 257
350 250 m 257
 507 63 l 258
 518 52 516 39 501 28 c 258
 475 7 l 258
 461 -3 449 -3 440 8 c 258
 291 185 l 258
 275 204 262 223 266 250 c 256
 270 277 289 297 311 316 c 258
 516 492 l 258
 529 504 541 504 551 493 c 258
 571 473 l 258
 583 462 581 449 567 437 c 258
 350 250 l 257
EndSplineSet
PickledDataWithLists: "(dp0
Vcom.schriftgestaltung.Glyphs.lastChange
p1
V2015-12-22 13:55:11 +0000
p2
s."
EndChar

StartChar: guilsinglleft
Encoding: 8249 8249 247
GlifName: guilsinglleft
Width: 575
VWidth: 0
Flags: HW
LayerCount: 2
Fore
SplineSet
232 250 m 257
 389 63 l 258
 400 52 398 39 383 28 c 258
 357 7 l 258
 343 -3 331 -3 322 8 c 258
 173 185 l 258
 156 206 147 224 147 242 c 256
 147 267 163 290 193 316 c 258
 398 492 l 258
 411 504 423 504 433 493 c 258
 453 473 l 258
 465 462 463 449 449 437 c 258
 232 250 l 257
EndSplineSet
PickledDataWithLists: "(dp0
Vcom.schriftgestaltung.Glyphs.lastChange
p1
V2015-12-22 13:57:17 +0000
p2
s."
EndChar

StartChar: h
Encoding: 104 104 249
GlifName: h
Width: 575
VWidth: 0
Flags: HW
AnchorPoint: "center" 288 250 basechar 0
AnchorPoint: "top" 408 620 basechar 0
LayerCount: 2
Fore
SplineSet
249 725 m 258
 204 437 l 257
 256 485 311 510 372 510 c 256
 439 510 497 481 497 359 c 256
 497 336 495 309 490 278 c 258
 450 25 l 258
 448 9 438 0 421 0 c 258
 386 0 l 258
 370 0 363 9 365 25 c 258
 405 278 l 258
 409 304 411 326 411 344 c 256
 411 421 381 434 343 434 c 256
 291 434 243 405 190 349 c 257
 138 25 l 258
 136 9 125 0 109 0 c 258
 74 0 l 258
 58 0 51 9 53 25 c 258
 163 720 l 258
 166 736 175 750 191 750 c 258
 228 750 l 258
 244 750 252 741 249 725 c 258
EndSplineSet
PickledDataWithLists: "(dp0
Vcom.schriftgestaltung.Glyphs.lastChange
p1
V2016-06-09 18:35:33 +0000
p2
s."
EndChar

StartChar: heart
Encoding: 9829 9829 251
GlifName: heart
Width: 575
VWidth: 0
Flags: HW
LayerCount: 2
Fore
SplineSet
175 530 m 256
 226 530 268 499 288 460 c 257
 308 499 351 530 400 530 c 256
 481 530 540 457 540 373 c 256
 540 251 445 120 288 -20 c 257
 126 124 36 255 36 373 c 256
 36 462 96 530 175 530 c 256
EndSplineSet
PickledDataWithLists: "(dp0
Vcom.schriftgestaltung.Glyphs.lastChange
p1
V2016-06-10 08:28:00 +0000
p2
s."
Comment: "+AAoA    heart+AAoA  "
EndChar

StartChar: hungarumlaut
Encoding: 733 733 252
GlifName: hungarumlaut
Width: 575
VWidth: 0
Flags: HW
AnchorPoint: "top" 331 500 mark 0
LayerCount: 2
Fore
SplineSet
359 691 m 258
 386 659 l 258
 395 648 393 635 379 624 c 258
 262 532 l 258
 248 521 236 522 227 533 c 258
 210 553 l 258
 201 564 203 576 216 588 c 258
 324 690 l 258
 337 702 349 703 359 691 c 258
588 691 m 258
 614 659 l 258
 624 648 621 635 607 624 c 258
 491 532 l 258
 477 521 465 522 456 533 c 258
 439 553 l 258
 430 564 431 576 444 588 c 258
 553 690 l 258
 566 702 578 703 588 691 c 258
EndSplineSet
PickledDataWithLists: "(dp0
Vcom.schriftgestaltung.Glyphs.lastChange
p1
V2015-12-22 16:32:42 +0000
p2
s."
EndChar

StartChar: hyphen
Encoding: 45 45 253
GlifName: hyphen
Width: 575
VWidth: 0
Flags: HW
LayerCount: 2
Fore
SplineSet
50 237 m 258
 54 263 l 258
 57 280 67 289 83 289 c 258
 506 289 l 258
 522 289 530 280 527 264 c 258
 523 237 l 258
 520 221 510 212 494 212 c 258
 71 212 l 258
 55 212 47 221 50 237 c 258
EndSplineSet
PickledDataWithLists: "(dp0
Vcom.schriftgestaltung.Glyphs.lastChange
p1
V2015-12-22 16:32:53 +0000
p2
s."
EndChar

StartChar: i
Encoding: 105 105 254
GlifName: i
Width: 575
VWidth: 0
Flags: HW
LayerCount: 2
Fore
SplineSet
377 644 m 258
 312 644 l 258
 296 644 289 653 291 669 c 258
 302 735 l 258
 304 751 315 760 331 760 c 258
 396 760 l 258
 412 760 420 752 417 735 c 258
 406 669 l 258
 404 653 394 644 377 644 c 258
EndSplineSet
Refer: 198 305 N 1 0 0 1 0 0 2
PickledDataWithLists: "(dp0
Vcom.schriftgestaltung.Glyphs.lastChange
p1
V2016-06-09 18:35:33 +0000
p2
sVcom.typemytype.robofont.layerData
p3
(dp4
VRegular Italic Nov 30 14, 09:18
p5
(dp6
Vanchors
p7
(lp8
sVcomponents
p9
(lp10
sVcontours
p11
(lp12
(dp13
Vpoints
p14
(lp15
(dp16
VsegmentType
p17
Vline
p18
sVsmooth
p19
I01
sVx
p20
I305
sVy
p21
I644
sa(dp22
g19
I00
sg20
I322
sg21
I644
sa(dp23
g19
I00
sg20
I330
sg21
I653
sa(dp24
g17
Vcurve
p25
sg19
I01
sg20
I330
sg21
I669
sa(dp26
g17
Vline
p27
sg19
I01
sg20
I330
sg21
I735
sa(dp28
g19
I00
sg20
I330
sg21
I752
sa(dp29
g19
I00
sg20
I321
sg21
I760
sa(dp30
g17
Vcurve
p31
sg19
I01
sg20
I305
sg21
I760
sa(dp32
g17
Vline
p33
sg19
I01
sg20
I240
sg21
I760
sa(dp34
g19
I00
sg20
I224
sg21
I760
sa(dp35
g19
I00
sg20
I215
sg21
I751
sa(dp36
g17
Vcurve
p37
sg19
I01
sg20
I215
sg21
I735
sa(dp38
g17
Vline
p39
sg19
I01
sg20
I215
sg21
I669
sa(dp40
g19
I00
sg20
I215
sg21
I653
sa(dp41
g19
I00
sg20
I224
sg21
I644
sa(dp42
g17
Vcurve
p43
sg19
I01
sg20
I240
sg21
I644
sasa(dp44
g14
(lp45
(dp46
g17
Vline
p47
sg19
I00
sg20
I486
sg21
I57
sa(dp48
g19
I00
sg20
I480
sg21
I72
sa(dp49
g19
I00
sg20
I470
sg21
I77
sa(dp50
g17
Vcurve
p51
sg19
I00
sg20
I454
sg21
I74
sa(dp52
g19
I00
sg20
I429
sg21
I68
sa(dp53
g19
I00
sg20
I405
sg21
I67
sa(dp54
g17
Vcurve
p55
sg19
I01
sg20
I389
sg21
I67
sa(dp56
g19
I00
sg20
I339
sg21
I68
sa(dp57
g19
I00
sg20
I330
sg21
I91
sa(dp58
g17
Vcurve
p59
sg19
I01
sg20
I330
sg21
I150
sa(dp60
g17
Vline
p61
sg19
I01
sg20
I330
sg21
I350
sa(dp62
g19
I00
sg20
I330
sg21
I460
sa(dp63
g19
I00
sg20
I290
sg21
I510
sa(dp64
g17
Vcurve
p65
sg19
I01
sg20
I186
sg21
I510
sa(dp66
g19
I00
sg20
I166
sg21
I510
sa(dp67
g19
I00
sg20
I135
sg21
I509
sa(dp68
g17
Vcurve
p69
sg19
I01
sg20
I98
sg21
I500
sa(dp70
g19
I00
sg20
I81
sg21
I496
sa(dp71
g19
I00
sg20
I75
sg21
I484
sa(dp72
g17
Vcurve
p73
sg19
I00
sg20
I81
sg21
I469
sa(dp74
g17
Vline
p75
sg19
I00
sg20
I89
sg21
I443
sa(dp76
g19
I00
sg20
I95
sg21
I428
sa(dp77
g19
I00
sg20
I105
sg21
I423
sa(dp78
g17
Vcurve
p79
sg19
I00
sg20
I121
sg21
I426
sa(dp80
g19
I00
sg20
I146
sg21
I432
sa(dp81
g19
I00
sg20
I170
sg21
I433
sa(dp82
g17
Vcurve
p83
sg19
I01
sg20
I186
sg21
I433
sa(dp84
g19
I00
sg20
I236
sg21
I432
sa(dp85
g19
I00
sg20
I245
sg21
I409
sa(dp86
g17
Vcurve
p87
sg19
I01
sg20
I245
sg21
I350
sa(dp88
g17
Vline
p89
sg19
I01
sg20
I245
sg21
I150
sa(dp90
g19
I00
sg20
I245
sg21
I40
sa(dp91
g19
I00
sg20
I285
sg21
I-10
sa(dp92
g17
Vcurve
p93
sg19
I01
sg20
I389
sg21
I-10
sa(dp94
g19
I00
sg20
I409
sg21
I-10
sa(dp95
g19
I00
sg20
I440
sg21
I-9
sa(dp96
g17
Vcurve
p97
sg19
I01
sg20
I477
sg21
I0
sa(dp98
g19
I00
sg20
I494
sg21
I4
sa(dp99
g19
I00
sg20
I500
sg21
I16
sa(dp100
g17
Vcurve
p101
sg19
I00
sg20
I494
sg21
I31
sasasVlib
p102
(dp103
sVname
p104
Vi
p105
sVunicodes
p106
(lp107
sVwidth
p108
I600
ssVRegular Italic Nov 30 14, 09:19
p109
(dp110
g7
(lp111
sg9
(lp112
sg11
(lp113
(dp114
g14
(lp115
(dp116
g17
Vline
p117
sg19
I01
sg20
I305
sg21
I644
sa(dp118
g19
I00
sg20
I322
sg21
I644
sa(dp119
g19
I00
sg20
I330
sg21
I653
sa(dp120
g17
Vcurve
p121
sg19
I01
sg20
I330
sg21
I669
sa(dp122
g17
Vline
p123
sg19
I01
sg20
I330
sg21
I735
sa(dp124
g19
I00
sg20
I330
sg21
I752
sa(dp125
g19
I00
sg20
I321
sg21
I760
sa(dp126
g17
Vcurve
p127
sg19
I01
sg20
I305
sg21
I760
sa(dp128
g17
Vline
p129
sg19
I01
sg20
I240
sg21
I760
sa(dp130
g19
I00
sg20
I224
sg21
I760
sa(dp131
g19
I00
sg20
I215
sg21
I751
sa(dp132
g17
Vcurve
p133
sg19
I01
sg20
I215
sg21
I735
sa(dp134
g17
Vline
p135
sg19
I01
sg20
I215
sg21
I669
sa(dp136
g19
I00
sg20
I215
sg21
I653
sa(dp137
g19
I00
sg20
I224
sg21
I644
sa(dp138
g17
Vcurve
p139
sg19
I01
sg20
I240
sg21
I644
sasa(dp140
g14
(lp141
(dp142
g17
Vline
p143
sg19
I00
sg20
I486
sg21
I57
sa(dp144
g19
I00
sg20
I480
sg21
I72
sa(dp145
g19
I00
sg20
I470
sg21
I77
sa(dp146
g17
Vcurve
p147
sg19
I00
sg20
I454
sg21
I74
sa(dp148
g19
I00
sg20
I429
sg21
I68
sa(dp149
g19
I00
sg20
I405
sg21
I67
sa(dp150
g17
Vcurve
p151
sg19
I01
sg20
I389
sg21
I67
sa(dp152
g19
I00
sg20
I339
sg21
I68
sa(dp153
g19
I00
sg20
I330
sg21
I91
sa(dp154
g17
Vcurve
p155
sg19
I01
sg20
I330
sg21
I150
sa(dp156
g17
Vline
p157
sg19
I01
sg20
I330
sg21
I350
sa(dp158
g19
I00
sg20
I330
sg21
I460
sa(dp159
g19
I00
sg20
I290
sg21
I510
sa(dp160
g17
Vcurve
p161
sg19
I01
sg20
I186
sg21
I510
sa(dp162
g19
I00
sg20
I166
sg21
I510
sa(dp163
g19
I00
sg20
I135
sg21
I509
sa(dp164
g17
Vcurve
p165
sg19
I01
sg20
I98
sg21
I500
sa(dp166
g19
I00
sg20
I81
sg21
I496
sa(dp167
g19
I00
sg20
I75
sg21
I484
sa(dp168
g17
Vcurve
p169
sg19
I00
sg20
I81
sg21
I469
sa(dp170
g17
Vline
p171
sg19
I00
sg20
I89
sg21
I443
sa(dp172
g19
I00
sg20
I95
sg21
I428
sa(dp173
g19
I00
sg20
I105
sg21
I423
sa(dp174
g17
Vcurve
p175
sg19
I00
sg20
I121
sg21
I426
sa(dp176
g19
I00
sg20
I146
sg21
I432
sa(dp177
g19
I00
sg20
I170
sg21
I433
sa(dp178
g17
Vcurve
p179
sg19
I01
sg20
I186
sg21
I433
sa(dp180
g19
I00
sg20
I236
sg21
I432
sa(dp181
g19
I00
sg20
I245
sg21
I409
sa(dp182
g17
Vcurve
p183
sg19
I01
sg20
I245
sg21
I350
sa(dp184
g17
Vline
p185
sg19
I01
sg20
I245
sg21
I150
sa(dp186
g19
I00
sg20
I245
sg21
I40
sa(dp187
g19
I00
sg20
I285
sg21
I-10
sa(dp188
g17
Vcurve
p189
sg19
I01
sg20
I389
sg21
I-10
sa(dp190
g19
I00
sg20
I409
sg21
I-10
sa(dp191
g19
I00
sg20
I440
sg21
I-9
sa(dp192
g17
Vcurve
p193
sg19
I01
sg20
I477
sg21
I0
sa(dp194
g19
I00
sg20
I494
sg21
I4
sa(dp195
g19
I00
sg20
I500
sg21
I16
sa(dp196
g17
Vcurve
p197
sg19
I00
sg20
I494
sg21
I31
sasasg102
(dp198
sg104
g105
sg106
(lp199
sg108
I600
ssVbackground
p200
(dp201
g7
(lp202
sg9
(lp203
sg11
(lp204
(dp205
g14
(lp206
(dp207
g17
Vline
p208
sg19
I01
sg20
I240
sg21
I760
sa(dp209
g19
I00
sg20
I224
sg21
I760
sa(dp210
g19
I00
sg20
I215
sg21
I751
sa(dp211
g17
Vcurve
p212
sg19
I01
sg20
I215
sg21
I735
sa(dp213
g17
Vline
p214
sg19
I01
sg20
I215
sg21
I669
sa(dp215
g19
I00
sg20
I215
sg21
I653
sa(dp216
g19
I00
sg20
I224
sg21
I644
sa(dp217
g17
Vcurve
p218
sg19
I01
sg20
I240
sg21
I644
sa(dp219
g17
Vline
p220
sg19
I01
sg20
I305
sg21
I644
sa(dp221
g19
I00
sg20
I322
sg21
I644
sa(dp222
g19
I00
sg20
I330
sg21
I653
sa(dp223
g17
Vcurve
p224
sg19
I01
sg20
I330
sg21
I669
sa(dp225
g17
Vline
p226
sg19
I01
sg20
I330
sg21
I735
sa(dp227
g19
I00
sg20
I330
sg21
I752
sa(dp228
g19
I00
sg20
I321
sg21
I760
sa(dp229
g17
Vcurve
p230
sg19
I01
sg20
I305
sg21
I760
sasa(dp231
g14
(lp232
(dp233
g17
Vline
p234
sg19
I00
sg20
I330
sg21
I77
sa(dp235
g17
Vline
p236
sg19
I01
sg20
I330
sg21
I475
sa(dp237
g19
I00
sg20
I330
sg21
I492
sa(dp238
g19
I00
sg20
I321
sg21
I500
sa(dp239
g17
Vcurve
p240
sg19
I01
sg20
I305
sg21
I500
sa(dp241
g17
Vline
p242
sg19
I01
sg20
I143
sg21
I500
sa(dp243
g19
I00
sg20
I127
sg21
I500
sa(dp244
g19
I00
sg20
I118
sg21
I492
sa(dp245
g17
Vcurve
p246
sg19
I01
sg20
I118
sg21
I475
sa(dp247
g17
Vline
p248
sg19
I01
sg20
I118
sg21
I449
sa(dp249
g19
I00
sg20
I118
sg21
I433
sa(dp250
g19
I00
sg20
I127
sg21
I424
sa(dp251
g17
Vcurve
p252
sg19
I01
sg20
I143
sg21
I424
sa(dp253
g17
Vline
p254
sg19
I00
sg20
I245
sg21
I424
sa(dp255
g17
Vline
p256
sg19
I00
sg20
I245
sg21
I77
sa(dp257
g17
Vline
p258
sg19
I01
sg20
I110
sg21
I77
sa(dp259
g19
I00
sg20
I94
sg21
I77
sa(dp260
g19
I00
sg20
I85
sg21
I68
sa(dp261
g17
Vcurve
p262
sg19
I01
sg20
I85
sg21
I52
sa(dp263
g17
Vline
p264
sg19
I01
sg20
I85
sg21
I25
sa(dp265
g19
I00
sg20
I85
sg21
I9
sa(dp266
g19
I00
sg20
I94
sg21
I0
sa(dp267
g17
Vcurve
p268
sg19
I01
sg20
I110
sg21
I0
sa(dp269
g17
Vline
p270
sg19
I01
sg20
I465
sg21
I0
sa(dp271
g19
I00
sg20
I481
sg21
I0
sa(dp272
g19
I00
sg20
I490
sg21
I9
sa(dp273
g17
Vcurve
p274
sg19
I01
sg20
I490
sg21
I25
sa(dp275
g17
Vline
p276
sg19
I01
sg20
I490
sg21
I52
sa(dp277
g19
I00
sg20
I490
sg21
I68
sa(dp278
g19
I00
sg20
I481
sg21
I77
sa(dp279
g17
Vcurve
p280
sg19
I01
sg20
I465
sg21
I77
sasasg102
(dp281
sg104
g105
sg106
(lp282
sg108
I575
sss."
EndChar

StartChar: ij
Encoding: 307 307 259
GlifName: ij
Width: 575
VWidth: 0
Flags: HW
LayerCount: 2
Fore
SplineSet
319 654 m 258
 284 654 l 258
 268 654 260 663 263 679 c 258
 270 725 l 258
 273 741 283 750 299 750 c 258
 334 750 l 258
 351 750 358 741 355 725 c 258
 348 679 l 258
 345 662 336 654 319 654 c 258
509 750 m 258
 544 750 l 258
 560 750 568 742 565 725 c 258
 558 679 l 258
 555 663 546 654 529 654 c 258
 494 654 l 258
 478 654 470 663 473 679 c 258
 480 725 l 258
 483 741 493 750 509 750 c 258
155 500 m 258
 510 500 l 258
 523 500 528 491 526 475 c 258
 454 24 l 258
 425 -163 324 -248 140 -248 c 256
 112 -248 71 -246 24 -237 c 256
 8 -234 3 -223 10 -207 c 258
 21 -181 l 258
 27 -165 38 -159 54 -162 c 256
 95 -170 130 -171 152 -171 c 256
 286 -171 348 -107 369 24 c 258
 433 424 l 257
 308 424 l 257
 244 25 l 258
 242 9 232 0 215 0 c 258
 180 0 l 258
 164 0 157 9 159 25 c 258
 223 424 l 257
 143 424 l 258
 127 424 119 433 122 449 c 258
 126 475 l 258
 128 492 139 500 155 500 c 258
EndSplineSet
PickledDataWithLists: "(dp0
Vcom.schriftgestaltung.Glyphs.lastChange
p1
V2016-06-09 18:35:33 +0000
p2
s."
EndChar

StartChar: infinity
Encoding: 8734 8734 261
GlifName: infinity
Width: 575
VWidth: 0
Flags: HW
LayerCount: 2
Fore
SplineSet
180 403 m 256
 229 403 266 373 292 315 c 257
 328 364 371 408 434 408 c 256
 499 408 536 363 536 289 c 256
 536 188 473 90 388 90 c 256
 340 90 302 123 274 187 c 257
 233 123 191 95 136 95 c 256
 76 95 40 139 40 210 c 256
 40 309 96 403 180 403 c 256
  PathStart: -2
111 213 m 256
 111 179 123 162 147 162 c 256
 182 162 218 195 255 262 c 257
 237 307 204 335 172 335 c 256
 126 335 111 262 111 213 c 256
  PathStart: -2
392 157 m 256
 445 157 465 228 465 284 c 256
 465 317 454 341 421 341 c 256
 384 341 350 310 309 242 c 257
 334 184 359 157 392 157 c 256
  PathStart: -1
EndSplineSet
PickledDataWithLists: "(dp0
Vcom.schriftgestaltung.Glyphs.lastChange
p1
V2015-12-22 14:13:58 +0000
p2
s."
EndChar

StartChar: integral
Encoding: 8747 8747 262
GlifName: integral
Width: 575
VWidth: 0
Flags: HW
LayerCount: 2
Fore
SplineSet
15 -150 m 256
 -1 -147 -5 -135 3 -119 c 258
 16 -93 l 257
 23 -78 35 -73 49 -77 c 256
 73 -82 97 -84 114 -84 c 256
 173 -83 196 -60 205 -1 c 258
 285 501 l 258
 302 613 363 660 474 660 c 256
 494 660 525 659 560 650 c 256
 577 647 581 635 572 619 c 258
 560 593 l 257
 552 578 541 573 526 577 c 256
 502 582 478 584 462 584 c 256
 402 583 379 560 370 501 c 258
 290 -1 l 258
 273 -113 213 -160 102 -160 c 256
 82 -160 50 -159 15 -150 c 256
  PathStart: -2
EndSplineSet
PickledDataWithLists: "(dp0
Vcom.schriftgestaltung.Glyphs.lastChange
p1
V2015-12-22 14:14:22 +0000
p2
s."
EndChar

StartChar: iota
Encoding: 953 953 264
GlifName: iota
Width: 575
VWidth: 0
Flags: HW
LayerCount: 2
Fore
SplineSet
405 57 m 257
 409 31 l 258
 413 16 405 4 387 0 c 256
 349 -9 318 -10 298 -10 c 256
 184 -10 142 40 159 150 c 257
 211 476 l 257
 212 493 224 501 240 501 c 258
 275 501 l 258
 291 501 298 493 296 476 c 258
 244 150 l 258
 235 91 250 68 310 67 c 256
 326 67 350 68 376 74 c 256
 393 77 402 72 405 57 c 257
EndSplineSet
PickledDataWithLists: "(dp0
Vcom.schriftgestaltung.Glyphs.lastChange
p1
V2015-12-22 12:32:48 +0000
p2
s."
EndChar

StartChar: j
Encoding: 106 106 265
GlifName: j
Width: 575
VWidth: 0
Flags: HW
LayerCount: 2
Fore
SplineSet
461 760 m 258
 526 760 l 258
 542 760 550 752 547 735 c 258
 536 669 l 258
 534 653 524 644 507 644 c 258
 442 644 l 258
 426 644 419 653 421 669 c 258
 432 735 l 258
 434 751 445 760 461 760 c 258
504 365 m 256
 504 345 502 324 498 300 c 258
 469 120 l 258
 436 -90 308 -160 182 -160 c 256
 131 -160 81 -150 37 -130 c 256
 23 -124 21 -112 29 -97 c 258
 43 -73 l 258
 51 -58 63 -53 77 -59 c 256
 119 -75 153 -82 194 -82 c 256
 283 -82 359 -36 383 120 c 258
 412 300 l 258
 415 319 417 336 417 351 c 256
 417 413 389 435 333 435 c 256
 309 435 281 431 248 425 c 256
 231 422 221 429 222 445 c 258
 221 473 l 258
 221 488 229 499 246 502 c 256
 283 508 317 512 348 512 c 256
 440 512 504 478 504 365 c 256
  PathStart: -1
EndSplineSet
PickledDataWithLists: "(dp0
Vcom.schriftgestaltung.Glyphs.lastChange
p1
V2016-06-09 18:35:33 +0000
p2
s."
EndChar

StartChar: k
Encoding: 107 107 267
GlifName: k
Width: 575
VWidth: 0
Flags: HW
AnchorPoint: "top" 330 550 basechar 0
AnchorPoint: "bottom" 250 0 basechar 0
LayerCount: 2
Fore
SplineSet
360 510 m 256
 452 510 487 465 478 407 c 256
 468 346 414 271 322 220 c 257
 467 31 l 257
 481 15 472 0 449 0 c 258
 391 0 l 258
 378 0 370 4 362 13 c 257
 219 203 l 257
 208 215 213 228 229 238 c 256
 324 295 379 355 384 392 c 257
 389 421 366 433 331 433 c 256
 290 433 238 417 197 396 c 257
 138 25 l 258
 136 9 125 0 109 0 c 258
 74 0 l 258
 58 0 51 9 53 25 c 258
 164 725 l 258
 167 741 177 750 193 750 c 258
 228 750 l 258
 244 750 252 741 249 725 c 258
 208 466 l 257
 256 494 310 510 360 510 c 256
EndSplineSet
PickledDataWithLists: "(dp0
Vcom.schriftgestaltung.Glyphs.lastChange
p1
V2016-06-09 18:35:33 +0000
p2
sVcom.typemytype.robofont.layerData
p3
(dp4
VRegular Italic Nov 30 14, 15:56
p5
(dp6
Vanchors
p7
(lp8
sVcomponents
p9
(lp10
sVcontours
p11
(lp12
(dp13
Vpoints
p14
(lp15
(dp16
VsegmentType
p17
Vline
p18
sVsmooth
p19
I01
sVx
p20
I170
sVy
p21
I725
sa(dp22
g19
I00
sg20
I170
sg21
I741
sa(dp23
g19
I00
sg20
I161
sg21
I750
sa(dp24
g17
Vcurve
p25
sg19
I01
sg20
I145
sg21
I750
sa(dp26
g17
Vline
p27
sg19
I01
sg20
I110
sg21
I750
sa(dp28
g19
I00
sg20
I94
sg21
I750
sa(dp29
g19
I00
sg20
I85
sg21
I741
sa(dp30
g17
Vcurve
p31
sg19
I01
sg20
I85
sg21
I725
sa(dp32
g17
Vline
p33
sg19
I01
sg20
I85
sg21
I25
sa(dp34
g19
I00
sg20
I85
sg21
I9
sa(dp35
g19
I00
sg20
I94
sg21
I0
sa(dp36
g17
Vcurve
p37
sg19
I01
sg20
I110
sg21
I0
sa(dp38
g17
Vline
p39
sg19
I01
sg20
I145
sg21
I0
sa(dp40
g19
I00
sg20
I161
sg21
I0
sa(dp41
g19
I00
sg20
I170
sg21
I9
sa(dp42
g17
Vcurve
p43
sg19
I01
sg20
I170
sg21
I25
sasa(dp44
g14
(lp45
(dp46
g17
Vline
p47
sg19
I00
sg20
I323
sg21
I220
sa(dp48
g19
I00
sg20
I407
sg21
I271
sa(dp49
g19
I00
sg20
I453
sg21
I346
sa(dp50
g17
Vcurve
p51
sg19
I01
sg20
I453
sg21
I407
sa(dp52
g19
I00
sg20
I453
sg21
I465
sa(dp53
g19
I00
sg20
I411
sg21
I510
sa(dp54
g17
Vcurve
p55
sg19
I01
sg20
I319
sg21
I510
sa(dp56
g19
I00
sg20
I260
sg21
I510
sa(dp57
g19
I00
sg20
I193
sg21
I488
sa(dp58
g17
Vcurve
p59
sg19
I00
sg20
I148
sg21
I450
sa(dp60
g17
Vline
p61
sg19
I00
sg20
I158
sg21
I389
sa(dp62
g19
I00
sg20
I196
sg21
I413
sa(dp63
g19
I00
sg20
I257
sg21
I433
sa(dp64
g17
Vcurve
p65
sg19
I01
sg20
I302
sg21
I433
sa(dp66
g19
I00
sg20
I337
sg21
I433
sa(dp67
g19
I00
sg20
I362
sg21
I421
sa(dp68
g17
Vcurve
p69
sg19
I01
sg20
I362
sg21
I392
sa(dp70
g19
I00
sg20
I362
sg21
I355
sa(dp71
g19
I00
sg20
I313
sg21
I295
sa(dp72
g17
Vcurve
p73
sg19
I01
sg20
I227
sg21
I238
sa(dp74
g19
I00
sg20
I212
sg21
I228
sa(dp75
g19
I00
sg20
I210
sg21
I215
sa(dp76
g17
Vcurve
p77
sg19
I01
sg20
I222
sg21
I203
sa(dp78
g17
Vline
p79
sg19
I01
sg20
I400
sg21
I13
sa(dp80
g19
I00
sg20
I409
sg21
I4
sa(dp81
g19
I00
sg20
I418
sg21
I0
sa(dp82
g17
Vcurve
p83
sg19
I01
sg20
I431
sg21
I0
sa(dp84
g17
Vline
p85
sg19
I01
sg20
I489
sg21
I0
sa(dp86
g19
I00
sg20
I512
sg21
I0
sa(dp87
g19
I00
sg20
I518
sg21
I15
sa(dp88
g17
Vcurve
p89
sg19
I01
sg20
I502
sg21
I31
sasasVlib
p90
(dp91
sVname
p92
Vk
p93
sVunicodes
p94
(lp95
sVwidth
p96
I575
sss."
EndChar

StartChar: kappa
Encoding: 954 954 268
GlifName: kappa
Width: 575
VWidth: 0
Flags: HW
LayerCount: 2
Fore
SplineSet
297 233 m 258
 467 31 l 258
 481 15 472 0 449 0 c 258
 391 0 l 258
 378 0 370 4 362 13 c 258
 194 214 l 258
 183 228 173 236 168 236 c 257
 134 25 l 258
 132 9 121 0 105 0 c 258
 70 0 l 258
 54 0 47 9 49 25 c 258
 121 476 l 258
 123 492 134 501 150 501 c 258
 185 501 l 258
 201 501 208 492 206 476 c 258
 176 285 l 257
 181 285 193 293 209 307 c 258
 418 487 l 258
 428 496 438 500 451 500 c 258
 509 500 l 258
 532 500 535 485 517 469 c 258
 306 287 l 258
 295 278 285 269 255 260 c 257
 282 251 290 242 297 233 c 258
EndSplineSet
PickledDataWithLists: "(dp0
Vcom.schriftgestaltung.Glyphs.lastChange
p1
V2015-12-22 12:33:21 +0000
p2
s."
EndChar

StartChar: l
Encoding: 108 108 269
GlifName: l
Width: 575
VWidth: 0
Flags: HW
AnchorPoint: "bottom" 248 0 basechar 0
AnchorPoint: "top" 328 700 basechar 0
AnchorPoint: "topright" 595 500 basechar 0
AnchorPoint: "center" 288 250 basechar 0
LayerCount: 2
Fore
SplineSet
455 57 m 257
 459 31 l 257
 463 16 455 4 437 0 c 256
 399 -9 368 -10 348 -10 c 256
 250 -10 205 27 205 107 c 256
 205 120 207 134 209 150 c 258
 280 600 l 258
 282 611 283 620 283 629 c 256
 283 667 263 682 215 683 c 256
 199 683 174 682 148 676 c 257
 132 673 123 678 119 693 c 257
 115 719 l 257
 112 734 120 746 137 750 c 256
 176 759 207 760 227 760 c 256
 324 760 369 724 369 645 c 256
 369 631 368 616 365 600 c 258
 294 150 l 258
 292 140 292 131 292 122 c 256
 292 84 310 68 360 67 c 256
 376 67 400 68 426 74 c 257
 443 77 452 72 455 57 c 257
EndSplineSet
PickledDataWithLists: "(dp0
Vcom.schriftgestaltung.Glyphs.lastChange
p1
V2016-06-09 18:35:33 +0000
p2
s."
EndChar

StartChar: lacute
Encoding: 314 314 270
GlifName: lacute
Width: 575
VWidth: 0
Flags: HW
AnchorPoint: "bottom" 248 0 basechar 0
AnchorPoint: "top" 328 700 basechar 0
AnchorPoint: "topright" 595 500 basechar 0
AnchorPoint: "center" 288 250 basechar 0
LayerCount: 2
Fore
SplineSet
455 57 m 257
 459 31 l 257
 463 16 455 4 437 0 c 256
 399 -9 368 -10 348 -10 c 256
 250 -10 205 27 205 107 c 256
 205 120 207 134 209 150 c 258
 272 555 l 258
 274 566 275 575 275 584 c 256
 275 622 255 638 207 638 c 256
 191 638 166 637 140 631 c 257
 124 628 115 633 111 648 c 257
 107 674 l 257
 104 689 112 701 129 705 c 256
 168 714 199 715 219 715 c 256
 316 715 361 679 361 600 c 256
 361 586 360 571 357 555 c 258
 294 150 l 258
 292 140 292 131 292 122 c 256
 292 84 310 68 360 67 c 256
 376 67 400 68 426 74 c 257
 443 77 452 72 455 57 c 257
EndSplineSet
Refer: 140 180 N 1 0 0 1 -22 200 2
PickledDataWithLists: "(dp0
Vcom.schriftgestaltung.Glyphs.lastChange
p1
V2016-06-09 18:35:33 +0000
p2
s."
EndChar

StartChar: lambda
Encoding: 955 955 271
GlifName: lambda
Width: 575
VWidth: 0
Flags: HW
LayerCount: 2
Fore
SplineSet
158 662 m 258
 161 678 171 687 187 687 c 256
 289 687 337 607 365 500 c 258
 488 29 l 258
 492 11 481 0 463 0 c 258
 426 0 l 258
 412 0 403 6 400 19 c 258
 308 392 l 257
 101 19 l 258
 94 6 83 0 69 0 c 258
 32 0 l 258
 14 0 7 11 17 29 c 258
 279 482 l 257
 253 577 220 613 175 613 c 256
 159 613 152 622 154 638 c 258
 158 662 l 258
  PathStart: -2
EndSplineSet
PickledDataWithLists: "(dp0
Vcom.schriftgestaltung.Glyphs.lastChange
p1
V2016-05-30 08:32:58 +0000
p2
s."
EndChar

StartChar: lcaron
Encoding: 318 318 272
GlifName: lcaron
Width: 575
VWidth: 0
Flags: HW
LayerCount: 2
Fore
SplineSet
455 57 m 257
 459 31 l 257
 463 16 455 4 437 0 c 256
 399 -9 368 -10 348 -10 c 256
 250 -10 205 27 205 107 c 256
 205 120 207 134 209 150 c 258
 272 555 l 258
 274 566 275 575 275 584 c 256
 275 622 255 638 207 638 c 256
 191 638 166 637 140 631 c 257
 124 628 115 633 111 648 c 257
 107 674 l 257
 104 689 112 701 129 705 c 256
 168 714 199 715 219 715 c 256
 316 715 361 679 361 600 c 256
 361 586 360 571 357 555 c 258
 294 150 l 258
 292 140 292 131 292 122 c 256
 292 84 310 68 360 67 c 256
 376 67 400 68 426 74 c 257
 443 77 452 72 455 57 c 257
EndSplineSet
Refer: 171 711 N 1 0 0 1 -30 200 2
PickledDataWithLists: "(dp0
Vcom.schriftgestaltung.Glyphs.lastChange
p1
V2016-06-09 18:35:33 +0000
p2
s."
EndChar

StartChar: lfblock
Encoding: 9612 9612 276
GlifName: lfblock
Width: 575
VWidth: 0
Flags: HW
LayerCount: 2
Fore
SplineSet
0 -250 m 257
 0 900 l 257
 287 900 l 257
 287 -250 l 257
 0 -250 l 257
EndSplineSet
PickledDataWithLists: "(dp0
Vcom.schriftgestaltung.Glyphs.lastChange
p1
V2016-06-10 08:26:49 +0000
p2
s."
EndChar

StartChar: logicalnot
Encoding: 172 172 277
GlifName: logicalnot
Width: 575
VWidth: 0
Flags: HW
LayerCount: 2
Fore
SplineSet
136 414 m 258
 491 414 l 258
 507 414 515 405 512 389 c 258
 474 150 l 258
 472 134 462 125 445 125 c 258
 410 125 l 258
 394 125 387 134 389 150 c 258
 419 337 l 257
 124 337 l 258
 108 337 100 346 103 362 c 258
 107 389 l 258
 110 405 120 414 136 414 c 258
EndSplineSet
PickledDataWithLists: "(dp0
Vcom.schriftgestaltung.Glyphs.lastChange
p1
V2015-12-22 14:15:53 +0000
p2
s."
EndChar

StartChar: lslash
Encoding: 322 322 278
GlifName: lslash
Width: 575
VWidth: 0
Flags: HW
LayerCount: 2
Fore
SplineSet
141 332 m 258
 409 512 l 258
 421 520 436 517 442 507 c 258
 457 484 l 258
 465 471 461 455 447 446 c 258
 180 267 l 258
 168 259 154 262 147 271 c 258
 130 294 l 258
 121 306 128 323 141 332 c 258
EndSplineSet
Refer: 269 108 N 1 0 0 1 0 0 2
PickledDataWithLists: "(dp0
Vcom.schriftgestaltung.Glyphs.lastChange
p1
V2016-06-09 18:35:33 +0000
p2
s."
EndChar

StartChar: ltshade
Encoding: 9617 9617 279
GlifName: ltshade
Width: 575
VWidth: 0
Flags: HW
LayerCount: 2
Fore
SplineSet
0 -250 m 257
 0 -194 l 257
 28 -250 l 257
 0 -250 l 257
287 -250 m 257
 0 324 l 257
 0 380 l 257
 315 -250 l 257
 287 -250 l 257
575 -250 m 257
 0 900 l 257
 28 900 l 257
 575 -194 l 257
 575 -250 l 257
575 324 m 257
 287 900 l 257
 315 900 l 257
 575 380 l 257
 575 324 l 257
EndSplineSet
PickledDataWithLists: "(dp0
Vcom.schriftgestaltung.Glyphs.lastChange
p1
V2016-06-10 08:26:49 +0000
p2
s."
EndChar

StartChar: m
Encoding: 109 109 280
GlifName: m
Width: 575
VWidth: 0
Flags: HW
AnchorPoint: "top" 328 550 basechar 0
AnchorPoint: "bottom" 255 0 basechar 0
LayerCount: 2
Fore
SplineSet
172 475 m 257
 166 437 l 257
 222 481 269 507 301 507 c 256
 332 507 350 483 351 430 c 257
 412 478 462 507 496 507 c 256
 540 507 557 460 540 348 c 258
 488 25 l 258
 486 9 476 0 459 0 c 258
 424 0 l 258
 408 0 401 9 403 25 c 258
 456 358 l 258
 462 398 462 418 447 418 c 256
 431 418 400 398 346 357 c 257
 324 210 l 258
 322 194 312 185 295 185 c 258
 260 185 l 258
 244 185 237 194 239 210 c 258
 261 358 l 258
 267 398 267 418 252 418 c 256
 236 418 207 399 153 359 c 257
 100 25 l 258
 98 9 87 0 71 0 c 258
 36 0 l 258
 20 0 13 9 15 25 c 258
 86 470 l 258
 88 486 98 500 114 500 c 258
 151 500 l 258
 167 500 174 491 172 475 c 257
EndSplineSet
PickledDataWithLists: "(dp0
Vcom.schriftgestaltung.Glyphs.lastChange
p1
V2016-06-09 18:35:33 +0000
p2
sVcom.typemytype.robofont.layerData
p3
(dp4
Vbackground
p5
(dp6
Vanchors
p7
(lp8
sVcomponents
p9
(lp10
sVcontours
p11
(lp12
(dp13
Vpoints
p14
(lp15
(dp16
VsegmentType
p17
Vline
p18
sVsmooth
p19
I01
sVx
p20
I51
sVy
p21
I25
sa(dp22
g19
I00
sg20
I51
sg21
I9
sa(dp23
g19
I00
sg20
I60
sg21
I0
sa(dp24
g17
Vcurve
p25
sg19
I01
sg20
I76
sg21
I0
sa(dp26
g17
Vline
p27
sg19
I01
sg20
I111
sg21
I0
sa(dp28
g19
I00
sg20
I128
sg21
I0
sa(dp29
g19
I00
sg20
I136
sg21
I9
sa(dp30
g17
Vcurve
p31
sg19
I01
sg20
I136
sg21
I25
sa(dp32
g17
Vline
p33
sg19
I00
sg20
I136
sg21
I427
sa(dp34
g19
I00
sg20
I175
sg21
I429
sa(dp35
g19
I00
sg20
I212
sg21
I431
sa(dp36
g17
Vcurve
p37
sg19
I00
sg20
I245
sg21
I432
sa(dp38
g17
Vline
p39
sg19
I01
sg20
I245
sg21
I25
sa(dp40
g19
I00
sg20
I245
sg21
I9
sa(dp41
g19
I00
sg20
I254
sg21
I0
sa(dp42
g17
Vcurve
p43
sg19
I01
sg20
I270
sg21
I0
sa(dp44
g17
Vline
p45
sg19
I01
sg20
I305
sg21
I0
sa(dp46
g19
I00
sg20
I322
sg21
I0
sa(dp47
g19
I00
sg20
I330
sg21
I9
sa(dp48
g17
Vcurve
p49
sg19
I01
sg20
I330
sg21
I25
sa(dp50
g17
Vline
p51
sg19
I00
sg20
I330
sg21
I434
sa(dp52
g17
Vline
p53
sg19
I01
sg20
I356
sg21
I434
sa(dp54
g19
I00
sg20
I418
sg21
I434
sa(dp55
g19
I00
sg20
I439
sg21
I413
sa(dp56
g17
Vcurve
p57
sg19
I01
sg20
I439
sg21
I352
sa(dp58
g17
Vline
p59
sg19
I01
sg20
I439
sg21
I25
sa(dp60
g19
I00
sg20
I439
sg21
I9
sa(dp61
g19
I00
sg20
I448
sg21
I0
sa(dp62
g17
Vcurve
p63
sg19
I01
sg20
I464
sg21
I0
sa(dp64
g17
Vline
p65
sg19
I01
sg20
I499
sg21
I0
sa(dp66
g19
I00
sg20
I515
sg21
I0
sa(dp67
g19
I00
sg20
I524
sg21
I9
sa(dp68
g17
Vcurve
p69
sg19
I01
sg20
I524
sg21
I25
sa(dp70
g17
Vline
p71
sg19
I01
sg20
I524
sg21
I352
sa(dp72
g19
I00
sg20
I524
sg21
I468
sa(dp73
g19
I00
sg20
I477
sg21
I510
sa(dp74
g17
Vcurve
p75
sg19
I01
sg20
I356
sg21
I510
sa(dp76
g19
I00
sg20
I303
sg21
I510
sa(dp77
g19
I00
sg20
I195
sg21
I508
sa(dp78
g17
Vcurve
p79
sg19
I01
sg20
I75
sg21
I496
sa(dp80
g19
I00
sg20
I59
sg21
I494
sa(dp81
g19
I00
sg20
I51
sg21
I485
sa(dp82
g17
Vcurve
p83
sg19
I01
sg20
I51
sg21
I470
sasasVlib
p84
(dp85
sVname
p86
Vm
p87
sVunicodes
p88
(lp89
sVwidth
p90
I575
sss."
EndChar

StartChar: macron
Encoding: 175 175 281
GlifName: macron
Width: 575
VWidth: 0
Flags: HW
AnchorPoint: "top" 328 500 mark 0
LayerCount: 2
Fore
SplineSet
237 649 m 258
 241 675 l 258
 244 691 254 700 270 700 c 258
 508 700 l 258
 524 700 532 691 529 675 c 258
 525 648 l 258
 523 632 512 624 496 624 c 258
 258 624 l 258
 242 624 235 632 237 649 c 258
EndSplineSet
PickledDataWithLists: "(dp0
Vcom.schriftgestaltung.Glyphs.lastChange
p1
V2015-12-22 16:32:42 +0000
p2
s."
EndChar

StartChar: multiply
Encoding: 215 215 283
GlifName: multiply
Width: 575
VWidth: 0
Flags: HW
LayerCount: 2
Fore
SplineSet
340 262 m 257
 475 44 l 258
 483 31 479 18 465 9 c 258
 436 -10 l 258
 420 -19 409 -17 402 -4 c 258
 279 196 l 257
 94 -4 l 258
 82 -17 69 -19 58 -10 c 258
 35 9 l 258
 22 18 22 31 34 44 c 258
 238 263 l 257
 120 457 l 258
 112 470 116 482 131 492 c 258
 160 510 l 258
 175 519 187 517 194 504 c 258
 300 329 l 257
 461 504 l 258
 473 517 486 519 497 510 c 258
 521 492 l 258
 533 482 533 470 521 457 c 258
 340 262 l 257
EndSplineSet
PickledDataWithLists: "(dp0
Vcom.schriftgestaltung.Glyphs.lastChange
p1
V2015-12-22 14:16:31 +0000
p2
s."
EndChar

StartChar: n
Encoding: 110 110 284
GlifName: n
Width: 575
VWidth: 0
Flags: HW
AnchorPoint: "top" 328 550 basechar 0
AnchorPoint: "bottom" 248 0 basechar 0
LayerCount: 2
Fore
SplineSet
210 475 m 258
 204 437 l 257
 256 485 311 510 362 510 c 256
 452 510 521 469 490 278 c 258
 450 25 l 258
 448 9 438 0 421 0 c 258
 386 0 l 258
 370 0 363 9 365 25 c 258
 405 278 l 258
 427 414 390 434 332 434 c 256
 291 434 243 405 190 349 c 257
 138 25 l 258
 136 9 125 0 109 0 c 258
 74 0 l 258
 58 0 51 9 53 25 c 258
 124 470 l 258
 126 486 136 500 152 500 c 258
 189 500 l 258
 205 500 212 491 210 475 c 258
EndSplineSet
PickledDataWithLists: "(dp0
Vcom.schriftgestaltung.Glyphs.lastChange
p1
V2016-06-09 18:35:33 +0000
p2
sVcom.typemytype.robofont.layerData
p3
(dp4
VRegular Italic Dec 4 14, 09:47
p5
(dp6
Vanchors
p7
(lp8
sVcomponents
p9
(lp10
sVcontours
p11
(lp12
(dp13
Vpoints
p14
(lp15
(dp16
VsegmentType
p17
Vline
p18
sVsmooth
p19
I01
sVx
p20
I206
sVy
p21
I475
sa(dp22
g19
I00
sg20
I208
sg21
I491
sa(dp23
g19
I00
sg20
I201
sg21
I500
sa(dp24
g17
Vcurve
p25
sg19
I01
sg20
I185
sg21
I500
sa(dp26
g17
Vline
p27
sg19
I01
sg20
I148
sg21
I500
sa(dp28
g19
I00
sg20
I132
sg21
I500
sa(dp29
g19
I00
sg20
I122
sg21
I486
sa(dp30
g17
Vcurve
p31
sg19
I01
sg20
I120
sg21
I470
sa(dp32
g17
Vline
p33
sg19
I01
sg20
I49
sg21
I25
sa(dp34
g19
I00
sg20
I47
sg21
I9
sa(dp35
g19
I00
sg20
I54
sg21
I0
sa(dp36
g17
Vcurve
p37
sg19
I01
sg20
I70
sg21
I0
sa(dp38
g17
Vline
p39
sg19
I01
sg20
I105
sg21
I0
sa(dp40
g19
I00
sg20
I121
sg21
I0
sa(dp41
g19
I00
sg20
I132
sg21
I9
sa(dp42
g17
Vcurve
p43
sg19
I01
sg20
I134
sg21
I25
sa(dp44
g17
Vline
p45
sg19
I00
sg20
I186
sg21
I349
sa(dp46
g19
I00
sg20
I239
sg21
I405
sa(dp47
g19
I00
sg20
I291
sg21
I434
sa(dp48
g17
Vcurve
p49
sg19
I01
sg20
I332
sg21
I434
sa(dp50
g19
I00
sg20
I390
sg21
I434
sa(dp51
g19
I00
sg20
I431
sg21
I414
sa(dp52
g17
Vcurve
p53
sg19
I01
sg20
I409
sg21
I278
sa(dp54
g17
Vline
p55
sg19
I01
sg20
I369
sg21
I25
sa(dp56
g19
I00
sg20
I367
sg21
I9
sa(dp57
g19
I00
sg20
I374
sg21
I0
sa(dp58
g17
Vcurve
p59
sg19
I01
sg20
I390
sg21
I0
sa(dp60
g17
Vline
p61
sg19
I01
sg20
I425
sg21
I0
sa(dp62
g19
I00
sg20
I442
sg21
I0
sa(dp63
g19
I00
sg20
I452
sg21
I9
sa(dp64
g17
Vcurve
p65
sg19
I01
sg20
I454
sg21
I25
sa(dp66
g17
Vline
p67
sg19
I01
sg20
I494
sg21
I278
sa(dp68
g19
I00
sg20
I525
sg21
I469
sa(dp69
g19
I00
sg20
I452
sg21
I510
sa(dp70
g17
Vcurve
p71
sg19
I01
sg20
I362
sg21
I510
sa(dp72
g19
I00
sg20
I311
sg21
I510
sa(dp73
g19
I00
sg20
I252
sg21
I485
sa(dp74
g17
Vcurve
p75
sg19
I00
sg20
I200
sg21
I437
sasasVlib
p76
(dp77
sVname
p78
Vn
p79
sVunicodes
p80
(lp81
sVwidth
p82
I575
ssVRegular Italic Nov 30 14, 14:35
p83
(dp84
g7
(lp85
sg9
(lp86
sg11
(lp87
(dp88
g14
(lp89
(dp90
g17
Vline
p91
sg19
I01
sg20
I170
sg21
I475
sa(dp92
g19
I00
sg20
I170
sg21
I491
sa(dp93
g19
I00
sg20
I161
sg21
I500
sa(dp94
g17
Vcurve
p95
sg19
I01
sg20
I145
sg21
I500
sa(dp96
g17
Vline
p97
sg19
I01
sg20
I108
sg21
I500
sa(dp98
g19
I00
sg20
I92
sg21
I500
sa(dp99
g19
I00
sg20
I85
sg21
I486
sa(dp100
g17
Vcurve
p101
sg19
I01
sg20
I85
sg21
I470
sa(dp102
g17
Vline
p103
sg19
I01
sg20
I85
sg21
I25
sa(dp104
g19
I00
sg20
I85
sg21
I9
sa(dp105
g19
I00
sg20
I94
sg21
I0
sa(dp106
g17
Vcurve
p107
sg19
I01
sg20
I110
sg21
I0
sa(dp108
g17
Vline
p109
sg19
I01
sg20
I145
sg21
I0
sa(dp110
g19
I00
sg20
I161
sg21
I0
sa(dp111
g19
I00
sg20
I170
sg21
I9
sa(dp112
g17
Vcurve
p113
sg19
I01
sg20
I170
sg21
I25
sa(dp114
g17
Vline
p115
sg19
I00
sg20
I170
sg21
I349
sa(dp116
g19
I00
sg20
I214
sg21
I405
sa(dp117
g19
I00
sg20
I262
sg21
I434
sa(dp118
g17
Vcurve
p119
sg19
I01
sg20
I303
sg21
I434
sa(dp120
g19
I00
sg20
I361
sg21
I434
sa(dp121
g19
I00
sg20
I405
sg21
I414
sa(dp122
g17
Vcurve
p123
sg19
I01
sg20
I405
sg21
I278
sa(dp124
g17
Vline
p125
sg19
I01
sg20
I405
sg21
I25
sa(dp126
g19
I00
sg20
I405
sg21
I9
sa(dp127
g19
I00
sg20
I414
sg21
I0
sa(dp128
g17
Vcurve
p129
sg19
I01
sg20
I430
sg21
I0
sa(dp130
g17
Vline
p131
sg19
I01
sg20
I465
sg21
I0
sa(dp132
g19
I00
sg20
I482
sg21
I0
sa(dp133
g19
I00
sg20
I490
sg21
I9
sa(dp134
g17
Vcurve
p135
sg19
I01
sg20
I490
sg21
I25
sa(dp136
g17
Vline
p137
sg19
I01
sg20
I490
sg21
I278
sa(dp138
g19
I00
sg20
I490
sg21
I469
sa(dp139
g19
I00
sg20
I411
sg21
I510
sa(dp140
g17
Vcurve
p141
sg19
I01
sg20
I321
sg21
I510
sa(dp142
g19
I00
sg20
I270
sg21
I510
sa(dp143
g19
I00
sg20
I215
sg21
I485
sa(dp144
g17
Vcurve
p145
sg19
I00
sg20
I170
sg21
I437
sasasg76
(dp146
sg78
g79
sg80
(lp147
sg82
I600
ssVbackground
p148
(dp149
g7
(lp150
sg9
(lp151
sg11
(lp152
(dp153
g14
(lp154
(dp155
g17
Vline
p156
sg19
I01
sg20
I207
sg21
I644
sa(dp157
g19
I00
sg20
I224
sg21
I644
sa(dp158
g19
I00
sg20
I234
sg21
I653
sa(dp159
g17
Vcurve
p160
sg19
I01
sg20
I236
sg21
I669
sa(dp161
g17
Vline
p162
sg19
I01
sg20
I247
sg21
I735
sa(dp163
g19
I00
sg20
I250
sg21
I752
sa(dp164
g19
I00
sg20
I242
sg21
I760
sa(dp165
g17
Vcurve
p166
sg19
I01
sg20
I226
sg21
I760
sa(dp167
g17
Vline
p168
sg19
I01
sg20
I161
sg21
I760
sa(dp169
g19
I00
sg20
I145
sg21
I760
sa(dp170
g19
I00
sg20
I134
sg21
I751
sa(dp171
g17
Vcurve
p172
sg19
I01
sg20
I132
sg21
I735
sa(dp173
g17
Vline
p174
sg19
I01
sg20
I121
sg21
I669
sa(dp175
g19
I00
sg20
I119
sg21
I653
sa(dp176
g19
I00
sg20
I126
sg21
I644
sa(dp177
g17
Vcurve
p178
sg19
I01
sg20
I142
sg21
I644
sasa(dp179
g14
(lp180
(dp181
g17
Vline
p182
sg19
I00
sg20
I295
sg21
I57
sa(dp183
g19
I00
sg20
I292
sg21
I72
sa(dp184
g19
I00
sg20
I283
sg21
I77
sa(dp185
g17
Vcurve
p186
sg19
I00
sg20
I266
sg21
I74
sa(dp187
g19
I00
sg20
I240
sg21
I68
sa(dp188
g19
I00
sg20
I216
sg21
I67
sa(dp189
g17
Vcurve
p190
sg19
I01
sg20
I200
sg21
I67
sa(dp191
g19
I00
sg20
I150
sg21
I68
sa(dp192
g19
I00
sg20
I137
sg21
I93
sa(dp193
g17
Vcurve
p194
sg19
I01
sg20
I149
sg21
I150
sa(dp195
g17
Vline
p196
sg19
I01
sg20
I191
sg21
I350
sa(dp197
g19
I00
sg20
I214
sg21
I458
sa(dp198
g19
I00
sg20
I171
sg21
I510
sa(dp199
g17
Vcurve
p200
sg19
I01
sg20
I67
sg21
I510
sa(dp201
g19
I00
sg20
I47
sg21
I510
sa(dp202
g19
I00
sg20
I16
sg21
I509
sa(dp203
g17
Vcurve
p204
sg19
I01
sg20
I-22
sg21
I500
sa(dp205
g19
I00
sg20
I-40
sg21
I496
sa(dp206
g19
I00
sg20
I-48
sg21
I484
sa(dp207
g17
Vcurve
p208
sg19
I00
sg20
I-44
sg21
I469
sa(dp209
g17
Vline
p210
sg19
I00
sg20
I-40
sg21
I443
sa(dp211
g19
I00
sg20
I-37
sg21
I428
sa(dp212
g19
I00
sg20
I-28
sg21
I423
sa(dp213
g17
Vcurve
p214
sg19
I00
sg20
I-11
sg21
I426
sa(dp215
g19
I00
sg20
I15
sg21
I432
sa(dp216
g19
I00
sg20
I39
sg21
I433
sa(dp217
g17
Vcurve
p218
sg19
I01
sg20
I55
sg21
I433
sa(dp219
g19
I00
sg20
I105
sg21
I432
sa(dp220
g19
I00
sg20
I118
sg21
I407
sa(dp221
g17
Vcurve
p222
sg19
I01
sg20
I106
sg21
I350
sa(dp223
g17
Vline
p224
sg19
I01
sg20
I64
sg21
I150
sa(dp225
g19
I00
sg20
I41
sg21
I42
sa(dp226
g19
I00
sg20
I84
sg21
I-10
sa(dp227
g17
Vcurve
p228
sg19
I01
sg20
I188
sg21
I-10
sa(dp229
g19
I00
sg20
I208
sg21
I-10
sa(dp230
g19
I00
sg20
I239
sg21
I-9
sa(dp231
g17
Vcurve
p232
sg19
I01
sg20
I277
sg21
I0
sa(dp233
g19
I00
sg20
I295
sg21
I4
sa(dp234
g19
I00
sg20
I303
sg21
I16
sa(dp235
g17
Vcurve
p236
sg19
I00
sg20
I299
sg21
I31
sasasg76
(dp237
sg78
g79
sg80
(lp238
sg82
I575
sss."
EndChar

StartChar: nine.dnom
Encoding: 65570 -1 288
GlifName: nine.dnom
Width: 250
VWidth: 0
Flags: HW
LayerCount: 2
Fore
SplineSet
11 18 m 258
 16 32 l 258
 21 44 35 52 48 50 c 257
 60 47 70 46 82 46 c 256
 121 46 155 67 176 152 c 257
 153 146 129 143 108 143 c 256
 42 143 6 186 16 250 c 256
 28 325 77 367 154 367 c 256
 236 367 271 308 254 202 c 256
 228 38 154 -13 72 -13 c 256
 57 -13 41 -12 25 -9 c 257
 13 -6 6 6 11 18 c 258
188 215 m 257
 197 284 181 308 144 308 c 256
 106 308 90 294 83 250 c 256
 78 220 92 202 117 202 c 256
 139 202 161 206 188 215 c 257
  PathStart: -2
EndSplineSet
PickledDataWithLists: "(dp0
Vcom.schriftgestaltung.Glyphs.Export
p1
I00
sVcom.schriftgestaltung.Glyphs.lastChange
p2
V2015-12-22 13:07:35 +0000
p3
s."
EndChar

StartChar: nine.hex
Encoding: 65571 -1 289
GlifName: nine.hex
Width: 575
VWidth: 0
Flags: HW
LayerCount: 2
Fore
SplineSet
214 875 m 258
 214 829 l 258
 214 812 205 804 189 804 c 258
 154 804 l 258
 137 804 129 813 129 829 c 258
 129 875 l 258
 129 891 138 900 154 900 c 258
 189 900 l 258
 205 900 214 891 214 875 c 258
646 875 m 258
 646 829 l 258
 646 812 637 804 621 804 c 258
 586 804 l 258
 569 804 561 813 561 829 c 258
 561 875 l 258
 561 891 570 900 586 900 c 258
 621 900 l 258
 637 900 646 891 646 875 c 258
EndSplineSet
Refer: 287 57 N 1 0 0 1 0 0 2
PickledDataWithLists: "(dp0
Vcom.schriftgestaltung.Glyphs.lastChange
p1
V2016-02-10 13:40:56 +0000
p2
s."
EndChar

StartChar: notequal
Encoding: 8800 8800 291
GlifName: notequal
Width: 575
VWidth: 0
Flags: HW
LayerCount: 2
Fore
SplineSet
424 404 m 257
 523 404 l 258
 540 404 547 395 544 379 c 257
 540 352 l 258
 538 336 528 327 511 327 c 258
 374 327 l 257
 273 174 l 257
 487 174 l 258
 504 174 511 165 508 149 c 257
 504 122 l 257
 501 106 492 97 475 97 c 258
 223 97 l 257
 118 -62 l 258
 110 -74 100 -80 86 -80 c 258
 44 -80 l 258
 25 -80 20 -68 30 -51 c 257
 127 97 l 257
 52 97 l 258
 36 97 28 106 31 122 c 258
 35 148 l 258
 38 165 48 174 64 174 c 258
 178 174 l 257
 279 327 l 257
 88 327 l 258
 72 327 65 336 67 352 c 258
 71 378 l 258
 74 395 84 404 100 404 c 258
 329 404 l 257
 433 562 l 258
 441 574 452 580 466 580 c 258
 507 580 l 258
 527 580 532 568 521 551 c 258
 424 404 l 257
EndSplineSet
PickledDataWithLists: "(dp0
Vcom.schriftgestaltung.Glyphs.lastChange
p1
V2015-12-22 14:16:56 +0000
p2
s."
EndChar

StartChar: numbersign
Encoding: 35 35 294
GlifName: numbersign
Width: 575
VWidth: 0
Flags: HW
LayerCount: 2
Fore
SplineSet
436 270 m 257
 502 270 l 258
 518 270 526 261 523 245 c 258
 519 218 l 258
 516 202 506 193 490 193 c 258
 424 193 l 257
 397 25 l 258
 395 9 384 0 368 0 c 258
 333 0 l 258
 316 0 310 9 312 25 c 258
 339 193 l 257
 219 193 l 257
 192 25 l 258
 190 9 179 0 163 0 c 258
 128 0 l 258
 112 0 105 9 107 25 c 258
 134 193 l 257
 67 193 l 258
 51 193 43 202 46 218 c 258
 50 244 l 258
 53 261 63 270 79 270 c 258
 146 270 l 257
 171 424 l 257
 104 424 l 258
 88 424 80 433 83 449 c 258
 87 475 l 258
 89 492 100 501 116 501 c 258
 183 501 l 257
 210 675 l 258
 213 691 223 700 239 700 c 258
 274 700 l 258
 290 700 298 692 295 675 c 258
 268 501 l 257
 388 501 l 257
 415 675 l 258
 418 691 427 700 444 700 c 258
 479 700 l 258
 495 700 503 692 500 675 c 258
 473 501 l 257
 539 501 l 258
 555 501 562 492 560 476 c 258
 556 449 l 258
 553 433 543 424 527 424 c 258
 461 424 l 257
 436 270 l 257
256 424 m 257
 231 270 l 257
 351 270 l 257
 376 424 l 257
 256 424 l 257
EndSplineSet
PickledDataWithLists: "(dp0
Vcom.schriftgestaltung.Glyphs.lastChange
p1
V2015-12-23 09:14:39 +0000
p2
s."
EndChar

StartChar: o
Encoding: 111 111 295
GlifName: o
Width: 575
VWidth: 0
Flags: HW
AnchorPoint: "bottom" 248 0 basechar 0
AnchorPoint: "ogonek" 477 10 basechar 0
AnchorPoint: "top" 328 550 basechar 0
AnchorPoint: "topright" 595 500 basechar 0
AnchorPoint: "center" 288 250 basechar 0
LayerCount: 2
Fore
SplineSet
72 189 m 256
 72 347 171 512 332 512 c 256
 426 512 503 452 503 315 c 256
 503 155 410 -12 250 -12 c 256
 155 -12 72 49 72 189 c 256
  PathStart: -2
158 200 m 256
 158 111 201 65 259 65 c 256
 359 65 417 200 417 300 c 256
 417 390 375 435 317 435 c 256
 216 435 158 300 158 200 c 256
  PathStart: -2
EndSplineSet
PickledDataWithLists: "(dp0
Vcom.schriftgestaltung.Glyphs.lastChange
p1
V2016-06-09 18:35:33 +0000
p2
s."
EndChar

StartChar: oe
Encoding: 339 339 299
GlifName: oe
Width: 575
VWidth: 0
Flags: HW
LayerCount: 2
Fore
SplineSet
456 57 m 258
 458 31 l 258
 460 15 451 4 434 1 c 256
 391 -6 362 -10 350 -10 c 256
 311 -10 283 8 270 67 c 257
 239 7 206 -12 169 -12 c 256
 107 -12 75 42 75 141 c 256
 75 297 132 512 257 512 c 256
 291 512 317 494 329 442 c 257
 357 493 389 510 424 510 c 256
 488 510 521 459 521 363 c 256
 521 330 518 297 510 247 c 256
 507 231 497 222 481 222 c 258
 336 222 l 257
 321 122 330 67 362 67 c 256
 367 67 391 70 429 76 c 256
 446 79 455 73 456 57 c 258
159 133 m 256
 159 89 167 65 183 65 c 256
 233 65 266 286 266 368 c 256
 266 412 258 435 242 435 c 256
 192 435 159 214 159 133 c 256
  PathStart: -2
349 299 m 257
 433 299 l 257
 443 386 435 434 412 434 c 256
 389 434 368 386 349 299 c 257
EndSplineSet
PickledDataWithLists: "(dp0
Vcom.schriftgestaltung.Glyphs.lastChange
p1
V2016-06-09 18:35:34 +0000
p2
s."
EndChar

StartChar: ogonek
Encoding: 731 731 300
GlifName: ogonek
Width: 575
VWidth: 0
Flags: HW
AnchorPoint: "ogonek" 314 5 mark 0
LayerCount: 2
Fore
SplineSet
251 28 m 256
 264 36 273 37 283 34 c 256
 291 30 293 21 286 6 c 256
 279 -14 271 -37 268 -53 c 256
 260 -105 267 -131 281 -152 c 256
 289 -165 289 -176 276 -188 c 258
 251 -211 l 258
 239 -223 226 -224 216 -212 c 256
 187 -177 171 -131 178 -83 c 256
 183 -53 191 -13 251 28 c 256
  PathStart: -2
EndSplineSet
PickledDataWithLists: "(dp0
Vcom.schriftgestaltung.Glyphs.lastChange
p1
V2015-12-22 16:32:43 +0000
p2
s."
EndChar

StartChar: omega
Encoding: 969 969 304
GlifName: omega
Width: 575
VWidth: 0
Flags: HW
LayerCount: 2
Fore
SplineSet
456 453 m 257
 473 484 l 258
 480 498 492 505 507 500 c 257
 545 484 563 449 563 391 c 256
 563 373 562 353 558 330 c 258
 532 170 l 258
 512 43 460 -10 354 -10 c 256
 302 -10 269 7 257 55 c 257
 229 7 191 -10 139 -10 c 256
 52 -10 12 26 12 110 c 256
 12 128 14 148 17 170 c 258
 43 330 l 258
 58 425 90 479 148 500 c 257
 163 505 173 498 176 484 c 258
 183 453 l 257
 186 438 179 431 166 421 c 256
 147 406 135 377 128 330 c 258
 102 170 l 258
 100 154 98 141 98 129 c 256
 98 86 115 67 151 67 c 256
 197 67 221 97 232 170 c 258
 254 305 l 258
 256 321 267 330 283 330 c 258
 318 330 l 258
 334 330 341 321 339 305 c 258
 317 170 l 258
 306 97 320 67 366 67 c 256
 412 67 436 97 447 170 c 258
 473 330 l 258
 480 377 478 406 463 421 c 256
 454 431 449 438 456 453 c 257
EndSplineSet
PickledDataWithLists: "(dp0
Vcom.schriftgestaltung.Glyphs.lastChange
p1
V2015-12-22 12:55:46 +0000
p2
s."
EndChar

StartChar: one
Encoding: 49 49 306
GlifName: one
Width: 575
VWidth: 0
Flags: HW
LayerCount: 2
Fore
SplineSet
335 77 m 257
 438 77 l 258
 455 77 461 68 459 52 c 258
 454 25 l 258
 452 9 442 0 425 0 c 258
 70 0 l 258
 54 0 47 9 49 25 c 258
 54 52 l 258
 56 68 67 77 83 77 c 258
 250 77 l 257
 320 520 l 257
 153 520 l 258
 137 520 129 529 132 545 c 258
 136 572 l 258
 139 588 149 597 165 597 c 256
 263 597 320 618 357 680 c 256
 365 694 375 700 389 700 c 258
 408 700 l 258
 424 700 432 691 429 675 c 258
 335 77 l 257
EndSplineSet
PickledDataWithLists: "(dp0
Vcom.schriftgestaltung.Glyphs.lastChange
p1
V2015-12-22 20:51:40 +0000
p2
s."
EndChar

StartChar: one.dnom
Encoding: 65573 -1 307
GlifName: one.dnom
Width: 250
VWidth: 0
Flags: HW
LayerCount: 2
Fore
SplineSet
161 49 m 257
 201 49 l 257
 216 49 223 37 222 26 c 257
 219 13 l 257
 218 2 206 -10 192 -10 c 257
 14 -10 l 257
 -1 -10 -8 2 -7 13 c 257
 -4 26 l 257
 -3 37 9 49 23 49 c 257
 95 49 l 257
 127 250 l 257
 55 250 l 257
 41 250 33 262 35 273 c 257
 37 286 l 257
 38 297 50 309 64 309 c 257
 111 309 132 316 149 344 c 257
 154 353 165 360 176 360 c 257
 186 360 l 257
 200 360 209 350 207 338 c 257
 161 49 l 257
EndSplineSet
PickledDataWithLists: "(dp0
Vcom.schriftgestaltung.Glyphs.Export
p1
I00
sVcom.schriftgestaltung.Glyphs.lastChange
p2
V2015-12-22 13:04:47 +0000
p3
s."
EndChar

StartChar: one.hex
Encoding: 65574 -1 308
GlifName: one.hex
Width: 575
VWidth: 0
Flags: HW
LayerCount: 2
Fore
SplineSet
646 875 m 258
 646 829 l 258
 646 812 637 804 621 804 c 258
 586 804 l 258
 569 804 561 813 561 829 c 258
 561 875 l 258
 561 891 570 900 586 900 c 258
 621 900 l 258
 637 900 646 891 646 875 c 258
EndSplineSet
Refer: 306 49 N 1 0 0 1 0 0 2
PickledDataWithLists: "(dp0
Vcom.schriftgestaltung.Glyphs.lastChange
p1
V2016-02-10 13:18:28 +0000
p2
s."
EndChar

StartChar: onedotenleader
Encoding: 8228 8228 310
GlifName: onedotenleader
Width: 575
VWidth: 0
Flags: HW
LayerCount: 2
Fore
SplineSet
174 25 m 258
 188 112 l 258
 191 129 201 137 217 137 c 258
 322 137 l 258
 339 137 346 129 343 112 c 258
 329 25 l 258
 327 9 317 0 300 0 c 258
 195 0 l 258
 179 0 172 9 174 25 c 258
EndSplineSet
PickledDataWithLists: "(dp0
Vcom.schriftgestaltung.Glyphs.lastChange
p1
V2015-12-23 09:15:15 +0000
p2
s."
EndChar

StartChar: ordfeminine
Encoding: 170 170 314
GlifName: ordfeminine
Width: 575
VWidth: 0
Flags: HW
LayerCount: 2
Fore
SplineSet
488 695 m 258
 443 401 l 257
 439 384 428 373 415 373 c 258
 390 373 l 258
 373 373 363 385 366 402 c 257
 366 401 l 257
 336 379 302 367 271 367 c 256
 205 367 171 416 171 509 c 256
 171 651 243 733 368 733 c 256
 387 733 424 732 465 727 c 257
 466 727 l 258
 482 724 491 712 488 695 c 258
380 489 m 257
 407 661 l 257
 387 662 370 663 360 663 c 256
 288 663 249 613 249 519 c 256
 249 460 262 437 291 437 c 256
 316 437 348 455 380 489 c 257
EndSplineSet
PickledDataWithLists: "(dp0
Vcom.schriftgestaltung.Glyphs.lastChange
p1
V2016-06-09 18:35:34 +0000
p2
s."
EndChar

StartChar: ordmasculine
Encoding: 186 186 315
GlifName: ordmasculine
Width: 575
VWidth: 0
Flags: HW
AnchorPoint: "bottom" 261 83 basechar 0
AnchorPoint: "ogonek" 414 90 basechar 0
AnchorPoint: "top" 315 450 basechar 0
AnchorPoint: "topright" 493 417 basechar 0
AnchorPoint: "center" 288 250 basechar 0
LayerCount: 2
Fore
SplineSet
201 489 m 256
 201 616 277 715 379 715 c 256
 455 715 499 662 499 573 c 256
 499 444 425 345 325 345 c 256
 247 345 201 399 201 489 c 256
  PathStart: -2
278 497 m 256
 278 444 297 417 331 417 c 256
 380 417 421 484 421 563 c 256
 421 617 403 643 369 643 c 256
 319 643 278 576 278 497 c 256
  PathStart: -2
EndSplineSet
PickledDataWithLists: "(dp0
Vcom.schriftgestaltung.Glyphs.lastChange
p1
V2016-06-09 18:35:34 +0000
p2
s."
EndChar

StartChar: oslash
Encoding: 248 248 316
GlifName: oslash
Width: 575
VWidth: 0
Flags: HW
LayerCount: 2
Fore
SplineSet
388 559 m 258
 396 574 406 579 421 573 c 258
 453 560 l 258
 469 554 475 542 467 527 c 258
 177 -72 l 258
 170 -87 160 -92 145 -86 c 258
 112 -73 l 258
 97 -67 91 -55 98 -40 c 258
 388 559 l 258
  PathStart: -2
EndSplineSet
Refer: 295 111 N 1 0 0 1 0 0 2
PickledDataWithLists: "(dp0
Vcom.schriftgestaltung.Glyphs.lastChange
p1
V2016-06-09 18:35:33 +0000
p2
s."
EndChar

StartChar: p
Encoding: 112 112 318
GlifName: p
Width: 575
VWidth: 0
Flags: HW
AnchorPoint: "top" 328 550 basechar 0
AnchorPoint: "bottom" 248 0 basechar 0
LayerCount: 2
Fore
SplineSet
67 -250 m 258
 32 -250 l 258
 16 -250 8 -241 11 -225 c 258
 120 470 l 258
 123 486 131 500 147 500 c 258
 184 500 l 258
 200 500 208 491 205 475 c 258
 199 437 l 257
 252 485 311 510 362 510 c 256
 438 510 497 454 497 311 c 256
 497 120 417 -10 217 -10 c 256
 197 -10 165 -9 129 -6 c 257
 96 -225 l 258
 94 -241 83 -250 67 -250 c 258
186 349 m 257
 141 70 l 257
 179 67 211 66 229 66 c 256
 365 66 411 164 411 296 c 256
 411 396 379 434 332 434 c 256
 291 434 238 405 186 349 c 257
EndSplineSet
PickledDataWithLists: "(dp0
Vcom.schriftgestaltung.Glyphs.lastChange
p1
V2016-06-09 18:35:34 +0000
p2
sVcom.typemytype.robofont.layerData
p3
(dp4
Vbackground
p5
(dp6
Vanchors
p7
(lp8
sVcomponents
p9
(lp10
sVcontours
p11
(lp12
(dp13
Vpoints
p14
(lp15
(dp16
VsegmentType
p17
Vline
p18
sVsmooth
p19
I01
sVx
p20
I74
sVy
p21
I-200
sa(dp22
g19
I00
sg20
I90
sg21
I-200
sa(dp23
g19
I00
sg20
I101
sg21
I-191
sa(dp24
g17
Vcurve
p25
sg19
I01
sg20
I103
sg21
I-175
sa(dp26
g17
Vline
p27
sg19
I00
sg20
I129
sg21
I-6
sa(dp28
g19
I00
sg20
I165
sg21
I-9
sa(dp29
g19
I00
sg20
I197
sg21
I-10
sa(dp30
g17
Vcurve
p31
sg19
I01
sg20
I217
sg21
I-10
sa(dp32
g19
I00
sg20
I358
sg21
I-10
sa(dp33
g19
I00
sg20
I456
sg21
I36
sa(dp34
g17
Vcurve
p35
sg19
I01
sg20
I490
sg21
I250
sa(dp36
g19
I00
sg20
I519
sg21
I431
sa(dp37
g19
I00
sg20
I452
sg21
I510
sa(dp38
g17
Vcurve
p39
sg19
I01
sg20
I362
sg21
I510
sa(dp40
g19
I00
sg20
I311
sg21
I510
sa(dp41
g19
I00
sg20
I252
sg21
I485
sa(dp42
g17
Vcurve
p43
sg19
I00
sg20
I199
sg21
I437
sa(dp44
g17
Vline
p45
sg19
I01
sg20
I205
sg21
I475
sa(dp46
g19
I00
sg20
I208
sg21
I491
sa(dp47
g19
I00
sg20
I200
sg21
I500
sa(dp48
g17
Vcurve
p49
sg19
I01
sg20
I184
sg21
I500
sa(dp50
g17
Vline
p51
sg19
I01
sg20
I147
sg21
I500
sa(dp52
g19
I00
sg20
I131
sg21
I500
sa(dp53
g19
I00
sg20
I123
sg21
I486
sa(dp54
g17
Vcurve
p55
sg19
I01
sg20
I120
sg21
I470
sa(dp56
g17
Vline
p57
sg19
I01
sg20
I18
sg21
I-175
sa(dp58
g19
I00
sg20
I15
sg21
I-191
sa(dp59
g19
I00
sg20
I23
sg21
I-200
sa(dp60
g17
Vcurve
p61
sg19
I01
sg20
I39
sg21
I-200
sasa(dp62
g14
(lp63
(dp64
g17
Vline
p65
sg19
I00
sg20
I186
sg21
I349
sa(dp66
g19
I00
sg20
I238
sg21
I405
sa(dp67
g19
I00
sg20
I291
sg21
I434
sa(dp68
g17
Vcurve
p69
sg19
I01
sg20
I332
sg21
I434
sa(dp70
g19
I00
sg20
I390
sg21
I434
sa(dp71
g19
I00
sg20
I425
sg21
I376
sa(dp72
g17
Vcurve
p73
sg19
I01
sg20
I405
sg21
I250
sa(dp74
g19
I00
sg20
I381
sg21
I98
sa(dp75
g19
I00
sg20
I328
sg21
I66
sa(dp76
g17
Vcurve
p77
sg19
I01
sg20
I229
sg21
I66
sa(dp78
g19
I00
sg20
I211
sg21
I66
sa(dp79
g19
I00
sg20
I179
sg21
I67
sa(dp80
g17
Vcurve
p81
sg19
I00
sg20
I141
sg21
I70
sasasVlib
p82
(dp83
sVname
p84
Vp
p85
sVunicodes
p86
(lp87
sVwidth
p88
I575
sss."
EndChar

StartChar: paragraph
Encoding: 182 182 319
GlifName: paragraph
Width: 575
VWidth: 0
Flags: HW
LayerCount: 2
Fore
SplineSet
321 700 m 258
 381 700 l 258
 398 700 405 692 402 675 c 258
 284 -75 l 258
 281 -91 272 -100 255 -100 c 258
 220 -100 l 258
 204 -100 196 -91 199 -75 c 258
 261 322 l 257
 138 322 96 384 96 466 c 256
 96 480 98 495 100 511 c 256
 117 615 177 700 321 700 c 258
531 700 m 258
 566 700 l 258
 583 700 590 692 587 675 c 258
 469 -75 l 258
 466 -91 457 -100 440 -100 c 258
 405 -100 l 258
 389 -100 381 -91 384 -75 c 258
 502 675 l 258
 505 691 515 700 531 700 c 258
EndSplineSet
PickledDataWithLists: "(dp0
Vcom.schriftgestaltung.Glyphs.lastChange
p1
V2016-05-30 08:36:51 +0000
p2
s."
EndChar

StartChar: parenleft
Encoding: 40 40 320
GlifName: parenleft
Width: 575
VWidth: 0
Flags: HW
LayerCount: 2
Fore
SplineSet
536 725 m 258
 532 699 l 258
 529 682 520 674 503 674 c 256
 324 674 198 396 198 184 c 256
 198 18 270 -102 380 -102 c 256
 397 -102 404 -110 401 -127 c 258
 397 -153 l 258
 394 -170 384 -178 368 -178 c 256
 214 -178 112 -28 112 178 c 256
 112 442 285 750 515 750 c 256
 531 750 539 742 536 725 c 258
EndSplineSet
PickledDataWithLists: "(dp0
Vcom.schriftgestaltung.Glyphs.lastChange
p1
V2016-05-19 19:23:15 +0000
p2
s."
EndChar

StartChar: parenright
Encoding: 41 41 321
GlifName: parenright
Width: 575
VWidth: 0
Flags: HW
LayerCount: 2
Fore
SplineSet
40 -153 m 258
 44 -127 l 258
 47 -110 56 -102 73 -102 c 256
 252 -102 378 176 378 388 c 256
 378 554 306 674 196 674 c 256
 179 674 172 682 175 699 c 258
 179 725 l 258
 182 742 192 750 208 750 c 256
 362 750 464 600 464 394 c 256
 464 130 291 -178 61 -178 c 256
 45 -178 37 -170 40 -153 c 258
EndSplineSet
PickledDataWithLists: "(dp0
Vcom.schriftgestaltung.Glyphs.lastChange
p1
V2016-05-19 19:22:51 +0000
p2
s."
EndChar

StartChar: partialdiff
Encoding: 8706 8706 322
GlifName: partialdiff
Width: 575
VWidth: 0
Flags: HW
LayerCount: 2
Fore
SplineSet
500 366 m 256
 500 166 423 -11 247 -11 c 256
 136 -11 76 51 76 173 c 256
 76 353 177 509 358 510 c 256
 370 511 387 510 406 508 c 257
 392 579 369 650 340 708 c 256
 332 722 337 735 353 743 c 258
 382 758 l 258
 398 766 409 763 415 749 c 256
 471 618 500 486 500 366 c 256
  PathStart: -1
346 434 m 256
 225 433 163 307 163 189 c 256
 163 110 193 70 252 67 c 256
 373 58 416 224 416 378 c 256
 416 395 416 412 414 428 c 257
 390 432 366 434 346 434 c 256
  PathStart: -1
EndSplineSet
PickledDataWithLists: "(dp0
Vcom.schriftgestaltung.Glyphs.lastChange
p1
V2015-12-22 14:17:42 +0000
p2
s."
EndChar

StartChar: percent
Encoding: 37 37 323
GlifName: percent
Width: 575
VWidth: 0
Flags: HW
LayerCount: 2
Fore
SplineSet
47 66 m 258
 27 87 l 258
 17 98 18 110 32 122 c 258
 509 534 l 258
 522 545 534 546 544 535 c 258
 565 514 l 258
 575 503 573 490 560 479 c 258
 82 66 l 258
 69 55 57 55 47 66 c 258
143 600 m 258
 243 600 l 258
 259 600 267 592 264 575 c 258
 250 485 l 258
 248 469 237 460 221 460 c 258
 121 460 l 258
 105 460 98 469 100 485 c 258
 114 575 l 258
 117 592 126 600 143 600 c 258
371 140 m 258
 471 140 l 258
 487 140 494 132 492 115 c 258
 477 25 l 258
 475 9 464 0 448 0 c 258
 348 0 l 258
 332 0 325 9 327 25 c 258
 342 115 l 258
 344 132 354 140 371 140 c 258
EndSplineSet
PickledDataWithLists: "(dp0
Vcom.schriftgestaltung.Glyphs.lastChange
p1
V2015-12-22 14:18:08 +0000
p2
s."
EndChar

StartChar: period
Encoding: 46 46 324
GlifName: period
Width: 575
VWidth: 0
Flags: HW
LayerCount: 2
Fore
SplineSet
220 140 m 258
 320 140 l 258
 336 140 343 132 341 115 c 258
 326 25 l 258
 324 9 314 0 297 0 c 258
 197 0 l 258
 181 0 174 9 176 25 c 258
 191 115 l 258
 193 132 204 140 220 140 c 258
EndSplineSet
PickledDataWithLists: "(dp0
Vcom.schriftgestaltung.Glyphs.lastChange
p1
V2015-12-23 09:15:27 +0000
p2
s."
EndChar

StartChar: periodcentered
Encoding: 183 183 325
GlifName: periodcentered
Width: 575
VWidth: 0
Flags: HW
LayerCount: 2
Fore
SplineSet
334 274 m 258
 326 227 l 258
 324 211 314 202 297 202 c 258
 262 202 l 258
 246 202 239 211 241 227 c 258
 249 273 l 258
 251 290 262 299 278 299 c 258
 313 299 l 258
 330 299 336 290 334 274 c 258
EndSplineSet
PickledDataWithLists: "(dp0
Vcom.schriftgestaltung.Glyphs.lastChange
p1
V2015-12-22 20:53:09 +0000
p2
s."
EndChar

StartChar: perthousand
Encoding: 8240 8240 326
GlifName: perthousand
Width: 575
VWidth: 0
Flags: HW
LayerCount: 2
Fore
SplineSet
12 66 m 258
 -8 87 l 258
 -18 98 -17 110 -3 122 c 258
 474 534 l 258
 487 545 499 546 509 535 c 258
 530 514 l 258
 540 503 538 490 525 479 c 258
 47 66 l 258
 34 55 22 55 12 66 c 258
143 600 m 258
 243 600 l 258
 259 600 267 592 264 575 c 258
 250 485 l 258
 248 469 237 460 221 460 c 258
 121 460 l 258
 105 460 98 469 100 485 c 258
 114 575 l 258
 117 592 126 600 143 600 c 258
236 140 m 258
 311 140 l 258
 327 140 334 132 332 115 c 258
 317 25 l 258
 315 9 304 0 288 0 c 258
 213 0 l 258
 197 0 190 9 192 25 c 258
 207 115 l 258
 209 132 219 140 236 140 c 258
441 140 m 258
 516 140 l 258
 532 140 539 132 537 115 c 258
 522 25 l 258
 520 9 509 0 493 0 c 258
 418 0 l 258
 402 0 395 9 397 25 c 258
 412 115 l 258
 414 132 424 140 441 140 c 258
EndSplineSet
PickledDataWithLists: "(dp0
Vcom.schriftgestaltung.Glyphs.lastChange
p1
V2015-12-22 14:18:32 +0000
p2
s."
EndChar

StartChar: phi
Encoding: 966 966 327
GlifName: phi
Width: 575
VWidth: 0
Flags: HW
LayerCount: 2
Fore
SplineSet
259 330 m 258
 279 457 331 510 436 510 c 256
 520 510 558 474 558 392 c 256
 558 373 557 353 553 330 c 258
 534 210 l 258
 510 61 439 0 290 0 c 257
 275 -96 l 258
 273 -113 263 -121 246 -121 c 258
 211 -121 l 258
 195 -121 188 -113 190 -96 c 258
 205 0 l 257
 79 0 23 43 23 146 c 256
 23 166 25 187 29 210 c 258
 58 395 l 258
 61 412 71 420 87 420 c 258
 122 420 l 258
 139 420 146 412 143 395 c 258
 114 210 l 258
 112 195 110 181 110 168 c 256
 110 104 143 77 218 77 c 257
 259 330 l 258
  PathStart: -2
449 210 m 258
 468 330 l 258
 470 346 472 361 472 373 c 256
 472 415 457 433 424 433 c 256
 378 433 354 404 343 333 c 258
 303 77 l 257
 392 77 434 116 449 210 c 258
EndSplineSet
PickledDataWithLists: "(dp0
Vcom.schriftgestaltung.Glyphs.lastChange
p1
V2015-12-22 12:48:44 +0000
p2
s."
EndChar

StartChar: pi
Encoding: 960 960 328
GlifName: pi
Width: 575
VWidth: 0
Flags: HW
LayerCount: 2
Fore
SplineSet
168 424 m 257
 123 424 l 258
 107 424 99 432 102 449 c 258
 106 475 l 258
 108 492 119 500 135 500 c 258
 520 500 l 258
 537 500 543 492 541 475 c 258
 537 449 l 258
 534 432 525 424 507 423 c 257
 462 423 l 257
 430 220 l 257
 417 135 408 80 423 23 c 256
 427 9 417 0 400 0 c 258
 365 0 l 258
 349 0 342 9 338 23 c 256
 323 80 332 135 345 220 c 257
 377 423 l 257
 252 423 l 257
 189 25 l 258
 187 9 177 0 160 0 c 258
 125 0 l 258
 109 0 102 9 104 25 c 258
 168 424 l 257
EndSplineSet
PickledDataWithLists: "(dp0
Vcom.schriftgestaltung.Glyphs.lastChange
p1
V2015-12-22 16:32:58 +0000
p2
s."
EndChar

StartChar: plus
Encoding: 43 43 329
GlifName: plus
Width: 575
VWidth: 0
Flags: HW
LayerCount: 2
Fore
SplineSet
526 264 m 258
 522 237 l 258
 519 221 510 212 493 212 c 258
 324 212 l 257
 295 26 l 258
 292 10 283 1 266 1 c 258
 231 1 l 258
 215 1 207 10 210 26 c 258
 239 212 l 257
 70 212 l 258
 54 212 46 221 49 237 c 258
 53 263 l 258
 56 280 66 289 82 289 c 258
 251 289 l 257
 280 474 l 258
 283 490 293 499 309 499 c 258
 344 499 l 258
 361 499 368 491 365 474 c 258
 336 289 l 257
 505 289 l 258
 522 289 529 280 526 264 c 258
EndSplineSet
PickledDataWithLists: "(dp0
Vcom.schriftgestaltung.Glyphs.lastChange
p1
V2015-12-22 14:19:00 +0000
p2
s."
EndChar

StartChar: plusminus
Encoding: 177 177 330
GlifName: plusminus
Width: 575
VWidth: 0
Flags: HW
LayerCount: 2
Fore
SplineSet
362 452 m 257
 531 452 l 258
 548 452 555 443 552 427 c 258
 548 400 l 258
 545 384 536 375 519 375 c 258
 350 375 l 257
 322 202 l 258
 320 185 310 177 293 177 c 258
 258 177 l 258
 242 177 235 186 237 202 c 258
 265 375 l 257
 96 375 l 258
 80 375 72 384 75 400 c 258
 79 426 l 258
 82 443 92 452 108 452 c 258
 277 452 l 257
 304 625 l 258
 307 641 317 650 333 650 c 258
 368 650 l 258
 385 650 392 641 389 625 c 258
 362 452 l 257
15 25 m 258
 20 52 l 258
 22 68 33 77 49 77 c 258
 472 77 l 258
 489 77 495 68 493 52 c 258
 488 25 l 258
 486 9 476 0 459 0 c 258
 36 0 l 258
 20 0 13 9 15 25 c 258
EndSplineSet
PickledDataWithLists: "(dp0
Vcom.schriftgestaltung.Glyphs.lastChange
p1
V2015-12-22 14:19:26 +0000
p2
s."
EndChar

StartChar: product
Encoding: 8719 8719 331
GlifName: product
Width: 575
VWidth: 0
Flags: HW
LayerCount: 2
Fore
SplineSet
148 699 m 258
 571 699 l 258
 587 699 595 690 592 674 c 258
 588 647 l 258
 585 631 575 622 559 622 c 258
 514 622 l 257
 406 -58 l 258
 404 -74 394 -83 377 -83 c 258
 342 -83 l 258
 326 -83 319 -74 321 -58 c 258
 429 622 l 257
 264 622 l 257
 156 -58 l 258
 154 -74 144 -83 127 -83 c 258
 92 -83 l 258
 76 -83 69 -74 71 -58 c 258
 179 622 l 257
 136 622 l 258
 120 622 112 631 115 647 c 258
 119 673 l 258
 122 690 132 699 148 699 c 258
EndSplineSet
PickledDataWithLists: "(dp0
Vcom.schriftgestaltung.Glyphs.lastChange
p1
V2015-12-22 14:19:57 +0000
p2
s."
EndChar

StartChar: psi
Encoding: 968 968 332
GlifName: psi
Width: 575
VWidth: 0
Flags: HW
LayerCount: 2
Fore
SplineSet
520 500 m 258
 555 500 l 258
 572 500 578 492 576 475 c 258
 534 210 l 258
 510 61 439 0 290 0 c 257
 275 -96 l 258
 273 -113 263 -121 246 -121 c 258
 211 -121 l 258
 195 -121 188 -113 190 -96 c 258
 205 0 l 257
 79 0 23 43 23 146 c 256
 23 166 25 187 29 210 c 258
 71 475 l 258
 73 492 84 500 100 500 c 258
 135 500 l 258
 152 500 158 492 156 475 c 258
 114 210 l 258
 112 195 110 181 110 168 c 256
 110 104 143 77 218 77 c 257
 281 475 l 258
 283 492 294 500 310 500 c 258
 345 500 l 258
 362 500 368 492 366 475 c 258
 303 77 l 257
 392 77 434 116 449 210 c 258
 491 475 l 258
 493 492 504 500 520 500 c 258
EndSplineSet
PickledDataWithLists: "(dp0
Vcom.schriftgestaltung.Glyphs.lastChange
p1
V2015-12-22 12:55:00 +0000
p2
s."
EndChar

StartChar: question
Encoding: 63 63 334
GlifName: question
Width: 575
VWidth: 0
Flags: HW
LayerCount: 2
Fore
SplineSet
129 651 m 258
 132 675 l 258
 135 691 145 700 161 700 c 256
 430 698 540 605 540 510 c 256
 540 390 401 327 256 327 c 258
 255 327 l 257
 240 230 l 258
 237 214 227 205 211 205 c 258
 176 205 l 258
 160 205 152 214 155 230 c 258
 178 376 l 258
 180 392 191 401 207 401 c 258
 268 401 l 258
 363 401 454 434 454 503 c 256
 454 579 339 625 150 626 c 256
 134 626 126 635 129 651 c 258
121 25 m 258
 128 72 l 258
 131 88 141 97 157 97 c 258
 192 97 l 258
 208 97 216 88 213 72 c 258
 206 25 l 258
 203 8 193 0 177 0 c 258
 142 0 l 258
 126 0 118 8 121 25 c 258
EndSplineSet
PickledDataWithLists: "(dp0
Vcom.schriftgestaltung.Glyphs.lastChange
p1
V2015-12-23 09:17:54 +0000
p2
s."
EndChar

StartChar: quotedbl
Encoding: 34 34 336
GlifName: quotedbl
Width: 575
VWidth: 0
Flags: HW
LayerCount: 2
Fore
SplineSet
225 750 m 258
 280 750 l 258
 296 750 304 741 300 725 c 258
 243 437 l 258
 239 421 229 413 213 413 c 258
 186 413 l 258
 170 413 162 421 164 437 c 258
 196 725 l 258
 199 741 208 750 225 750 c 258
454 750 m 258
 509 750 l 258
 525 750 533 741 529 725 c 258
 471 437 l 258
 468 421 458 413 442 413 c 258
 414 413 l 258
 398 413 391 421 393 437 c 258
 425 725 l 258
 427 741 437 750 454 750 c 258
EndSplineSet
PickledDataWithLists: "(dp0
Vcom.schriftgestaltung.Glyphs.lastChange
p1
V2015-12-23 09:18:16 +0000
p2
s."
EndChar

StartChar: quotereversed
Encoding: 8219 8219 341
GlifName: quotereversed
Width: 575
VWidth: 0
Flags: HW
LayerCount: 2
Fore
SplineSet
292 724 m 258
 296 741 305 749 321 749 c 258
 401 749 l 258
 418 749 426 741 422 724 c 258
 413 659 l 258
 409 643 400 634 384 634 c 258
 359 634 l 257
 345 559 344 503 383 503 c 256
 399 503 407 494 403 478 c 258
 400 451 l 258
 396 435 386 427 370 427 c 256
 297 427 272 482 272 556 c 256
 272 580 274 605 279 632 c 258
 292 724 l 258
  PathStart: -2
EndSplineSet
PickledDataWithLists: "(dp0
Vcom.schriftgestaltung.Glyphs.lastChange
p1
V2015-12-22 14:00:15 +0000
p2
s."
EndChar

StartChar: quotesinglbase
Encoding: 8218 8218 343
GlifName: quotesinglbase
Width: 575
VWidth: 0
Flags: HW
LayerCount: 2
Fore
SplineSet
227 115 m 258
 307 115 l 258
 323 115 330 107 328 90 c 258
 313 -2 l 258
 296 -111 252 -207 156 -207 c 256
 140 -207 132 -199 134 -183 c 258
 139 -156 l 258
 141 -140 151 -131 167 -131 c 256
 206 -131 223 -75 233 0 c 257
 208 0 l 258
 192 0 185 9 187 25 c 258
 198 90 l 258
 200 107 210 115 227 115 c 258
EndSplineSet
PickledDataWithLists: "(dp0
Vcom.schriftgestaltung.Glyphs.lastChange
p1
V2015-12-22 14:00:50 +0000
p2
s."
EndChar

StartChar: quotesingle
Encoding: 39 39 344
GlifName: quotesingle
Width: 575
VWidth: 0
Flags: HW
LayerCount: 2
Fore
SplineSet
339 750 m 258
 394 750 l 258
 411 750 418 741 415 725 c 258
 357 437 l 258
 353 421 344 413 328 413 c 258
 300 413 l 258
 284 413 276 421 278 437 c 258
 311 725 l 258
 313 741 323 750 339 750 c 258
EndSplineSet
PickledDataWithLists: "(dp0
Vcom.schriftgestaltung.Glyphs.lastChange
p1
V2015-12-22 13:46:53 +0000
p2
s."
EndChar

StartChar: r
Encoding: 114 114 345
GlifName: r
Width: 575
VWidth: 0
Flags: HW
AnchorPoint: "top" 328 550 basechar 0
AnchorPoint: "bottom" 248 0 basechar 0
LayerCount: 2
Fore
SplineSet
210 475 m 258
 204 437 l 257
 256 485 311 510 362 510 c 256
 440 510 501 479 497 348 c 256
 497 332 487 323 471 323 c 258
 436 323 l 258
 419 323 411 332 411 349 c 256
 411 422 378 434 332 434 c 256
 291 434 243 405 190 349 c 257
 138 25 l 258
 136 9 125 0 109 0 c 258
 74 0 l 258
 58 0 51 9 53 25 c 258
 124 470 l 258
 126 486 136 500 152 500 c 258
 189 500 l 258
 205 500 212 491 210 475 c 258
EndSplineSet
PickledDataWithLists: "(dp0
Vcom.schriftgestaltung.Glyphs.lastChange
p1
V2016-06-09 18:35:34 +0000
p2
s."
EndChar

StartChar: radical
Encoding: 8730 8730 347
GlifName: radical
Width: 575
VWidth: 0
Flags: HW
LayerCount: 2
Fore
SplineSet
453 701 m 258
 583 701 l 258
 600 701 607 692 604 676 c 258
 600 649 l 258
 598 632 588 624 571 624 c 258
 477 624 l 257
 266 23 l 258
 261 8 250 0 235 0 c 258
 215 0 l 258
 201 0 193 6 189 19 c 258
 112 273 l 257
 60 273 l 258
 43 273 36 282 39 298 c 258
 43 325 l 258
 46 342 56 350 72 350 c 258
 145 350 l 258
 159 350 167 344 171 331 c 258
 236 107 l 257
 423 678 l 258
 428 693 438 701 453 701 c 258
EndSplineSet
PickledDataWithLists: "(dp0
Vcom.schriftgestaltung.Glyphs.lastChange
p1
V2015-12-22 14:20:21 +0000
p2
s."
EndChar

StartChar: registered
Encoding: 174 174 349
GlifName: registered
Width: 575
VWidth: 0
Flags: HW
LayerCount: 2
Fore
SplineSet
349 637 m 256
 417 637 482 609 522 561 c 256
 563 512 581 444 570 375 c 256
 559 307 520 238 463 190 c 256
 408 141 334 113 266 113 c 256
 197 113 134 141 92 190 c 256
 52 238 35 307 46 375 c 256
 57 444 95 512 151 561 c 256
 208 609 280 637 349 637 c 256
  PathStart: -2
276 176 m 256
 328 176 384 197 426 234 c 256
 469 271 499 323 507 375 c 256
 515 427 502 479 471 516 c 256
 440 553 391 575 339 575 c 256
 287 575 232 553 189 516 c 256
 146 479 116 427 108 375 c 256
 100 323 113 271 144 234 c 256
 176 197 224 176 276 176 c 256
  PathStart: -2
246 500 m 257
 347 500 l 257
 360 500 372 500 384 498 c 256
 396 496 407 492 416 485 c 256
 426 478 433 469 437 458 c 256
 441 447 443 435 441 422 c 256
 439 410 433 397 426 386 c 256
 418 376 408 366 396 359 c 256
 386 353 375 349 363 347 c 257
 403 281 l 258
 413 264 404 250 383 250 c 258
 362 250 l 258
 349 250 341 255 334 265 c 258
 287 344 l 257
 258 344 l 257
 247 275 l 258
 244 259 235 250 218 250 c 258
 206 250 l 258
 190 250 182 259 185 275 c 258
 217 475 l 258
 219 492 230 500 246 500 c 257
268 407 m 257
 342 407 l 258
 354 407 377 407 378 422 c 256
 380 435 358 438 347 438 c 258
 273 438 l 257
 268 407 l 257
EndSplineSet
PickledDataWithLists: "(dp0
Vcom.schriftgestaltung.Glyphs.lastChange
p1
V2015-12-22 14:24:37 +0000
p2
s."
EndChar

StartChar: rho
Encoding: 961 961 350
GlifName: rho
Width: 575
VWidth: 0
Flags: HW
LayerCount: 2
Fore
SplineSet
10 -225 m 258
 83 240 l 258
 116 445 186 512 330 512 c 256
 446 512 498 462 498 324 c 256
 498 122 417 -9 218 -9 c 256
 198 -9 167 -8 130 -4 c 257
 95 -225 l 258
 92 -241 82 -250 66 -250 c 258
 31 -250 l 258
 15 -250 7 -241 10 -225 c 258
168 240 m 258
 142 72 l 257
 178 69 210 68 230 68 c 256
 367 68 412 169 412 307 c 256
 412 403 382 435 318 435 c 256
 234 435 192 391 168 240 c 258
EndSplineSet
PickledDataWithLists: "(dp0
Vcom.schriftgestaltung.Glyphs.lastChange
p1
V2015-12-22 12:46:09 +0000
p2
s."
EndChar

StartChar: ring
Encoding: 730 730 351
GlifName: ring
Width: 575
VWidth: 0
Flags: HW
AnchorPoint: "top" 328 500 mark 0
LayerCount: 2
Fore
SplineSet
369 508 m 256
 302 508 266 545 275 604 c 256
 284 663 332 700 399 700 c 256
 466 700 502 663 493 604 c 256
 484 545 436 508 369 508 c 256
  PathStart: -2
379 569 m 256
 399 569 413 583 416 604 c 256
 420 626 410 639 390 639 c 256
 370 639 355 626 351 604 c 256
 348 583 359 569 379 569 c 256
  PathStart: -2
EndSplineSet
PickledDataWithLists: "(dp0
Vcom.schriftgestaltung.Glyphs.lastChange
p1
V2015-12-22 16:32:43 +0000
p2
s."
EndChar

StartChar: rtblock
Encoding: 9616 9616 352
GlifName: rtblock
Width: 575
VWidth: 0
Flags: HW
LayerCount: 2
Fore
SplineSet
287 -250 m 257
 287 900 l 257
 575 900 l 257
 575 -250 l 257
 287 -250 l 257
EndSplineSet
PickledDataWithLists: "(dp0
Vcom.schriftgestaltung.Glyphs.lastChange
p1
V2016-06-10 08:26:49 +0000
p2
s."
EndChar

StartChar: s
Encoding: 115 115 353
GlifName: s
Width: 575
VWidth: 0
Flags: HW
AnchorPoint: "top" 328 550 basechar 0
AnchorPoint: "bottom" 248 0 basechar 0
LayerCount: 2
Fore
SplineSet
471 469 m 258
 460 443 l 258
 453 428 442 422 427 425 c 256
 385 432 355 435 328 434 c 256
 269 432 209 409 209 366 c 256
 209 333 241 306 301 299 c 256
 410 286 455 233 455 165 c 256
 455 56 346 -10 218 -10 c 256
 186 -10 139 -8 85 1 c 256
 68 4 63 15 69 31 c 258
 79 57 l 258
 85 73 96 79 112 77 c 256
 162 68 207 67 230 67 c 256
 305 67 368 99 368 153 c 256
 368 187 344 216 279 222 c 256
 176 232 123 285 123 352 c 256
 123 450 224 510 340 510 c 256
 366 510 410 508 456 499 c 256
 472 496 477 485 471 469 c 258
EndSplineSet
PickledDataWithLists: "(dp0
Vcom.schriftgestaltung.Glyphs.lastChange
p1
V2016-06-09 18:35:34 +0000
p2
s."
EndChar

StartChar: section
Encoding: 167 167 358
GlifName: section
Width: 575
VWidth: 0
Flags: HW
LayerCount: 2
Fore
SplineSet
372 710 m 256
 398 710 442 708 488 699 c 256
 504 696 509 685 502 669 c 258
 491 643 l 258
 485 628 474 622 458 625 c 256
 417 632 379 634 360 634 c 256
 290 632 248 609 241 568 c 256
 234 524 267 489 333 469 c 256
 452 430 491 391 480 321 c 256
 472 269 436 232 376 212 c 257
 427 178 450 132 441 76 c 256
 426 -19 347 -70 216 -70 c 256
 190 -70 132 -68 85 -59 c 256
 69 -56 64 -45 71 -29 c 257
 81 -3 l 258
 87 13 99 19 115 16 c 256
 156 8 209 7 229 7 c 256
 305 8 349 32 356 73 c 256
 363 116 331 151 266 172 c 256
 146 210 106 250 117 320 c 256
 125 372 161 408 222 428 c 257
 170 462 147 509 156 564 c 256
 171 659 247 710 372 710 c 256
  PathStart: -2
316 242 m 257
 362 256 388 278 393 306 c 256
 400 346 375 369 300 392 c 257
 292 394 285 397 278 400 c 257
 235 386 209 364 204 335 c 256
 198 294 222 271 298 248 c 258
 316 242 l 257
  PathStart: -2
EndSplineSet
PickledDataWithLists: "(dp0
Vcom.schriftgestaltung.Glyphs.lastChange
p1
V2015-12-22 14:24:59 +0000
p2
s."
EndChar

StartChar: semicolon
Encoding: 59 59 359
GlifName: semicolon
Width: 575
VWidth: 0
Flags: HW
LayerCount: 2
Fore
SplineSet
278 500 m 258
 378 500 l 258
 394 500 401 492 399 475 c 258
 384 385 l 258
 382 369 371 360 355 360 c 258
 255 360 l 258
 239 360 232 369 234 385 c 258
 249 475 l 258
 251 492 261 500 278 500 c 258
221 140 m 258
 321 140 l 258
 337 140 344 132 342 115 c 258
 323 -2 l 258
 295 -181 218 -247 39 -247 c 256
 23 -247 16 -239 18 -223 c 258
 22 -196 l 258
 25 -180 34 -171 50 -171 c 256
 169 -171 220 -125 238 0 c 257
 198 0 l 258
 182 0 175 9 177 25 c 258
 192 115 l 258
 194 132 204 140 221 140 c 258
EndSplineSet
PickledDataWithLists: "(dp0
Vcom.schriftgestaltung.Glyphs.lastChange
p1
V2015-12-23 09:18:29 +0000
p2
s."
EndChar

StartChar: seven
Encoding: 55 55 360
GlifName: seven
Width: 575
VWidth: 0
Flags: HW
LayerCount: 2
Fore
SplineSet
181 700 m 258
 562 700 l 258
 578 700 585 692 582 676 c 258
 575 626 l 258
 566 572 547 528 504 465 c 258
 377 280 l 258
 317 191 279 104 266 24 c 257
 264 8 253 0 236 0 c 258
 202 0 l 258
 185 0 179 8 181 24 c 256
 194 105 237 202 309 312 c 258
 427 492 l 258
 467 552 483 587 489 624 c 257
 229 624 l 257
 212 518 l 258
 210 501 200 493 183 493 c 258
 148 493 l 258
 132 493 125 502 127 518 c 258
 152 675 l 258
 155 692 165 700 181 700 c 258
EndSplineSet
PickledDataWithLists: "(dp0
Vcom.schriftgestaltung.Glyphs.lastChange
p1
V2015-12-22 20:52:37 +0000
p2
s."
EndChar

StartChar: seven.dnom
Encoding: 65576 -1 361
GlifName: seven.dnom
Width: 250
VWidth: 0
Flags: HW
LayerCount: 2
Fore
SplineSet
72 360 m 257
 263 360 l 257
 277 360 286 350 284 338 c 257
 280 313 l 257
 276 285 265 261 242 228 c 257
 178 135 l 257
 150 93 131 51 125 12 c 257
 123 0 111 -10 97 -10 c 257
 80 -10 l 257
 66 -10 57 0 59 12 c 257
 66 54 88 104 125 160 c 257
 184 250 l 257
 199 273 207 288 211 302 c 257
 105 302 l 257
 98 259 l 257
 97 247 84 237 71 237 c 257
 53 237 l 257
 39 237 31 247 32 259 c 257
 45 338 l 257
 47 350 59 360 72 360 c 257
EndSplineSet
PickledDataWithLists: "(dp0
Vcom.schriftgestaltung.Glyphs.Export
p1
I00
sVcom.schriftgestaltung.Glyphs.lastChange
p2
V2015-12-22 13:07:01 +0000
p3
s."
EndChar

StartChar: seven.hex
Encoding: 65577 -1 362
GlifName: seven.hex
Width: 575
VWidth: 0
Flags: HW
LayerCount: 2
Fore
SplineSet
358 875 m 258
 358 829 l 258
 358 812 349 804 333 804 c 258
 298 804 l 258
 281 804 273 813 273 829 c 258
 273 875 l 258
 273 891 282 900 298 900 c 258
 333 900 l 258
 349 900 358 891 358 875 c 258
502 875 m 258
 502 829 l 258
 502 812 493 804 477 804 c 258
 442 804 l 258
 425 804 417 813 417 829 c 258
 417 875 l 258
 417 891 426 900 442 900 c 258
 477 900 l 258
 493 900 502 891 502 875 c 258
646 875 m 258
 646 829 l 258
 646 812 637 804 621 804 c 258
 586 804 l 258
 569 804 561 813 561 829 c 258
 561 875 l 258
 561 891 570 900 586 900 c 258
 621 900 l 258
 637 900 646 891 646 875 c 258
EndSplineSet
Refer: 360 55 N 1 0 0 1 0 0 2
PickledDataWithLists: "(dp0
Vcom.schriftgestaltung.Glyphs.lastChange
p1
V2016-02-10 13:21:27 +0000
p2
s."
EndChar

StartChar: shade
Encoding: 9618 9618 365
GlifName: shade
Width: 575
VWidth: 0
Flags: HW
LayerCount: 2
Fore
SplineSet
0 -250 m 257
 0 -194 l 257
 28 -250 l 257
 0 -250 l 257
143 -250 m 257
 0 36 l 257
 0 92 l 257
 171 -250 l 257
 143 -250 l 257
286 -250 m 257
 0 322 l 257
 0 378 l 257
 314 -250 l 257
 286 -250 l 257
429 -250 m 257
 0 608 l 257
 0 664 l 257
 457 -250 l 257
 429 -250 l 257
575 -250 m 257
 0 900 l 257
 28 900 l 257
 575 -194 l 257
 575 -250 l 257
575 36 m 257
 143 900 l 257
 171 900 l 257
 575 92 l 257
 575 36 l 257
575 322 m 257
 286 900 l 257
 314 900 l 257
 575 378 l 257
 575 322 l 257
575 608 m 257
 429 900 l 257
 457 900 l 257
 575 664 l 257
 575 608 l 257
EndSplineSet
PickledDataWithLists: "(dp0
Vcom.schriftgestaltung.Glyphs.lastChange
p1
V2016-06-10 08:26:49 +0000
p2
s."
EndChar

StartChar: sigma
Encoding: 963 963 366
GlifName: sigma
Width: 575
VWidth: 0
Flags: HW
LayerCount: 2
Fore
SplineSet
532 423 m 258
 484 423 l 257
 503 377 513 331 513 287 c 256
 513 115 413 -15 243 -15 c 256
 126 -15 60 61 60 187 c 256
 60 376 168 500 355 500 c 258
 545 500 l 258
 561 500 568 491 566 475 c 258
 561 448 l 258
 559 432 548 423 532 423 c 258
396 423 m 257
 342 423 l 258
 210 423 146 332 146 200 c 256
 146 114 185 62 255 62 c 256
 372 62 427 168 427 287 c 256
 427 332 417 378 396 423 c 257
EndSplineSet
PickledDataWithLists: "(dp0
Vcom.schriftgestaltung.Glyphs.lastChange
p1
V2015-12-22 12:47:01 +0000
p2
s."
EndChar

StartChar: six
Encoding: 54 54 367
GlifName: six
Width: 575
VWidth: 0
Flags: HW
LayerCount: 2
Fore
SplineSet
502 672 m 258
 491 644 l 257
 485 629 474 622 458 625 c 256
 432 630 410 632 393 632 c 256
 313 632 215 586 168 402 c 257
 225 419 271 429 313 429 c 256
 418 429 494 365 494 251 c 256
 494 112 390 -10 242 -10 c 256
 125 -10 55 61 55 223 c 256
 55 461 178 710 403 710 c 256
 427 710 456 707 487 702 c 256
 502 699 507 688 502 672 c 258
142 237 m 256
 142 112 193 68 257 68 c 256
 350 68 407 158 407 240 c 256
 407 312 366 351 297 351 c 256
 269 351 217 349 150 317 c 257
 145 284 142 262 142 237 c 256
EndSplineSet
PickledDataWithLists: "(dp0
Vcom.schriftgestaltung.Glyphs.lastChange
p1
V2015-12-22 20:52:27 +0000
p2
s."
EndChar

StartChar: six.dnom
Encoding: 65579 -1 368
GlifName: six.dnom
Width: 250
VWidth: 0
Flags: HW
LayerCount: 2
Fore
SplineSet
244 334 m 257
 239 319 l 257
 234 310 220 300 207 303 c 257
 194 305 184 306 173 306 c 256
 132 306 99 286 77 200 c 257
 100 206 124 210 146 210 c 256
 211 210 248 167 238 103 c 256
 226 29 177 -15 101 -15 c 256
 18 -15 -16 45 0 150 c 256
 26 315 101 365 182 365 c 256
 197 365 213 364 228 361 c 257
 243 359 247 345 244 334 c 257
65 137 m 257
 56 68 73 44 110 44 c 256
 148 44 164 58 171 103 c 256
 175 133 162 151 136 151 c 256
 115 151 93 146 65 137 c 257
  PathStart: -2
EndSplineSet
PickledDataWithLists: "(dp0
Vcom.schriftgestaltung.Glyphs.Export
p1
I00
sVcom.schriftgestaltung.Glyphs.lastChange
p2
V2015-12-22 13:06:37 +0000
p3
s."
EndChar

StartChar: six.hex
Encoding: 65580 -1 369
GlifName: six.hex
Width: 575
VWidth: 0
Flags: HW
LayerCount: 2
Fore
SplineSet
358 875 m 258
 358 829 l 258
 358 812 349 804 333 804 c 258
 298 804 l 258
 281 804 273 813 273 829 c 258
 273 875 l 258
 273 891 282 900 298 900 c 258
 333 900 l 258
 349 900 358 891 358 875 c 258
502 875 m 258
 502 829 l 258
 502 812 493 804 477 804 c 258
 442 804 l 258
 425 804 417 813 417 829 c 258
 417 875 l 258
 417 891 426 900 442 900 c 258
 477 900 l 258
 493 900 502 891 502 875 c 258
EndSplineSet
Refer: 367 54 N 1 0 0 1 0 0 2
PickledDataWithLists: "(dp0
Vcom.schriftgestaltung.Glyphs.lastChange
p1
V2016-02-10 13:21:08 +0000
p2
s."
EndChar

StartChar: slash
Encoding: 47 47 371
GlifName: slash
Width: 575
VWidth: 0
Flags: HW
LayerCount: 2
Back
SplineSet
389 682 m 258
 106 -144 l 258
 102 -158 108 -170 123 -177 c 258
 157 -193 l 258
 172 -200 184 -196 188 -182 c 258
 471 644 l 258
 475 658 469 670 454 677 c 258
 420 693 l 258
 405 700 393 696 389 682 c 258
EndSplineSet
Fore
SplineSet
414 682 m 258
 418 696 430 700 445 693 c 258
 479 677 l 258
 494 670 500 658 496 644 c 258
 163 -182 l 258
 159 -196 147 -200 132 -193 c 258
 98 -177 l 258
 83 -170 77 -158 81 -144 c 258
 414 682 l 258
EndSplineSet
PickledDataWithLists: "(dp0
Vcom.schriftgestaltung.Glyphs.lastChange
p1
V2016-06-09 18:35:33 +0000
p2
s."
EndChar

StartChar: sterling
Encoding: 163 163 373
GlifName: sterling
Width: 575
VWidth: 0
Flags: HW
LayerCount: 2
Fore
SplineSet
522 518 m 258
 487 518 l 258
 471 518 462 527 462 544 c 256
 462 588 445 634 388 634 c 256
 343 634 304 600 295 538 c 258
 271 389 l 257
 447 389 l 258
 463 389 471 380 468 364 c 258
 464 337 l 258
 461 321 451 312 435 312 c 258
 259 312 l 257
 222 77 l 257
 438 77 l 258
 455 77 461 68 459 52 c 258
 454 25 l 258
 452 9 442 0 425 0 c 258
 70 0 l 258
 54 0 47 9 49 25 c 258
 54 52 l 258
 56 68 67 77 83 77 c 258
 137 77 l 257
 174 312 l 257
 120 312 l 258
 104 312 96 321 99 337 c 258
 103 363 l 258
 106 380 116 389 132 389 c 258
 186 389 l 257
 210 538 l 258
 230 664 308 710 400 710 c 256
 520 710 549 631 549 544 c 256
 549 527 538 518 522 518 c 258
EndSplineSet
PickledDataWithLists: "(dp0
Vcom.schriftgestaltung.Glyphs.lastChange
p1
V2015-12-22 14:04:47 +0000
p2
s."
EndChar

StartChar: summation
Encoding: 8721 8721 374
GlifName: summation
Width: 575
VWidth: 0
Flags: HW
LayerCount: 2
Fore
SplineSet
592 674 m 257
 588 647 l 257
 585 631 575 622 559 622 c 258
 232 622 l 257
 448 367 l 258
 458 356 456 344 442 332 c 258
 146 77 l 257
 473 77 l 258
 489 77 496 68 494 52 c 258
 489 25 l 258
 487 9 476 0 460 0 c 258
 37 0 l 258
 21 0 14 9 17 26 c 258
 19 43 l 258
 21 57 25 65 33 73 c 257
 353 349 l 257
 121 626 l 257
 115 634 114 642 116 656 c 258
 119 673 l 258
 122 690 132 699 148 699 c 258
 571 699 l 258
 587 699 595 690 592 674 c 257
EndSplineSet
PickledDataWithLists: "(dp0
Vcom.schriftgestaltung.Glyphs.lastChange
p1
V2015-12-22 12:21:09 +0000
p2
s."
EndChar

StartChar: t
Encoding: 116 116 375
GlifName: t
Width: 575
VWidth: 0
Flags: HW
AnchorPoint: "bottom" 248 0 basechar 0
AnchorPoint: "top" 328 500 basechar 0
AnchorPoint: "topright" 595 500 basechar 0
AnchorPoint: "center" 288 250 basechar 0
LayerCount: 2
Fore
SplineSet
456 57 m 258
 458 31 l 258
 460 15 451 4 435 1 c 256
 380 -9 337 -10 310 -10 c 256
 211 -10 166 23 166 105 c 256
 166 119 167 135 170 152 c 258
 214 424 l 257
 138 424 l 258
 122 424 114 433 117 449 c 258
 121 475 l 258
 123 492 134 500 150 500 c 258
 225 500 l 257
 246 635 l 258
 249 651 259 660 275 660 c 258
 311 660 l 258
 327 660 335 651 332 635 c 258
 311 500 l 257
 475 500 l 258
 491 500 498 492 496 475 c 258
 492 449 l 258
 489 433 479 424 463 424 c 258
 299 424 l 257
 255 152 l 258
 253 141 253 131 253 123 c 256
 253 82 272 67 322 67 c 256
 345 67 385 69 429 76 c 256
 446 79 455 73 456 57 c 258
EndSplineSet
PickledDataWithLists: "(dp0
Vcom.schriftgestaltung.Glyphs.lastChange
p1
V2016-06-09 18:35:34 +0000
p2
s."
EndChar

StartChar: tau
Encoding: 964 964 376
GlifName: tau
Width: 575
VWidth: 0
Flags: HW
LayerCount: 2
Fore
SplineSet
475 57 m 257
 479 31 l 257
 483 16 475 4 457 0 c 256
 419 -9 388 -10 368 -10 c 256
 254 -10 212 40 229 150 c 258
 273 424 l 257
 123 424 l 258
 107 424 99 432 102 449 c 258
 106 475 l 258
 108 492 119 500 135 500 c 257
 520 500 l 257
 537 500 543 492 541 475 c 258
 537 449 l 258
 534 432 525 424 507 423 c 257
 357 423 l 257
 314 150 l 258
 305 91 320 68 380 67 c 256
 396 67 420 68 446 74 c 257
 463 77 472 72 475 57 c 257
EndSplineSet
PickledDataWithLists: "(dp0
Vcom.schriftgestaltung.Glyphs.lastChange
p1
V2016-05-30 08:33:06 +0000
p2
s."
EndChar

StartChar: tbar
Encoding: 359 359 377
GlifName: tbar
Width: 575
VWidth: 0
Flags: HW
LayerCount: 2
Fore
SplineSet
447 68 m 257
 454 42 l 258
 458 27 452 15 435 10 c 257
 400 -2 362 -10 327 -10 c 256
 220 -10 174 54 174 148 c 256
 174 168 176 187 182 224 c 257
 106 224 l 258
 90 224 82 233 85 249 c 258
 89 275 l 258
 92 292 102 300 118 300 c 258
 194 300 l 257
 214 424 l 257
 138 424 l 258
 122 424 114 433 117 449 c 258
 121 475 l 258
 123 492 134 500 150 500 c 258
 226 500 l 257
 247 635 l 258
 250 651 260 660 276 660 c 258
 311 660 l 258
 327 660 335 651 332 635 c 258
 311 500 l 257
 475 500 l 258
 491 500 498 492 496 475 c 258
 492 449 l 258
 489 433 479 424 463 424 c 258
 299 424 l 257
 279 300 l 257
 443 300 l 258
 459 300 467 292 464 275 c 258
 460 249 l 258
 457 233 447 224 431 224 c 258
 267 224 l 257
 262 191 260 172 260 154 c 256
 260 87 291 68 339 68 c 256
 364 68 388 72 416 82 c 256
 432 88 443 83 447 68 c 257
EndSplineSet
PickledDataWithLists: "(dp0
Vcom.schriftgestaltung.Glyphs.lastChange
p1
V2016-06-09 18:35:34 +0000
p2
s."
EndChar

StartChar: therefore
Encoding: 8756 8756 379
GlifName: therefore
Width: 575
VWidth: 0
Flags: HW
LayerCount: 2
Fore
SplineSet
44 86 m 258
 58 173 l 258
 60 189 71 198 87 198 c 258
 192 198 l 258
 209 198 215 189 213 173 c 258
 199 86 l 258
 196 69 187 61 170 61 c 258
 65 61 l 258
 49 61 41 69 44 86 c 258
324 86 m 258
 338 173 l 258
 340 189 351 198 367 198 c 258
 472 198 l 258
 489 198 495 189 493 173 c 258
 479 86 l 258
 476 69 467 61 450 61 c 258
 345 61 l 258
 329 61 321 69 324 86 c 258
232 388 m 258
 246 475 l 258
 248 492 259 500 275 500 c 258
 380 500 l 258
 397 500 403 492 401 475 c 258
 387 388 l 258
 384 372 375 363 358 363 c 258
 253 363 l 258
 237 363 229 372 232 388 c 258
EndSplineSet
PickledDataWithLists: "(dp0
Vcom.schriftgestaltung.Glyphs.lastChange
p1
V2015-12-22 14:20:54 +0000
p2
s."
EndChar

StartChar: theta
Encoding: 952 952 380
GlifName: theta
Width: 575
VWidth: 0
Flags: HW
LayerCount: 2
Fore
SplineSet
99 350 m 256
 137 588 225 710 359 710 c 256
 464 710 516 636 516 490 c 256
 516 449 512 402 504 350 c 256
 467 112 379 -10 245 -10 c 256
 140 -10 87 65 87 212 c 256
 87 253 91 299 99 350 c 256
  PathStart: -2
191 389 m 257
 424 389 l 257
 429 425 431 457 431 485 c 256
 431 584 402 634 347 634 c 256
 275 634 222 551 191 389 c 257
412 311 m 257
 179 311 l 257
 175 276 172 245 172 217 c 256
 172 118 201 67 257 67 c 256
 328 67 382 150 412 311 c 257
EndSplineSet
PickledDataWithLists: "(dp0
Vcom.schriftgestaltung.Glyphs.lastChange
p1
V2015-12-22 16:32:52 +0000
p2
s."
EndChar

StartChar: thorn
Encoding: 254 254 381
GlifName: thorn
Width: 575
VWidth: 0
Flags: HW
AnchorPoint: "top" 340 500 basechar 0
AnchorPoint: "bottom" 260 0 basechar 0
LayerCount: 2
Fore
SplineSet
237 676 m 257
 211 507 l 257
 247 511 278 512 300 512 c 256
 437 512 498 461 498 319 c 256
 498 122 416 -8 218 -8 c 256
 198 -8 167 -7 130 -4 c 257
 103 -174 l 258
 100 -190 91 -200 75 -200 c 258
 40 -200 l 258
 24 -200 15 -193 18 -176 c 258
 152 674 l 258
 155 689 164 700 180 700 c 258
 215 700 l 258
 232 700 240 693 237 676 c 257
199 432 m 257
 142 72 l 257
 178 69 210 68 230 68 c 256
 366 68 412 168 412 305 c 256
 412 403 378 435 288 435 c 256
 270 435 238 435 199 432 c 257
EndSplineSet
PickledDataWithLists: "(dp0
Vcom.schriftgestaltung.Glyphs.lastChange
p1
V2016-06-09 18:35:34 +0000
p2
s."
EndChar

StartChar: three
Encoding: 51 51 382
GlifName: three
Width: 575
VWidth: 0
Flags: HW
LayerCount: 2
Fore
SplineSet
184 637 m 258
 181 665 l 258
 179 680 186 692 203 696 c 256
 240 705 281 710 321 710 c 256
 428 710 527 670 527 553 c 256
 527 466 469 407 384 364 c 257
 435 338 481 287 481 202 c 256
 481 66 353 -10 202 -10 c 256
 160 -10 119 -5 83 4 c 256
 68 8 65 20 71 35 c 258
 83 63 l 258
 90 78 102 83 117 79 c 256
 146 72 178 68 214 68 c 256
 325 68 396 115 396 204 c 256
 396 279 343 324 262 324 c 258
 211 324 l 258
 195 324 187 333 190 349 c 258
 194 376 l 258
 196 392 207 401 223 401 c 258
 274 401 l 258
 375 401 440 459 440 539 c 256
 440 610 390 632 309 632 c 256
 276 632 244 628 213 621 c 256
 196 617 186 622 184 637 c 258
EndSplineSet
PickledDataWithLists: "(dp0
Vcom.schriftgestaltung.Glyphs.lastChange
p1
V2015-12-22 20:51:58 +0000
p2
s."
EndChar

StartChar: three.dnom
Encoding: 65582 -1 383
GlifName: three.dnom
Width: 250
VWidth: 0
Flags: HW
LayerCount: 2
Fore
SplineSet
60 316 m 258
 59 330 l 257
 58 340 64 354 80 358 c 256
 99 363 121 365 142 365 c 256
 204 365 266 338 254 263 c 256
 248 222 230 193 196 175 c 257
 225 158 238 129 232 92 c 256
 219 13 144 -15 80 -15 c 256
 58 -15 36 -13 17 -8 c 256
 3 -4 1 10 5 21 c 257
 11 35 l 258
 16 45 31 53 43 50 c 256
 58 46 72 44 89 44 c 256
 133 44 159 56 165 92 c 256
 170 126 147 147 109 147 c 258
 84 147 l 258
 70 147 60 158 62 170 c 258
 64 183 l 258
 66 195 79 206 93 206 c 258
 118 206 l 258
 155 206 182 228 187 263 c 256
 192 294 173 306 133 306 c 256
 118 306 103 304 87 301 c 257
 88 301 l 257
 76 298 62 304 60 316 c 258
EndSplineSet
PickledDataWithLists: "(dp0
Vcom.schriftgestaltung.Glyphs.Export
p1
I00
sVcom.schriftgestaltung.Glyphs.lastChange
p2
V2015-12-22 13:05:35 +0000
p3
s."
EndChar

StartChar: three.hex
Encoding: 65583 -1 384
GlifName: three.hex
Width: 575
VWidth: 0
Flags: HW
LayerCount: 2
Fore
SplineSet
502 875 m 258
 502 829 l 258
 502 812 494 804 477 804 c 258
 442 804 l 258
 426 804 417 813 417 829 c 258
 417 875 l 258
 417 891 426 900 442 900 c 258
 477 900 l 258
 494 900 502 891 502 875 c 258
646 875 m 258
 646 829 l 258
 646 812 637 804 621 804 c 258
 586 804 l 258
 569 804 561 813 561 829 c 258
 561 875 l 258
 561 891 570 900 586 900 c 258
 621 900 l 258
 637 900 646 891 646 875 c 258
EndSplineSet
Refer: 382 51 N 1 0 0 1 0 0 2
PickledDataWithLists: "(dp0
Vcom.schriftgestaltung.Glyphs.lastChange
p1
V2016-02-10 13:19:26 +0000
p2
s."
EndChar

StartChar: tilde
Encoding: 732 732 388
GlifName: tilde
Width: 575
VWidth: 0
Flags: HW
AnchorPoint: "top" 328 500 mark 0
LayerCount: 2
Fore
SplineSet
204 585 m 258
 192 594 l 258
 180 603 180 615 192 629 c 256
 233 673 276 698 315 698 c 256
 339 698 370 685 402 661 c 256
 423 646 442 638 459 638 c 256
 478 638 498 647 516 664 c 257
 527 676 540 678 552 670 c 258
 563 661 l 258
 576 651 576 639 563 626 c 256
 521 581 478 557 440 557 c 256
 417 557 386 570 353 593 c 256
 332 608 309 616 291 616 c 256
 275 616 258 607 240 591 c 256
 228 579 215 577 204 585 c 258
EndSplineSet
PickledDataWithLists: "(dp0
Vcom.schriftgestaltung.Glyphs.lastChange
p1
V2015-12-22 16:32:44 +0000
p2
s."
EndChar

StartChar: trademark
Encoding: 8482 8482 389
GlifName: trademark
Width: 575
VWidth: 0
Flags: HW
LayerCount: 2
Fore
SplineSet
296 684 m 258
 293 667 l 258
 291 657 285 651 275 651 c 258
 220 651 l 257
 175 371 l 258
 174 361 168 355 157 355 c 258
 136 355 l 258
 125 355 121 361 122 371 c 258
 167 651 l 257
 112 651 l 258
 102 651 97 657 99 667 c 258
 102 684 l 258
 103 693 109 699 119 699 c 258
 282 699 l 258
 292 699 297 694 296 684 c 258
597 686 m 258
 547 371 l 258
 546 361 540 355 530 355 c 258
 509 355 l 258
 499 355 493 360 495 367 c 256
 503 419 519 517 532 590 c 257
 486 512 l 258
 474 490 456 478 436 478 c 256
 414 478 399 490 393 512 c 258
 375 590 l 257
 368 531 353 434 343 367 c 256
 341 360 336 355 325 355 c 258
 304 355 l 258
 294 355 289 361 290 371 c 258
 340 686 l 258
 342 696 349 702 360 702 c 256
 371 702 375 701 382 699 c 256
 390 694 394 688 396 679 c 258
 429 531 l 258
 430 524 434 518 442 518 c 256
 450 518 456 524 461 531 c 258
 539 680 l 258
 545 689 550 695 561 699 c 256
 566 701 573 702 584 702 c 256
 595 702 599 696 597 686 c 258
EndSplineSet
PickledDataWithLists: "(dp0
Vcom.schriftgestaltung.Glyphs.lastChange
p1
V2015-12-22 14:25:18 +0000
p2
s."
EndChar

StartChar: two
Encoding: 50 50 390
GlifName: two
Width: 575
VWidth: 0
Flags: HW
LayerCount: 2
Fore
SplineSet
143 77 m 257
 462 77 l 258
 478 77 485 68 483 52 c 258
 478 24 l 258
 476 8 465 -1 449 -1 c 258
 69 -1 l 258
 53 -1 46 8 48 24 c 258
 52 48 l 258
 73 183 190 256 268 309 c 256
 363 375 454 438 454 535 c 256
 454 605 406 632 326 632 c 256
 285 632 244 624 197 608 c 256
 180 603 170 608 166 623 c 258
 161 649 l 258
 158 664 164 675 180 681 c 256
 231 699 287 710 338 710 c 256
 449 710 541 663 541 547 c 256
 541 410 425 327 312 248 c 256
 233 194 160 144 143 77 c 257
EndSplineSet
PickledDataWithLists: "(dp0
Vcom.schriftgestaltung.Glyphs.lastChange
p1
V2015-12-22 20:51:50 +0000
p2
s."
EndChar

StartChar: two.dnom
Encoding: 65585 -1 391
GlifName: two.dnom
Width: 250
VWidth: 0
Flags: HW
LayerCount: 2
Fore
SplineSet
68 49 m 257
 213 49 l 258
 228 49 235 37 234 26 c 258
 231 12 l 258
 230 1 218 -11 204 -11 c 258
 14 -11 l 258
 0 -11 -10 0 -8 12 c 258
 -6 24 l 258
 6 97 69 136 109 163 c 256
 155 195 188 219 194 257 c 256
 200 292 180 306 142 306 c 256
 122 306 105 302 81 295 c 257
 68 291 55 297 52 308 c 258
 49 321 l 257
 46 332 55 345 68 350 c 257
 94 360 124 365 151 365 c 256
 216 365 273 333 261 257 c 256
 251 192 193 152 142 116 c 256
 108 93 80 73 68 49 c 257
EndSplineSet
PickledDataWithLists: "(dp0
Vcom.schriftgestaltung.Glyphs.Export
p1
I00
sVcom.schriftgestaltung.Glyphs.lastChange
p2
V2015-12-22 13:05:14 +0000
p3
s."
EndChar

StartChar: two.hex
Encoding: 65586 -1 392
GlifName: two.hex
Width: 575
VWidth: 0
Flags: HW
LayerCount: 2
Fore
SplineSet
502 875 m 258
 502 829 l 258
 502 812 494 804 477 804 c 258
 442 804 l 258
 426 804 417 813 417 829 c 258
 417 875 l 258
 417 891 426 900 442 900 c 258
 477 900 l 258
 494 900 502 891 502 875 c 258
EndSplineSet
Refer: 390 50 N 1 0 0 1 0 0 2
PickledDataWithLists: "(dp0
Vcom.schriftgestaltung.Glyphs.lastChange
p1
V2016-05-30 08:38:37 +0000
p2
s."
EndChar

StartChar: u
Encoding: 117 117 395
GlifName: u
Width: 575
VWidth: 0
Flags: HW
AnchorPoint: "ogonek" 473 10 basechar 0
AnchorPoint: "top" 328 550 basechar 0
AnchorPoint: "topright" 591 500 basechar 0
AnchorPoint: "bottom" 248 0 basechar 0
LayerCount: 2
Fore
SplineSet
364 25 m 258
 370 63 l 257
 318 15 263 -10 212 -10 c 256
 122 -10 53 31 84 222 c 258
 124 475 l 258
 126 491 136 500 153 500 c 258
 188 500 l 258
 204 500 211 491 209 475 c 258
 169 222 l 258
 147 86 184 66 242 66 c 256
 283 66 331 95 384 151 c 257
 436 475 l 258
 438 491 449 500 465 500 c 258
 500 500 l 258
 516 500 523 491 521 475 c 258
 450 30 l 258
 448 14 438 0 422 0 c 258
 385 0 l 258
 369 0 362 9 364 25 c 258
EndSplineSet
PickledDataWithLists: "(dp0
Vcom.schriftgestaltung.Glyphs.lastChange
p1
V2016-06-09 18:35:34 +0000
p2
sVcom.typemytype.robofont.layerData
p3
(dp4
Vbackground
p5
(dp6
Vanchors
p7
(lp8
sVcomponents
p9
(lp10
sVcontours
p11
(lp12
(dp13
Vpoints
p14
(lp15
(dp16
VsegmentType
p17
Vline
p18
sVsmooth
p19
I01
sVx
p20
I206
sVy
p21
I475
sa(dp22
g19
I00
sg20
I208
sg21
I491
sa(dp23
g19
I00
sg20
I201
sg21
I500
sa(dp24
g17
Vcurve
p25
sg19
I01
sg20
I185
sg21
I500
sa(dp26
g17
Vline
p27
sg19
I01
sg20
I148
sg21
I500
sa(dp28
g19
I00
sg20
I132
sg21
I500
sa(dp29
g19
I00
sg20
I122
sg21
I486
sa(dp30
g17
Vcurve
p31
sg19
I01
sg20
I120
sg21
I470
sa(dp32
g17
Vline
p33
sg19
I01
sg20
I49
sg21
I25
sa(dp34
g19
I00
sg20
I47
sg21
I9
sa(dp35
g19
I00
sg20
I54
sg21
I0
sa(dp36
g17
Vcurve
p37
sg19
I01
sg20
I70
sg21
I0
sa(dp38
g17
Vline
p39
sg19
I01
sg20
I105
sg21
I0
sa(dp40
g19
I00
sg20
I121
sg21
I0
sa(dp41
g19
I00
sg20
I132
sg21
I9
sa(dp42
g17
Vcurve
p43
sg19
I01
sg20
I134
sg21
I25
sa(dp44
g17
Vline
p45
sg19
I00
sg20
I186
sg21
I349
sa(dp46
g19
I00
sg20
I239
sg21
I405
sa(dp47
g19
I00
sg20
I291
sg21
I434
sa(dp48
g17
Vcurve
p49
sg19
I01
sg20
I332
sg21
I434
sa(dp50
g19
I00
sg20
I390
sg21
I434
sa(dp51
g19
I00
sg20
I431
sg21
I414
sa(dp52
g17
Vcurve
p53
sg19
I01
sg20
I409
sg21
I278
sa(dp54
g17
Vline
p55
sg19
I01
sg20
I369
sg21
I25
sa(dp56
g19
I00
sg20
I367
sg21
I9
sa(dp57
g19
I00
sg20
I374
sg21
I0
sa(dp58
g17
Vcurve
p59
sg19
I01
sg20
I390
sg21
I0
sa(dp60
g17
Vline
p61
sg19
I01
sg20
I425
sg21
I0
sa(dp62
g19
I00
sg20
I442
sg21
I0
sa(dp63
g19
I00
sg20
I452
sg21
I9
sa(dp64
g17
Vcurve
p65
sg19
I01
sg20
I454
sg21
I25
sa(dp66
g17
Vline
p67
sg19
I01
sg20
I494
sg21
I278
sa(dp68
g19
I00
sg20
I525
sg21
I469
sa(dp69
g19
I00
sg20
I452
sg21
I510
sa(dp70
g17
Vcurve
p71
sg19
I01
sg20
I362
sg21
I510
sa(dp72
g19
I00
sg20
I311
sg21
I510
sa(dp73
g19
I00
sg20
I252
sg21
I485
sa(dp74
g17
Vcurve
p75
sg19
I00
sg20
I200
sg21
I437
sasasVlib
p76
(dp77
sVname
p78
Vu
p79
sVunicodes
p80
(lp81
sVwidth
p82
I575
sss."
EndChar

StartChar: underscore
Encoding: 95 95 403
GlifName: underscore
Width: 575
VWidth: 0
Flags: HW
LayerCount: 2
Fore
SplineSet
3 -52 m 258
 7 -25 l 258
 10 -9 20 0 36 0 c 258
 459 0 l 258
 475 0 483 -9 480 -25 c 258
 476 -52 l 258
 474 -68 464 -77 447 -77 c 258
 24 -77 l 258
 8 -77 1 -68 3 -52 c 258
EndSplineSet
PickledDataWithLists: "(dp0
Vcom.schriftgestaltung.Glyphs.lastChange
p1
V2015-12-23 09:18:36 +0000
p2
s."
EndChar

StartChar: mu
Encoding: 181 181 405
GlifName: uni00B_5
Width: 575
VWidth: 0
Flags: HW
LayerCount: 2
Fore
SplineSet
470 500 m 258
 505 500 l 258
 522 500 528 492 526 475 c 258
 455 30 l 258
 453 14 444 5 428 3 c 256
 353 -9 290 -10 257 -10 c 256
 200 -10 159 0 134 23 c 257
 97 -213 l 258
 94 -229 84 -238 68 -238 c 258
 33 -238 l 258
 17 -238 9 -229 12 -213 c 258
 121 475 l 258
 123 492 134 500 150 500 c 258
 185 500 l 258
 202 500 208 491 206 475 c 258
 161 193 l 258
 146 99 177 67 269 67 c 256
 293 67 331 68 377 71 c 257
 441 475 l 258
 443 491 454 500 470 500 c 258
EndSplineSet
PickledDataWithLists: "(dp0
Vcom.schriftgestaltung.Glyphs.lastChange
p1
V2015-12-22 16:32:55 +0000
p2
s."
EndChar

StartChar: uni0237
Encoding: 567 567 408
GlifName: uni0237
Width: 575
VWidth: 0
Flags: HW
LayerCount: 2
Fore
SplineSet
504 365 m 256
 504 345 502 324 498 300 c 258
 469 120 l 258
 436 -90 308 -160 182 -160 c 256
 131 -160 81 -150 37 -130 c 256
 23 -124 21 -112 29 -97 c 258
 43 -73 l 258
 51 -58 63 -53 77 -59 c 256
 119 -75 153 -82 194 -82 c 256
 283 -82 359 -36 383 120 c 258
 412 300 l 258
 415 319 417 336 417 351 c 256
 417 413 389 435 333 435 c 256
 309 435 281 431 248 425 c 256
 231 422 221 429 222 445 c 258
 221 473 l 258
 221 488 229 499 246 502 c 256
 283 508 317 512 348 512 c 256
 440 512 504 478 504 365 c 256
  PathStart: -1
EndSplineSet
PickledDataWithLists: "(dp0
Vcom.schriftgestaltung.Glyphs.lastChange
p1
V2016-06-09 18:35:33 +0000
p2
s."
EndChar

StartChar: uni0394
Encoding: 916 916 409
GlifName: uni0394
Width: 575
VWidth: 0
Flags: HW
LayerCount: 2
Fore
SplineSet
439 621 m 258
 523 28 l 257
 525 11 514 0 497 0 c 257
 -1 0 l 257
 -19 0 -26 11 -18 28 c 258
 254 621 l 258
 281 682 323 712 360 712 c 256
 397 712 430 681 439 621 c 258
336 607 m 258
 88 75 l 257
 432 75 l 257
 354 607 l 258
 350 625 344 625 336 607 c 258
EndSplineSet
PickledDataWithLists: "(dp0
Vcom.schriftgestaltung.Glyphs.lastChange
p1
V2015-12-22 12:15:12 +0000
p2
s."
EndChar

